<svg xmlns="http://www.w3.org/2000/svg" xmlns:xlink="http://www.w3.org/1999/xlink" width="1080" zoomAndPan="magnify" viewBox="0 0 810 809.999993" height="1080" preserveAspectRatio="xMidYMid meet" version="1.0"><defs><clipPath id="0e8a93936a"><path d="M 71.9375 71.9375 L 737.9375 71.9375 L 737.9375 737.9375 L 71.9375 737.9375 Z M 71.9375 71.9375 " clip-rule="nonzero"/></clipPath></defs><path fill="#000000" d="M 389.566406 532.296875 L 495.519531 426.339844 C 501.195312 420.664062 504.386719 412.859375 504.386719 404.820312 C 504.269531 396.660156 501.078125 388.972656 495.28125 383.296875 L 387.199219 277.34375 C 375.257812 265.636719 356.097656 265.871094 344.390625 277.816406 C 332.683594 289.757812 332.921875 308.917969 344.863281 320.625 L 431.070312 405.175781 L 346.757812 489.488281 C 334.933594 501.3125 334.933594 520.46875 346.757812 532.296875 C 358.582031 544.121094 377.738281 544.121094 389.566406 532.296875 " fill-opacity="1" fill-rule="evenodd"/><g clip-path="url(#0e8a93936a)"><path fill="#000000" d="M 404.9375 737.9375 C 588.703125 737.9375 737.9375 588.703125 737.9375 404.9375 C 737.9375 221.171875 588.703125 71.9375 404.9375 71.9375 C 221.171875 71.9375 71.9375 221.171875 71.9375 404.9375 C 71.9375 588.703125 221.171875 737.9375 404.9375 737.9375 Z M 404.9375 677.390625 C 254.519531 677.390625 132.484375 555.355469 132.484375 404.9375 C 132.484375 254.519531 254.519531 132.484375 404.9375 132.484375 C 555.355469 132.484375 677.390625 254.519531 677.390625 404.9375 C 677.390625 555.355469 555.355469 677.390625 404.9375 677.390625 " fill-opacity="1" fill-rule="evenodd"/></g></svg>