<svg width="24" height="24" viewBox="0 0 24 24" fill="none" xmlns="http://www.w3.org/2000/svg" role="img" aria-label="looky Icon" aria-hidden="true" class="inline-block shrink-0 size-24 text-current"><path d="M16.3427 4.42676C17.3163 4.42676 18.3317 5.09924 19.1445 6.47461C19.9473 7.83321 20.4677 9.7592 20.4677 11.9268C20.4677 14.0943 19.9473 16.0203 19.1445 17.3789C18.3317 18.7543 17.3163 19.4268 16.3427 19.4268C15.3692 19.4268 14.3537 18.7543 13.541 17.3789C12.7382 16.0203 12.2177 14.0943 12.2177 11.9268C12.2177 9.7592 12.7382 7.83321 13.541 6.47461C14.3537 5.09924 15.3692 4.42676 16.3427 4.42676Z" fill="white" stroke="black" stroke-width="1.5" vector-effect="non-scaling-stroke"/><path d="M7.34271 4.42676C8.31626 4.42676 9.33175 5.09924 10.1445 6.47461C10.9473 7.83321 11.4677 9.7592 11.4677 11.9268C11.4677 14.0943 10.9473 16.0203 10.1445 17.3789C9.33175 18.7543 8.31626 19.4268 7.34271 19.4268C6.36916 19.4268 5.35368 18.7543 4.54095 17.3789C3.73817 16.0203 3.21771 14.0943 3.21771 11.9268C3.21771 9.7592 3.73817 7.83321 4.54095 6.47461C5.35368 5.09924 6.36916 4.42676 7.34271 4.42676Z" fill="white" stroke="black" stroke-width="1.5" vector-effect="non-scaling-stroke"/><circle cx="5.625" cy="12.3018" r="2.625" fill="black"/><circle cx="14.625" cy="12.3018" r="2.625" fill="black"/></svg>