<svg xmlns="http://www.w3.org/2000/svg" xmlns:xlink="http://www.w3.org/1999/xlink" width="1080" zoomAndPan="magnify" viewBox="0 0 810 809.999993" height="1080" preserveAspectRatio="xMidYMid meet" version="1.0"><defs><clipPath id="92544ab2f9"><path d="M 77 278.378906 L 80 278.378906 L 80 766.59375 L 77 766.59375 Z M 77 278.378906 " clip-rule="nonzero"/></clipPath><clipPath id="9baa940e32"><path d="M 132 278.378906 L 135 278.378906 L 135 766.59375 L 132 766.59375 Z M 132 278.378906 " clip-rule="nonzero"/></clipPath><clipPath id="41933e60a3"><path d="M 188 278.378906 L 190 278.378906 L 190 766.59375 L 188 766.59375 Z M 188 278.378906 " clip-rule="nonzero"/></clipPath><clipPath id="9dd611367d"><path d="M 243 278.378906 L 246 278.378906 L 246 766.59375 L 243 766.59375 Z M 243 278.378906 " clip-rule="nonzero"/></clipPath><clipPath id="67f8bd0eaf"><path d="M 52.59375 301 L 766.59375 301 L 766.59375 304 L 52.59375 304 Z M 52.59375 301 " clip-rule="nonzero"/></clipPath><clipPath id="a11b369608"><path d="M 298 278.378906 L 301 278.378906 L 301 766.59375 L 298 766.59375 Z M 298 278.378906 " clip-rule="nonzero"/></clipPath><clipPath id="2b603d0081"><path d="M 52.59375 356 L 766.59375 356 L 766.59375 359 L 52.59375 359 Z M 52.59375 356 " clip-rule="nonzero"/></clipPath><clipPath id="585ae5c0d5"><path d="M 353 278.378906 L 356 278.378906 L 356 766.59375 L 353 766.59375 Z M 353 278.378906 " clip-rule="nonzero"/></clipPath><clipPath id="a8efe69536"><path d="M 52.59375 411 L 766.59375 411 L 766.59375 414 L 52.59375 414 Z M 52.59375 411 " clip-rule="nonzero"/></clipPath><clipPath id="3de81d5aef"><path d="M 408 278.378906 L 411 278.378906 L 411 766.59375 L 408 766.59375 Z M 408 278.378906 " clip-rule="nonzero"/></clipPath><clipPath id="b1ad6ab963"><path d="M 52.59375 467 L 766.59375 467 L 766.59375 469 L 52.59375 469 Z M 52.59375 467 " clip-rule="nonzero"/></clipPath><clipPath id="2fc646527f"><path d="M 464 278.378906 L 467 278.378906 L 467 766.59375 L 464 766.59375 Z M 464 278.378906 " clip-rule="nonzero"/></clipPath><clipPath id="d6fc4ac23f"><path d="M 52.59375 522 L 766.59375 522 L 766.59375 525 L 52.59375 525 Z M 52.59375 522 " clip-rule="nonzero"/></clipPath><clipPath id="ebb309ceca"><path d="M 519 278.378906 L 522 278.378906 L 522 766.59375 L 519 766.59375 Z M 519 278.378906 " clip-rule="nonzero"/></clipPath><clipPath id="2fd6f393c5"><path d="M 52.59375 577 L 766.59375 577 L 766.59375 580 L 52.59375 580 Z M 52.59375 577 " clip-rule="nonzero"/></clipPath><clipPath id="306d508b47"><path d="M 574 278.378906 L 577 278.378906 L 577 766.59375 L 574 766.59375 Z M 574 278.378906 " clip-rule="nonzero"/></clipPath><clipPath id="18f84ae175"><path d="M 52.59375 632 L 766.59375 632 L 766.59375 635 L 52.59375 635 Z M 52.59375 632 " clip-rule="nonzero"/></clipPath><clipPath id="2c120fd8e2"><path d="M 629 278.378906 L 632 278.378906 L 632 766.59375 L 629 766.59375 Z M 629 278.378906 " clip-rule="nonzero"/></clipPath><clipPath id="05e20d73aa"><path d="M 52.59375 687 L 766.59375 687 L 766.59375 690 L 52.59375 690 Z M 52.59375 687 " clip-rule="nonzero"/></clipPath><clipPath id="73a5b3ea98"><path d="M 685 278.378906 L 687 278.378906 L 687 766.59375 L 685 766.59375 Z M 685 278.378906 " clip-rule="nonzero"/></clipPath><clipPath id="24abdadbf9"><path d="M 52.59375 743 L 766.59375 743 L 766.59375 746 L 52.59375 746 Z M 52.59375 743 " clip-rule="nonzero"/></clipPath><clipPath id="fd9e89a7c1"><path d="M 740 278.378906 L 743 278.378906 L 743 766.59375 L 740 766.59375 Z M 740 278.378906 " clip-rule="nonzero"/></clipPath></defs><g clip-path="url(#92544ab2f9)"><path fill="#000000" d="M 77.128906 53.53125 C 77.128906 53.003906 77.554688 52.597656 78.078125 52.597656 C 78.597656 52.597656 79.023438 53.003906 79.023438 53.53125 L 79.023438 765.652344 C 79.023438 766.179688 78.597656 766.585938 78.078125 766.585938 C 77.554688 766.585938 77.128906 766.179688 77.128906 765.652344 Z M 77.128906 53.53125 " fill-opacity="1" fill-rule="evenodd"/></g><g clip-path="url(#9baa940e32)"><path fill="#000000" d="M 132.804688 53.53125 C 132.804688 53.003906 133.230469 52.597656 133.75 52.597656 C 134.273438 52.597656 134.699219 53.003906 134.699219 53.53125 L 134.699219 765.652344 C 134.699219 766.179688 134.273438 766.585938 133.75 766.585938 C 133.230469 766.585938 132.804688 766.179688 132.804688 765.652344 Z M 132.804688 53.53125 " fill-opacity="1" fill-rule="evenodd"/></g><g clip-path="url(#41933e60a3)"><path fill="#000000" d="M 188.023438 53.53125 C 188.023438 53.003906 188.449219 52.597656 188.972656 52.597656 C 189.492188 52.597656 189.917969 53.003906 189.917969 53.53125 L 189.917969 765.652344 C 189.917969 766.179688 189.492188 766.585938 188.972656 766.585938 C 188.449219 766.585938 188.023438 766.179688 188.023438 765.652344 Z M 188.023438 53.53125 " fill-opacity="1" fill-rule="evenodd"/></g><g clip-path="url(#9dd611367d)"><path fill="#000000" d="M 243.242188 53.53125 C 243.242188 53.003906 243.667969 52.597656 244.191406 52.597656 C 244.714844 52.597656 245.136719 53.003906 245.136719 53.53125 L 245.136719 765.652344 C 245.136719 766.179688 244.714844 766.585938 244.191406 766.585938 C 243.667969 766.585938 243.242188 766.179688 243.242188 765.652344 Z M 243.242188 53.53125 " fill-opacity="1" fill-rule="evenodd"/></g><g clip-path="url(#67f8bd0eaf)"><path fill="#000000" d="M 53.53125 303.316406 C 53.003906 303.316406 52.597656 302.890625 52.597656 302.367188 C 52.597656 301.847656 53.003906 301.421875 53.53125 301.421875 L 765.652344 301.421875 C 766.179688 301.421875 766.585938 301.847656 766.585938 302.367188 C 766.585938 302.890625 766.179688 303.316406 765.652344 303.316406 Z M 53.53125 303.316406 " fill-opacity="1" fill-rule="evenodd"/></g><g clip-path="url(#a11b369608)"><path fill="#000000" d="M 298.464844 53.53125 C 298.464844 53.003906 298.890625 52.597656 299.410156 52.597656 C 299.933594 52.597656 300.359375 53.003906 300.359375 53.53125 L 300.359375 765.652344 C 300.359375 766.179688 299.933594 766.585938 299.410156 766.585938 C 298.890625 766.585938 298.464844 766.179688 298.464844 765.652344 Z M 298.464844 53.53125 " fill-opacity="1" fill-rule="evenodd"/></g><g clip-path="url(#2b603d0081)"><path fill="#000000" d="M 53.53125 358.535156 C 53.003906 358.535156 52.597656 358.113281 52.597656 357.589844 C 52.597656 357.066406 53.003906 356.640625 53.53125 356.640625 L 765.652344 356.640625 C 766.179688 356.640625 766.585938 357.066406 766.585938 357.589844 C 766.585938 358.113281 766.179688 358.535156 765.652344 358.535156 Z M 53.53125 358.535156 " fill-opacity="1" fill-rule="evenodd"/></g><g clip-path="url(#585ae5c0d5)"><path fill="#000000" d="M 353.683594 53.53125 C 353.683594 53.003906 354.109375 52.597656 354.632812 52.597656 C 355.152344 52.597656 355.578125 53.003906 355.578125 53.53125 L 355.578125 765.652344 C 355.578125 766.179688 355.152344 766.585938 354.632812 766.585938 C 354.109375 766.585938 353.683594 766.179688 353.683594 765.652344 Z M 353.683594 53.53125 " fill-opacity="1" fill-rule="evenodd"/></g><g clip-path="url(#a8efe69536)"><path fill="#000000" d="M 53.53125 413.757812 C 53.003906 413.757812 52.597656 413.332031 52.597656 412.808594 C 52.597656 412.285156 53.003906 411.863281 53.53125 411.863281 L 765.652344 411.863281 C 766.179688 411.863281 766.585938 412.285156 766.585938 412.808594 C 766.585938 413.332031 766.179688 413.757812 765.652344 413.757812 Z M 53.53125 413.757812 " fill-opacity="1" fill-rule="evenodd"/></g><g clip-path="url(#3de81d5aef)"><path fill="#000000" d="M 408.90625 53.53125 C 408.90625 53.003906 409.328125 52.597656 409.851562 52.597656 C 410.375 52.597656 410.800781 53.003906 410.800781 53.53125 L 410.800781 765.652344 C 410.800781 766.179688 410.375 766.585938 409.851562 766.585938 C 409.328125 766.585938 408.90625 766.179688 408.90625 765.652344 Z M 408.90625 53.53125 " fill-opacity="1" fill-rule="evenodd"/></g><g clip-path="url(#b1ad6ab963)"><path fill="#000000" d="M 53.53125 468.976562 C 53.003906 468.976562 52.597656 468.550781 52.597656 468.03125 C 52.597656 467.507812 53.003906 467.082031 53.53125 467.082031 L 765.652344 467.082031 C 766.179688 467.082031 766.585938 467.507812 766.585938 468.03125 C 766.585938 468.550781 766.179688 468.976562 765.652344 468.976562 Z M 53.53125 468.976562 " fill-opacity="1" fill-rule="evenodd"/></g><g clip-path="url(#2fc646527f)"><path fill="#000000" d="M 464.125 53.53125 C 464.125 53.003906 464.550781 52.597656 465.070312 52.597656 C 465.59375 52.597656 466.019531 53.003906 466.019531 53.53125 L 466.019531 765.652344 C 466.019531 766.179688 465.59375 766.585938 465.070312 766.585938 C 464.550781 766.585938 464.125 766.179688 464.125 765.652344 Z M 464.125 53.53125 " fill-opacity="1" fill-rule="evenodd"/></g><g clip-path="url(#d6fc4ac23f)"><path fill="#000000" d="M 53.53125 524.195312 C 53.003906 524.195312 52.597656 523.773438 52.597656 523.25 C 52.597656 522.726562 53.003906 522.300781 53.53125 522.300781 L 765.652344 522.300781 C 766.179688 522.300781 766.585938 522.726562 766.585938 523.25 C 766.585938 523.773438 766.179688 524.195312 765.652344 524.195312 Z M 53.53125 524.195312 " fill-opacity="1" fill-rule="evenodd"/></g><g clip-path="url(#ebb309ceca)"><path fill="#000000" d="M 519.34375 53.53125 C 519.34375 53.003906 519.769531 52.597656 520.292969 52.597656 C 520.8125 52.597656 521.238281 53.003906 521.238281 53.53125 L 521.238281 765.652344 C 521.238281 766.179688 520.8125 766.585938 520.292969 766.585938 C 519.769531 766.585938 519.34375 766.179688 519.34375 765.652344 Z M 519.34375 53.53125 " fill-opacity="1" fill-rule="evenodd"/></g><g clip-path="url(#2fd6f393c5)"><path fill="#000000" d="M 53.53125 579.417969 C 53.003906 579.417969 52.597656 578.992188 52.597656 578.46875 C 52.597656 577.945312 53.003906 577.523438 53.53125 577.523438 L 765.652344 577.523438 C 766.179688 577.523438 766.585938 577.945312 766.585938 578.46875 C 766.585938 578.992188 766.179688 579.417969 765.652344 579.417969 Z M 53.53125 579.417969 " fill-opacity="1" fill-rule="evenodd"/></g><g clip-path="url(#306d508b47)"><path fill="#000000" d="M 574.566406 53.53125 C 574.566406 53.003906 574.988281 52.597656 575.511719 52.597656 C 576.035156 52.597656 576.460938 53.003906 576.460938 53.53125 L 576.460938 765.652344 C 576.460938 766.179688 576.035156 766.585938 575.511719 766.585938 C 574.988281 766.585938 574.566406 766.179688 574.566406 765.652344 Z M 574.566406 53.53125 " fill-opacity="1" fill-rule="evenodd"/></g><g clip-path="url(#18f84ae175)"><path fill="#000000" d="M 53.53125 634.632812 C 53.003906 634.632812 52.597656 634.210938 52.597656 633.6875 C 52.597656 633.164062 53.003906 632.738281 53.53125 632.738281 L 765.652344 632.738281 C 766.179688 632.738281 766.585938 633.164062 766.585938 633.6875 C 766.585938 634.210938 766.179688 634.632812 765.652344 634.632812 Z M 53.53125 634.632812 " fill-opacity="1" fill-rule="evenodd"/></g><g clip-path="url(#2c120fd8e2)"><path fill="#000000" d="M 629.785156 53.53125 C 629.785156 53.003906 630.210938 52.597656 630.730469 52.597656 C 631.253906 52.597656 631.679688 53.003906 631.679688 53.53125 L 631.679688 765.652344 C 631.679688 766.179688 631.253906 766.585938 630.730469 766.585938 C 630.210938 766.585938 629.785156 766.179688 629.785156 765.652344 Z M 629.785156 53.53125 " fill-opacity="1" fill-rule="evenodd"/></g><g clip-path="url(#05e20d73aa)"><path fill="#000000" d="M 53.53125 689.855469 C 53.003906 689.855469 52.597656 689.429688 52.597656 688.90625 C 52.597656 688.386719 53.003906 687.960938 53.53125 687.960938 L 765.652344 687.960938 C 766.179688 687.960938 766.585938 688.386719 766.585938 688.90625 C 766.585938 689.429688 766.179688 689.855469 765.652344 689.855469 Z M 53.53125 689.855469 " fill-opacity="1" fill-rule="evenodd"/></g><g clip-path="url(#73a5b3ea98)"><path fill="#000000" d="M 685.003906 53.53125 C 685.003906 53.003906 685.429688 52.597656 685.953125 52.597656 C 686.476562 52.597656 686.898438 53.003906 686.898438 53.53125 L 686.898438 765.652344 C 686.898438 766.179688 686.476562 766.585938 685.953125 766.585938 C 685.429688 766.585938 685.003906 766.179688 685.003906 765.652344 Z M 685.003906 53.53125 " fill-opacity="1" fill-rule="evenodd"/></g><g clip-path="url(#24abdadbf9)"><path fill="#000000" d="M 53.53125 745.074219 C 53.003906 745.074219 52.597656 744.648438 52.597656 744.128906 C 52.597656 743.605469 53.003906 743.179688 53.53125 743.179688 L 765.652344 743.179688 C 766.179688 743.179688 766.585938 743.605469 766.585938 744.128906 C 766.585938 744.648438 766.179688 745.074219 765.652344 745.074219 Z M 53.53125 745.074219 " fill-opacity="1" fill-rule="evenodd"/></g><g clip-path="url(#fd9e89a7c1)"><path fill="#000000" d="M 740.226562 53.53125 C 740.226562 53.003906 740.648438 52.597656 741.171875 52.597656 C 741.695312 52.597656 742.121094 53.003906 742.121094 53.53125 L 742.121094 765.652344 C 742.121094 766.179688 741.695312 766.585938 741.171875 766.585938 C 740.648438 766.585938 740.226562 766.179688 740.226562 765.652344 Z M 740.226562 53.53125 " fill-opacity="1" fill-rule="evenodd"/></g></svg>