<svg xmlns="http://www.w3.org/2000/svg" xmlns:xlink="http://www.w3.org/1999/xlink" width="1080" zoomAndPan="magnify" viewBox="0 0 810 809.999993" height="1080" preserveAspectRatio="xMidYMid meet" version="1.0"><defs><clipPath id="79c75f6f20"><path d="M 250 23.929688 L 560 23.929688 L 560 334 L 250 334 Z M 250 23.929688 " clip-rule="nonzero"/></clipPath><clipPath id="8cc1e510cd"><path d="M 226 643 L 346 643 L 346 785.929688 L 226 785.929688 Z M 226 643 " clip-rule="nonzero"/></clipPath><clipPath id="9be2a287cd"><path d="M 464 643 L 584 643 L 584 785.929688 L 464 785.929688 Z M 464 643 " clip-rule="nonzero"/></clipPath></defs><path fill="#e9a648" d="M 547.945312 178.710938 C 547.945312 181.046875 547.886719 183.382812 547.769531 185.71875 C 547.65625 188.054688 547.484375 190.386719 547.253906 192.714844 C 547.027344 195.039062 546.738281 197.359375 546.398438 199.671875 C 546.054688 201.988281 545.652344 204.289062 545.199219 206.582031 C 544.742188 208.875 544.230469 211.15625 543.660156 213.425781 C 543.09375 215.691406 542.46875 217.945312 541.789062 220.183594 C 541.109375 222.421875 540.378906 224.640625 539.589844 226.84375 C 538.800781 229.042969 537.960938 231.226562 537.066406 233.386719 C 536.167969 235.546875 535.222656 237.683594 534.222656 239.796875 C 533.222656 241.910156 532.171875 243.996094 531.066406 246.058594 C 529.964844 248.121094 528.8125 250.15625 527.609375 252.160156 C 526.40625 254.167969 525.15625 256.140625 523.859375 258.085938 C 522.558594 260.03125 521.210938 261.941406 519.820312 263.820312 C 518.425781 265.699219 516.988281 267.539062 515.503906 269.347656 C 514.019531 271.15625 512.492188 272.925781 510.921875 274.660156 C 509.351562 276.390625 507.738281 278.082031 506.085938 279.738281 C 504.429688 281.390625 502.738281 283.003906 501.003906 284.574219 C 499.269531 286.144531 497.5 287.667969 495.691406 289.152344 C 493.882812 290.636719 492.039062 292.074219 490.160156 293.46875 C 488.285156 294.859375 486.371094 296.207031 484.425781 297.503906 C 482.480469 298.804688 480.507812 300.054688 478.5 301.257812 C 476.496094 302.460938 474.460938 303.613281 472.398438 304.714844 C 470.335938 305.816406 468.246094 306.867188 466.132812 307.867188 C 464.015625 308.867188 461.878906 309.8125 459.71875 310.707031 C 457.558594 311.601562 455.375 312.445312 453.175781 313.230469 C 450.972656 314.019531 448.75 314.753906 446.511719 315.433594 C 444.273438 316.109375 442.023438 316.734375 439.753906 317.300781 C 437.484375 317.871094 435.203125 318.382812 432.910156 318.839844 C 430.613281 319.296875 428.3125 319.695312 425.996094 320.039062 C 423.683594 320.382812 421.363281 320.667969 419.035156 320.894531 C 416.707031 321.125 414.375 321.296875 412.039062 321.414062 C 409.703125 321.527344 407.367188 321.585938 405.027344 321.585938 C 402.6875 321.585938 400.351562 321.527344 398.015625 321.414062 C 395.679688 321.296875 393.347656 321.125 391.019531 320.894531 C 388.691406 320.667969 386.371094 320.382812 384.054688 320.039062 C 381.742188 319.695312 379.4375 319.296875 377.144531 318.839844 C 374.851562 318.382812 372.570312 317.871094 370.300781 317.300781 C 368.03125 316.734375 365.777344 316.109375 363.539062 315.433594 C 361.300781 314.753906 359.082031 314.019531 356.878906 313.230469 C 354.675781 312.445312 352.496094 311.601562 350.335938 310.707031 C 348.175781 309.8125 346.035156 308.867188 343.921875 307.867188 C 341.808594 306.867188 339.71875 305.816406 337.65625 304.714844 C 335.59375 303.613281 333.558594 302.460938 331.554688 301.257812 C 329.546875 300.054688 327.570312 298.804688 325.625 297.503906 C 323.683594 296.207031 321.769531 294.859375 319.890625 293.46875 C 318.011719 292.074219 316.167969 290.636719 314.363281 289.152344 C 312.554688 287.667969 310.78125 286.144531 309.050781 284.574219 C 307.316406 283.003906 305.625 281.390625 303.96875 279.738281 C 302.316406 278.082031 300.703125 276.390625 299.132812 274.660156 C 297.5625 272.925781 296.035156 271.15625 294.550781 269.347656 C 293.066406 267.539062 291.628906 265.699219 290.234375 263.820312 C 288.84375 261.941406 287.496094 260.03125 286.195312 258.085938 C 284.898438 256.140625 283.644531 254.167969 282.441406 252.160156 C 281.242188 250.15625 280.089844 248.121094 278.984375 246.058594 C 277.882812 243.996094 276.832031 241.910156 275.832031 239.796875 C 274.832031 237.683594 273.882812 235.546875 272.988281 233.386719 C 272.09375 231.226562 271.253906 229.042969 270.464844 226.84375 C 269.675781 224.640625 268.941406 222.421875 268.265625 220.183594 C 267.585938 217.945312 266.960938 215.691406 266.394531 213.425781 C 265.824219 211.15625 265.3125 208.875 264.855469 206.582031 C 264.398438 204.289062 264 201.988281 263.65625 199.671875 C 263.3125 197.359375 263.027344 195.039062 262.796875 192.714844 C 262.570312 190.386719 262.398438 188.054688 262.28125 185.71875 C 262.167969 183.382812 262.109375 181.046875 262.109375 178.710938 C 262.109375 176.371094 262.167969 174.035156 262.28125 171.699219 C 262.398438 169.363281 262.570312 167.03125 262.796875 164.707031 C 263.027344 162.378906 263.3125 160.058594 263.65625 157.746094 C 264 155.433594 264.398438 153.128906 264.855469 150.835938 C 265.3125 148.542969 265.824219 146.261719 266.394531 143.992188 C 266.960938 141.726562 267.585938 139.472656 268.265625 137.234375 C 268.941406 134.996094 269.675781 132.777344 270.464844 130.578125 C 271.253906 128.375 272.09375 126.195312 272.988281 124.035156 C 273.882812 121.875 274.832031 119.734375 275.832031 117.621094 C 276.832031 115.507812 277.882812 113.421875 278.984375 111.359375 C 280.089844 109.296875 281.242188 107.261719 282.441406 105.257812 C 283.644531 103.25 284.898438 101.277344 286.195312 99.332031 C 287.496094 97.386719 288.84375 95.476562 290.234375 93.597656 C 291.628906 91.722656 293.066406 89.878906 294.550781 88.070312 C 296.035156 86.261719 297.5625 84.492188 299.132812 82.761719 C 300.703125 81.027344 302.316406 79.335938 303.96875 77.679688 C 305.625 76.027344 307.316406 74.417969 309.050781 72.847656 C 310.78125 71.277344 312.554688 69.75 314.363281 68.265625 C 316.167969 66.78125 318.011719 65.34375 319.890625 63.949219 C 321.769531 62.558594 323.683594 61.210938 325.625 59.914062 C 327.570312 58.613281 329.546875 57.363281 331.554688 56.160156 C 333.558594 54.960938 335.59375 53.808594 337.65625 52.703125 C 339.71875 51.601562 341.808594 50.550781 343.921875 49.550781 C 346.035156 48.550781 348.175781 47.605469 350.335938 46.710938 C 352.496094 45.816406 354.675781 44.972656 356.878906 44.1875 C 359.082031 43.398438 361.300781 42.664062 363.539062 41.988281 C 365.777344 41.308594 368.03125 40.683594 370.300781 40.117188 C 372.570312 39.546875 374.851562 39.035156 377.144531 38.578125 C 379.4375 38.125 381.742188 37.722656 384.054688 37.378906 C 386.371094 37.039062 388.691406 36.75 391.019531 36.523438 C 393.347656 36.292969 395.679688 36.121094 398.015625 36.007812 C 400.351562 35.890625 402.6875 35.835938 405.027344 35.835938 C 407.367188 35.835938 409.703125 35.890625 412.039062 36.007812 C 414.375 36.121094 416.707031 36.292969 419.035156 36.523438 C 421.363281 36.75 423.683594 37.039062 425.996094 37.378906 C 428.3125 37.722656 430.613281 38.125 432.910156 38.578125 C 435.203125 39.035156 437.484375 39.546875 439.753906 40.117188 C 442.023438 40.683594 444.273438 41.308594 446.511719 41.988281 C 448.75 42.664062 450.972656 43.398438 453.175781 44.1875 C 455.375 44.972656 457.558594 45.816406 459.71875 46.710938 C 461.878906 47.605469 464.015625 48.550781 466.132812 49.550781 C 468.246094 50.550781 470.335938 51.601562 472.398438 52.703125 C 474.460938 53.808594 476.496094 54.960938 478.5 56.160156 C 480.507812 57.363281 482.480469 58.613281 484.425781 59.914062 C 486.371094 61.210938 488.285156 62.558594 490.160156 63.949219 C 492.039062 65.34375 493.882812 66.78125 495.691406 68.265625 C 497.5 69.75 499.269531 71.277344 501.003906 72.847656 C 502.738281 74.417969 504.429688 76.027344 506.085938 77.679688 C 507.738281 79.335938 509.351562 81.027344 510.921875 82.761719 C 512.492188 84.492188 514.019531 86.261719 515.503906 88.070312 C 516.988281 89.878906 518.425781 91.722656 519.820312 93.597656 C 521.210938 95.476562 522.558594 97.386719 523.859375 99.332031 C 525.15625 101.277344 526.40625 103.25 527.609375 105.257812 C 528.8125 107.261719 529.964844 109.296875 531.066406 111.359375 C 532.171875 113.421875 533.222656 115.507812 534.222656 117.621094 C 535.222656 119.734375 536.167969 121.875 537.066406 124.035156 C 537.960938 126.195312 538.800781 128.375 539.589844 130.578125 C 540.378906 132.777344 541.109375 134.996094 541.789062 137.234375 C 542.46875 139.472656 543.09375 141.726562 543.660156 143.992188 C 544.230469 146.261719 544.742188 148.542969 545.199219 150.835938 C 545.652344 153.128906 546.054688 155.433594 546.398438 157.746094 C 546.738281 160.058594 547.027344 162.378906 547.253906 164.707031 C 547.484375 167.03125 547.65625 169.363281 547.769531 171.699219 C 547.886719 174.035156 547.945312 176.371094 547.945312 178.710938 Z M 547.945312 178.710938 " fill-opacity="1" fill-rule="nonzero"/><path fill="#d08840" d="M 509.847656 275.820312 C 508.179688 277.617188 506.46875 279.371094 504.710938 281.082031 C 502.953125 282.792969 501.15625 284.453125 499.3125 286.070312 C 497.46875 287.6875 495.585938 289.257812 493.664062 290.777344 C 491.738281 292.296875 489.777344 293.769531 487.777344 295.1875 C 485.777344 296.605469 483.746094 297.972656 481.675781 299.289062 C 479.605469 300.601562 477.503906 301.863281 475.367188 303.070312 C 473.234375 304.277344 471.070312 305.429688 468.875 306.523438 C 466.683594 307.617188 464.460938 308.65625 462.214844 309.636719 C 459.96875 310.617188 457.695312 311.539062 455.402344 312.40625 C 453.109375 313.269531 450.792969 314.074219 448.457031 314.816406 C 446.121094 315.5625 443.765625 316.246094 441.394531 316.871094 C 439.023438 317.496094 436.636719 318.058594 434.238281 318.558594 C 431.835938 319.058594 429.425781 319.5 427.003906 319.875 C 424.578125 320.253906 422.148438 320.566406 419.710938 320.820312 C 417.269531 321.070312 414.828125 321.257812 412.378906 321.386719 C 409.929688 321.511719 407.480469 321.574219 405.027344 321.574219 C 402.574219 321.574219 400.125 321.511719 397.675781 321.386719 C 395.226562 321.257812 392.78125 321.070312 390.34375 320.820312 C 387.90625 320.566406 385.472656 320.253906 383.050781 319.875 C 380.628906 319.5 378.214844 319.058594 375.816406 318.558594 C 373.414062 318.058594 371.03125 317.496094 368.660156 316.871094 C 366.289062 316.246094 363.933594 315.5625 361.597656 314.816406 C 359.261719 314.074219 356.945312 313.269531 354.652344 312.40625 C 352.355469 311.539062 350.085938 310.617188 347.839844 309.636719 C 345.589844 308.65625 343.371094 307.617188 341.175781 306.523438 C 338.984375 305.429688 336.820312 304.277344 334.683594 303.070312 C 332.550781 301.863281 330.449219 300.601562 328.378906 299.289062 C 326.308594 297.972656 324.273438 296.605469 322.277344 295.1875 C 320.277344 293.769531 318.316406 292.296875 316.390625 290.777344 C 314.46875 289.257812 312.585938 287.6875 310.742188 286.070312 C 308.898438 284.453125 307.097656 282.792969 305.34375 281.082031 C 303.585938 279.371094 301.875 277.617188 300.207031 275.820312 L 300.816406 275.449219 C 365.828125 242.585938 440.472656 240.710938 509.238281 275.449219 Z M 509.847656 275.820312 " fill-opacity="1" fill-rule="nonzero"/><g clip-path="url(#79c75f6f20)"><path fill="#000000" d="M 405.027344 333.492188 C 401.847656 333.492188 398.671875 333.398438 395.5 333.203125 C 392.328125 333.011719 389.164062 332.71875 386.011719 332.332031 C 382.855469 331.945312 379.714844 331.460938 376.589844 330.878906 C 373.46875 330.296875 370.363281 329.617188 367.28125 328.84375 C 364.199219 328.070312 361.140625 327.203125 358.113281 326.242188 C 355.082031 325.28125 352.085938 324.226562 349.121094 323.082031 C 346.15625 321.933594 343.230469 320.699219 340.34375 319.371094 C 337.457031 318.042969 334.609375 316.628906 331.808594 315.128906 C 329.007812 313.625 326.257812 312.039062 323.554688 310.367188 C 320.851562 308.695312 318.203125 306.941406 315.609375 305.105469 C 313.011719 303.273438 310.476562 301.359375 308 299.367188 C 305.523438 297.375 303.113281 295.3125 300.761719 293.171875 C 298.414062 291.03125 296.132812 288.820312 293.917969 286.539062 C 291.707031 284.257812 289.566406 281.910156 287.496094 279.5 C 285.429688 277.085938 283.4375 274.613281 281.523438 272.078125 C 279.605469 269.542969 277.769531 266.949219 276.015625 264.300781 C 275.597656 263.648438 275.246094 262.964844 274.964844 262.246094 C 274.679688 261.527344 274.46875 260.785156 274.328125 260.027344 C 274.191406 259.265625 274.125 258.5 274.136719 257.726562 C 274.144531 256.953125 274.230469 256.1875 274.390625 255.429688 C 274.546875 254.675781 274.777344 253.941406 275.082031 253.230469 C 275.382812 252.515625 275.75 251.839844 276.183594 251.203125 C 276.617188 250.5625 277.109375 249.96875 277.660156 249.425781 C 278.207031 248.882812 278.804688 248.394531 279.449219 247.964844 C 280.09375 247.539062 280.773438 247.175781 281.484375 246.878906 C 282.199219 246.585938 282.9375 246.359375 283.695312 246.207031 C 284.453125 246.054688 285.21875 245.976562 285.992188 245.972656 C 286.765625 245.96875 287.53125 246.042969 288.289062 246.1875 C 289.050781 246.332031 289.789062 246.550781 290.503906 246.839844 C 291.222656 247.128906 291.90625 247.484375 292.550781 247.910156 C 293.199219 248.332031 293.800781 248.8125 294.355469 249.351562 C 294.910156 249.890625 295.40625 250.476562 295.84375 251.113281 C 297.277344 253.273438 298.773438 255.390625 300.332031 257.460938 C 301.890625 259.53125 303.507812 261.554688 305.1875 263.53125 C 306.863281 265.503906 308.601562 267.429688 310.394531 269.300781 C 312.1875 271.171875 314.03125 272.992188 315.933594 274.753906 C 317.835938 276.515625 319.785156 278.21875 321.789062 279.867188 C 323.789062 281.515625 325.839844 283.101562 327.933594 284.625 C 330.03125 286.148438 332.167969 287.613281 334.351562 289.011719 C 336.535156 290.40625 338.757812 291.738281 341.019531 293.007812 C 343.28125 294.273438 345.578125 295.46875 347.914062 296.601562 C 350.246094 297.730469 352.609375 298.789062 355.007812 299.78125 C 357.402344 300.769531 359.824219 301.6875 362.277344 302.53125 C 364.726562 303.378906 367.199219 304.152344 369.695312 304.851562 C 372.191406 305.546875 374.707031 306.171875 377.242188 306.722656 C 379.773438 307.273438 382.320312 307.746094 384.882812 308.144531 C 387.445312 308.542969 390.015625 308.867188 392.597656 309.113281 C 395.179688 309.355469 397.765625 309.527344 400.355469 309.617188 C 402.945312 309.710938 405.535156 309.726562 408.128906 309.664062 C 410.71875 309.605469 413.308594 309.464844 415.890625 309.25 C 418.476562 309.035156 421.050781 308.746094 423.617188 308.378906 C 426.183594 308.007812 428.734375 307.566406 431.273438 307.046875 C 433.816406 306.527344 436.335938 305.933594 438.839844 305.265625 C 441.347656 304.59375 443.828125 303.851562 446.289062 303.035156 C 448.75 302.21875 451.183594 301.332031 453.589844 300.371094 C 456 299.410156 458.375 298.378906 460.722656 297.277344 C 463.070312 296.175781 465.382812 295.003906 467.660156 293.765625 C 469.933594 292.527344 472.171875 291.222656 474.371094 289.847656 C 476.574219 288.476562 478.730469 287.042969 480.84375 285.542969 C 482.957031 284.042969 485.027344 282.480469 487.046875 280.859375 C 489.070312 279.234375 491.039062 277.554688 492.960938 275.816406 C 494.882812 274.074219 496.75 272.28125 498.566406 270.429688 C 500.382812 268.578125 502.140625 266.675781 503.84375 264.722656 C 505.542969 262.765625 507.1875 260.761719 508.769531 258.710938 C 510.351562 256.660156 511.875 254.5625 513.332031 252.417969 C 514.792969 250.277344 516.183594 248.09375 517.515625 245.867188 C 518.84375 243.640625 520.105469 241.378906 521.300781 239.078125 C 522.492188 236.777344 523.617188 234.445312 524.675781 232.078125 C 525.730469 229.710938 526.714844 227.3125 527.628906 224.890625 C 528.542969 222.464844 529.382812 220.011719 530.152344 217.539062 C 530.917969 215.0625 531.613281 212.566406 532.234375 210.050781 C 532.851562 207.535156 533.398438 205 533.867188 202.453125 C 534.335938 199.902344 534.730469 197.34375 535.046875 194.769531 C 535.367188 192.199219 535.605469 189.617188 535.769531 187.03125 C 535.933594 184.445312 536.023438 181.855469 536.03125 179.265625 C 536.042969 176.671875 535.976562 174.082031 535.832031 171.496094 C 535.691406 168.910156 535.46875 166.328125 535.175781 163.753906 C 534.878906 161.179688 534.503906 158.613281 534.054688 156.0625 C 533.605469 153.507812 533.082031 150.972656 532.484375 148.449219 C 531.882812 145.929688 531.210938 143.425781 530.460938 140.945312 C 529.714844 138.464844 528.894531 136.007812 528 133.574219 C 527.105469 131.140625 526.140625 128.738281 525.105469 126.363281 C 524.066406 123.988281 522.960938 121.644531 521.785156 119.335938 C 520.609375 117.023438 519.367188 114.75 518.054688 112.515625 C 516.746094 110.28125 515.367188 108.085938 513.929688 105.929688 C 512.488281 103.777344 510.984375 101.667969 509.417969 99.601562 C 507.851562 97.535156 506.222656 95.519531 504.539062 93.550781 C 502.851562 91.582031 501.109375 89.664062 499.308594 87.800781 C 497.507812 85.933594 495.65625 84.125 493.746094 82.371094 C 491.839844 80.613281 489.882812 78.917969 487.875 77.277344 C 485.867188 75.640625 483.808594 74.0625 481.707031 72.542969 C 479.605469 71.027344 477.460938 69.574219 475.273438 68.183594 C 473.085938 66.792969 470.855469 65.472656 468.589844 64.214844 C 466.324219 62.957031 464.023438 61.765625 461.683594 60.644531 C 459.347656 59.523438 456.976562 58.476562 454.578125 57.496094 C 452.179688 56.515625 449.75 55.605469 447.296875 54.769531 C 444.84375 53.933594 442.367188 53.171875 439.867188 52.480469 C 437.371094 51.792969 434.851562 51.175781 432.316406 50.636719 C 429.78125 50.097656 427.230469 49.632812 424.667969 49.246094 C 422.105469 48.855469 419.53125 48.542969 416.949219 48.308594 C 414.371094 48.074219 411.78125 47.914062 409.191406 47.832031 C 406.601562 47.75 404.007812 47.742188 401.417969 47.816406 C 398.828125 47.886719 396.238281 48.035156 393.65625 48.257812 C 391.074219 48.484375 388.5 48.785156 385.933594 49.164062 C 383.371094 49.539062 380.820312 49.992188 378.28125 50.523438 C 375.742188 51.050781 373.222656 51.65625 370.722656 52.335938 C 368.21875 53.011719 365.738281 53.765625 363.28125 54.589844 C 360.824219 55.417969 358.394531 56.316406 355.992188 57.285156 C 353.585938 58.253906 351.214844 59.296875 348.871094 60.40625 C 346.53125 61.519531 344.222656 62.695312 341.949219 63.945312 C 339.679688 65.191406 337.445312 66.507812 335.25 67.886719 C 333.054688 69.265625 330.90625 70.710938 328.796875 72.21875 C 326.6875 73.726562 324.625 75.296875 322.613281 76.925781 C 320.597656 78.558594 318.632812 80.246094 316.714844 81.992188 C 314.800781 83.742188 312.941406 85.542969 311.132812 87.402344 C 309.324219 89.257812 307.574219 91.167969 305.878906 93.128906 C 304.183594 95.089844 302.550781 97.101562 300.972656 99.160156 C 299.398438 101.21875 297.886719 103.320312 296.4375 105.46875 C 294.984375 107.617188 293.601562 109.804688 292.28125 112.035156 C 290.960938 114.265625 289.707031 116.535156 288.523438 118.839844 C 287.335938 121.144531 286.21875 123.484375 285.171875 125.851562 C 284.125 128.222656 283.152344 130.625 282.246094 133.054688 C 281.34375 135.484375 280.511719 137.9375 279.753906 140.414062 C 278.996094 142.894531 278.308594 145.390625 277.699219 147.910156 C 277.089844 150.429688 276.554688 152.964844 276.09375 155.515625 C 275.636719 158.066406 275.253906 160.628906 274.945312 163.199219 C 274.636719 165.773438 274.40625 168.355469 274.253906 170.941406 C 274.097656 173.527344 274.019531 176.117188 274.019531 178.710938 C 274.019531 179.492188 273.945312 180.265625 273.792969 181.03125 C 273.636719 181.800781 273.414062 182.542969 273.113281 183.265625 C 272.8125 183.988281 272.449219 184.675781 272.011719 185.324219 C 271.578125 185.972656 271.085938 186.574219 270.53125 187.128906 C 269.980469 187.679688 269.378906 188.175781 268.726562 188.609375 C 268.078125 189.042969 267.390625 189.410156 266.667969 189.710938 C 265.945312 190.007812 265.199219 190.234375 264.433594 190.386719 C 263.667969 190.539062 262.890625 190.617188 262.109375 190.617188 C 261.328125 190.617188 260.554688 190.539062 259.785156 190.386719 C 259.019531 190.234375 258.273438 190.007812 257.550781 189.710938 C 256.832031 189.410156 256.144531 189.042969 255.492188 188.609375 C 254.84375 188.175781 254.242188 187.679688 253.6875 187.128906 C 253.136719 186.574219 252.640625 185.972656 252.207031 185.324219 C 251.773438 184.675781 251.40625 183.988281 251.105469 183.265625 C 250.808594 182.542969 250.582031 181.800781 250.429688 181.03125 C 250.277344 180.265625 250.199219 179.492188 250.199219 178.710938 C 250.199219 176.175781 250.261719 173.644531 250.386719 171.113281 C 250.511719 168.585938 250.699219 166.058594 250.945312 163.539062 C 251.195312 161.015625 251.503906 158.503906 251.875 156 C 252.25 153.492188 252.679688 150.996094 253.175781 148.511719 C 253.667969 146.027344 254.226562 143.558594 254.839844 141.101562 C 255.457031 138.644531 256.132812 136.203125 256.867188 133.777344 C 257.601562 131.355469 258.398438 128.949219 259.25 126.566406 C 260.105469 124.179688 261.015625 121.816406 261.984375 119.476562 C 262.957031 117.136719 263.980469 114.820312 265.066406 112.53125 C 266.148438 110.242188 267.289062 107.980469 268.480469 105.746094 C 269.675781 103.511719 270.925781 101.308594 272.226562 99.136719 C 273.53125 96.964844 274.886719 94.824219 276.292969 92.71875 C 277.703125 90.609375 279.160156 88.539062 280.667969 86.507812 C 282.179688 84.472656 283.738281 82.476562 285.34375 80.515625 C 286.953125 78.558594 288.605469 76.640625 290.308594 74.765625 C 292.011719 72.886719 293.757812 71.054688 295.546875 69.261719 C 297.339844 67.472656 299.175781 65.726562 301.050781 64.023438 C 302.929688 62.324219 304.847656 60.667969 306.804688 59.0625 C 308.765625 57.453125 310.761719 55.898438 312.796875 54.386719 C 314.832031 52.878906 316.902344 51.421875 319.011719 50.011719 C 321.117188 48.605469 323.257812 47.25 325.429688 45.949219 C 327.605469 44.648438 329.808594 43.398438 332.042969 42.203125 C 334.277344 41.011719 336.539062 39.871094 338.828125 38.789062 C 341.121094 37.707031 343.4375 36.679688 345.777344 35.710938 C 348.117188 34.742188 350.480469 33.828125 352.867188 32.976562 C 355.253906 32.121094 357.660156 31.328125 360.082031 30.59375 C 362.507812 29.859375 364.949219 29.183594 367.40625 28.566406 C 369.863281 27.953125 372.335938 27.394531 374.820312 26.902344 C 377.308594 26.40625 379.800781 25.976562 382.308594 25.601562 C 384.816406 25.230469 387.328125 24.921875 389.851562 24.671875 C 392.371094 24.425781 394.898438 24.238281 397.429688 24.113281 C 399.960938 23.992188 402.492188 23.929688 405.027344 23.929688 C 407.5625 23.929688 410.09375 23.992188 412.625 24.113281 C 415.15625 24.238281 417.679688 24.425781 420.203125 24.671875 C 422.722656 24.921875 425.238281 25.230469 427.746094 25.601562 C 430.25 25.976562 432.746094 26.40625 435.230469 26.902344 C 437.71875 27.394531 440.1875 27.953125 442.648438 28.566406 C 445.105469 29.183594 447.546875 29.859375 449.96875 30.59375 C 452.394531 31.328125 454.800781 32.121094 457.1875 32.976562 C 459.570312 33.828125 461.933594 34.742188 464.277344 35.710938 C 466.617188 36.679688 468.933594 37.707031 471.222656 38.789062 C 473.515625 39.871094 475.777344 41.011719 478.011719 42.203125 C 480.246094 43.398438 482.449219 44.648438 484.625 45.949219 C 486.796875 47.25 488.9375 48.605469 491.042969 50.011719 C 493.152344 51.421875 495.222656 52.878906 497.257812 54.386719 C 499.292969 55.898438 501.289062 57.453125 503.246094 59.0625 C 505.207031 60.667969 507.125 62.324219 509 64.023438 C 510.878906 65.726562 512.714844 67.472656 514.503906 69.261719 C 516.296875 71.054688 518.042969 72.886719 519.746094 74.765625 C 521.445312 76.640625 523.101562 78.558594 524.710938 80.515625 C 526.316406 82.476562 527.875 84.472656 529.382812 86.507812 C 530.894531 88.539062 532.351562 90.609375 533.761719 92.71875 C 535.167969 94.824219 536.523438 96.964844 537.824219 99.136719 C 539.128906 101.308594 540.378906 103.511719 541.570312 105.746094 C 542.765625 107.980469 543.90625 110.242188 544.988281 112.53125 C 546.070312 114.820312 547.097656 117.136719 548.066406 119.476562 C 549.039062 121.816406 549.949219 124.179688 550.800781 126.566406 C 551.65625 128.949219 552.449219 131.355469 553.1875 133.777344 C 553.921875 136.203125 554.597656 138.644531 555.214844 141.101562 C 555.828125 143.558594 556.382812 146.027344 556.878906 148.511719 C 557.371094 150.996094 557.804688 153.492188 558.175781 156 C 558.550781 158.503906 558.859375 161.015625 559.109375 163.539062 C 559.355469 166.058594 559.542969 168.585938 559.667969 171.113281 C 559.792969 173.644531 559.851562 176.175781 559.851562 178.710938 C 559.851562 181.242188 559.792969 183.773438 559.667969 186.304688 C 559.542969 188.835938 559.355469 191.359375 559.109375 193.878906 C 558.859375 196.402344 558.550781 198.914062 558.175781 201.421875 C 557.804688 203.925781 557.371094 206.421875 556.878906 208.90625 C 556.382812 211.390625 555.828125 213.859375 555.214844 216.316406 C 554.597656 218.773438 553.921875 221.214844 553.1875 223.640625 C 552.449219 226.0625 551.65625 228.46875 550.800781 230.855469 C 549.949219 233.238281 549.039062 235.601562 548.066406 237.941406 C 547.097656 240.28125 546.070312 242.597656 544.988281 244.886719 C 543.90625 247.175781 542.765625 249.4375 541.570312 251.671875 C 540.378906 253.90625 539.128906 256.109375 537.824219 258.28125 C 536.523438 260.457031 535.167969 262.59375 533.761719 264.703125 C 532.351562 266.808594 530.894531 268.878906 529.382812 270.914062 C 527.875 272.945312 526.316406 274.945312 524.710938 276.902344 C 523.101562 278.859375 521.445312 280.777344 519.746094 282.652344 C 518.042969 284.53125 516.296875 286.363281 514.503906 288.15625 C 512.714844 289.949219 510.878906 291.695312 509 293.394531 C 507.125 295.097656 505.207031 296.75 503.246094 298.355469 C 501.289062 299.964844 499.292969 301.523438 497.257812 303.03125 C 495.222656 304.539062 493.152344 305.996094 491.042969 307.40625 C 488.9375 308.8125 486.796875 310.167969 484.625 311.46875 C 482.449219 312.773438 480.246094 314.019531 478.011719 315.214844 C 475.777344 316.410156 473.515625 317.546875 471.222656 318.628906 C 468.933594 319.714844 466.617188 320.738281 464.277344 321.707031 C 461.933594 322.679688 459.570312 323.589844 457.1875 324.441406 C 454.800781 325.296875 452.394531 326.089844 449.96875 326.824219 C 447.546875 327.5625 445.105469 328.238281 442.648438 328.851562 C 440.1875 329.46875 437.71875 330.023438 435.230469 330.515625 C 432.746094 331.011719 430.25 331.445312 427.746094 331.816406 C 425.238281 332.1875 422.722656 332.496094 420.203125 332.746094 C 417.679688 332.992188 415.15625 333.179688 412.625 333.304688 C 410.09375 333.429688 407.5625 333.492188 405.027344 333.492188 Z M 405.027344 333.492188 " fill-opacity="1" fill-rule="nonzero"/></g><path fill="#000000" d="M 410.980469 250.148438 L 369.296875 250.148438 C 368.515625 250.148438 367.742188 250.070312 366.972656 249.917969 C 366.207031 249.765625 365.460938 249.539062 364.738281 249.242188 C 364.015625 248.941406 363.332031 248.574219 362.679688 248.140625 C 362.03125 247.707031 361.429688 247.210938 360.875 246.660156 C 360.324219 246.105469 359.828125 245.503906 359.394531 244.855469 C 358.960938 244.207031 358.59375 243.519531 358.292969 242.796875 C 357.996094 242.074219 357.769531 241.332031 357.617188 240.5625 C 357.464844 239.796875 357.386719 239.023438 357.386719 238.242188 C 357.386719 237.457031 357.464844 236.683594 357.617188 235.917969 C 357.769531 235.152344 357.996094 234.40625 358.292969 233.683594 C 358.59375 232.960938 358.960938 232.277344 359.394531 231.625 C 359.828125 230.976562 360.324219 230.375 360.875 229.820312 C 361.429688 229.269531 362.03125 228.773438 362.679688 228.339844 C 363.332031 227.90625 364.015625 227.539062 364.738281 227.242188 C 365.460938 226.941406 366.207031 226.714844 366.972656 226.5625 C 367.742188 226.410156 368.515625 226.335938 369.296875 226.335938 L 410.980469 226.335938 C 411.566406 226.335938 412.152344 226.304688 412.734375 226.25 C 413.316406 226.191406 413.894531 226.105469 414.46875 225.992188 C 415.039062 225.878906 415.609375 225.734375 416.167969 225.566406 C 416.726562 225.394531 417.277344 225.199219 417.816406 224.976562 C 418.359375 224.75 418.886719 224.5 419.402344 224.226562 C 419.917969 223.949219 420.421875 223.648438 420.90625 223.324219 C 421.394531 223 421.863281 222.652344 422.316406 222.28125 C 422.765625 221.910156 423.199219 221.515625 423.613281 221.101562 C 424.027344 220.691406 424.421875 220.257812 424.792969 219.804688 C 425.164062 219.351562 425.511719 218.882812 425.835938 218.398438 C 426.160156 217.910156 426.460938 217.410156 426.738281 216.894531 C 427.011719 216.378906 427.261719 215.851562 427.488281 215.308594 C 427.710938 214.769531 427.90625 214.21875 428.078125 213.660156 C 428.246094 213.097656 428.390625 212.53125 428.503906 211.960938 C 428.617188 211.386719 428.703125 210.808594 428.761719 210.226562 C 428.816406 209.644531 428.847656 209.058594 428.847656 208.476562 C 428.847656 207.890625 428.816406 207.304688 428.761719 206.722656 C 428.703125 206.140625 428.617188 205.566406 428.503906 204.992188 C 428.390625 204.417969 428.246094 203.851562 428.078125 203.289062 C 427.90625 202.730469 427.710938 202.179688 427.488281 201.640625 C 427.261719 201.101562 427.011719 200.570312 426.738281 200.054688 C 426.460938 199.539062 426.160156 199.039062 425.835938 198.554688 C 425.511719 198.066406 425.164062 197.597656 424.792969 197.144531 C 424.421875 196.691406 424.027344 196.261719 423.613281 195.847656 C 423.199219 195.433594 422.765625 195.039062 422.316406 194.667969 C 421.863281 194.296875 421.394531 193.949219 420.90625 193.625 C 420.421875 193.300781 419.917969 193 419.402344 192.722656 C 418.886719 192.449219 418.359375 192.199219 417.816406 191.976562 C 417.277344 191.75 416.726562 191.554688 416.167969 191.382812 C 415.609375 191.214844 415.039062 191.074219 414.46875 190.957031 C 413.894531 190.84375 413.316406 190.757812 412.734375 190.703125 C 412.152344 190.644531 411.566406 190.617188 410.980469 190.617188 L 399.070312 190.617188 C 397.707031 190.617188 396.34375 190.546875 394.984375 190.414062 C 393.628906 190.28125 392.277344 190.082031 390.941406 189.816406 C 389.601562 189.546875 388.277344 189.21875 386.972656 188.820312 C 385.664062 188.425781 384.382812 187.964844 383.121094 187.445312 C 381.859375 186.921875 380.625 186.339844 379.421875 185.695312 C 378.21875 185.050781 377.046875 184.351562 375.914062 183.59375 C 374.777344 182.835938 373.683594 182.023438 372.628906 181.15625 C 371.574219 180.289062 370.5625 179.375 369.597656 178.410156 C 368.632812 177.445312 367.714844 176.433594 366.851562 175.378906 C 365.984375 174.324219 365.171875 173.230469 364.414062 172.09375 C 363.65625 170.960938 362.953125 169.792969 362.308594 168.585938 C 361.667969 167.382812 361.082031 166.152344 360.5625 164.890625 C 360.039062 163.628906 359.578125 162.347656 359.183594 161.039062 C 358.785156 159.734375 358.457031 158.410156 358.1875 157.074219 C 357.921875 155.734375 357.722656 154.386719 357.589844 153.027344 C 357.453125 151.671875 357.386719 150.308594 357.386719 148.945312 C 357.386719 147.578125 357.453125 146.21875 357.589844 144.859375 C 357.722656 143.5 357.921875 142.152344 358.1875 140.8125 C 358.457031 139.476562 358.785156 138.152344 359.183594 136.847656 C 359.578125 135.539062 360.039062 134.257812 360.5625 132.996094 C 361.082031 131.734375 361.667969 130.503906 362.308594 129.300781 C 362.953125 128.097656 363.65625 126.925781 364.414062 125.792969 C 365.171875 124.65625 365.984375 123.5625 366.851562 122.507812 C 367.714844 121.453125 368.632812 120.441406 369.597656 119.476562 C 370.5625 118.511719 371.574219 117.597656 372.628906 116.730469 C 373.683594 115.863281 374.777344 115.054688 375.914062 114.292969 C 377.046875 113.535156 378.21875 112.835938 379.421875 112.191406 C 380.625 111.550781 381.859375 110.964844 383.121094 110.445312 C 384.382812 109.921875 385.664062 109.460938 386.972656 109.066406 C 388.277344 108.671875 389.601562 108.339844 390.941406 108.074219 C 392.277344 107.804688 393.628906 107.605469 394.984375 107.472656 C 396.34375 107.339844 397.707031 107.273438 399.070312 107.273438 L 440.757812 107.273438 C 441.539062 107.273438 442.3125 107.347656 443.078125 107.5 C 443.847656 107.652344 444.589844 107.878906 445.3125 108.179688 C 446.035156 108.476562 446.722656 108.84375 447.371094 109.277344 C 448.023438 109.710938 448.625 110.207031 449.175781 110.757812 C 449.730469 111.3125 450.222656 111.914062 450.660156 112.5625 C 451.09375 113.214844 451.460938 113.898438 451.757812 114.621094 C 452.058594 115.34375 452.285156 116.089844 452.4375 116.855469 C 452.589844 117.621094 452.664062 118.394531 452.664062 119.179688 C 452.664062 119.960938 452.589844 120.734375 452.4375 121.5 C 452.285156 122.269531 452.058594 123.011719 451.757812 123.734375 C 451.460938 124.457031 451.09375 125.144531 450.660156 125.792969 C 450.222656 126.441406 449.730469 127.042969 449.175781 127.597656 C 448.625 128.148438 448.023438 128.644531 447.371094 129.078125 C 446.722656 129.511719 446.035156 129.878906 445.3125 130.179688 C 444.589844 130.476562 443.847656 130.703125 443.078125 130.855469 C 442.3125 131.007812 441.539062 131.085938 440.757812 131.085938 L 399.070312 131.085938 C 398.488281 131.085938 397.902344 131.113281 397.320312 131.171875 C 396.738281 131.226562 396.160156 131.3125 395.585938 131.425781 C 395.011719 131.542969 394.445312 131.683594 393.886719 131.851562 C 393.328125 132.023438 392.777344 132.21875 392.234375 132.445312 C 391.695312 132.667969 391.167969 132.917969 390.652344 133.191406 C 390.132812 133.46875 389.632812 133.769531 389.148438 134.09375 C 388.660156 134.417969 388.191406 134.765625 387.738281 135.136719 C 387.285156 135.507812 386.855469 135.902344 386.441406 136.316406 C 386.027344 136.730469 385.632812 137.160156 385.261719 137.613281 C 384.890625 138.066406 384.542969 138.535156 384.21875 139.023438 C 383.894531 139.507812 383.59375 140.007812 383.316406 140.523438 C 383.042969 141.039062 382.792969 141.570312 382.566406 142.109375 C 382.34375 142.648438 382.148438 143.199219 381.976562 143.757812 C 381.808594 144.320312 381.664062 144.886719 381.550781 145.460938 C 381.4375 146.035156 381.351562 146.609375 381.292969 147.191406 C 381.234375 147.773438 381.207031 148.359375 381.207031 148.945312 C 381.207031 149.527344 381.234375 150.113281 381.292969 150.695312 C 381.351562 151.277344 381.4375 151.855469 381.550781 152.429688 C 381.664062 153 381.808594 153.566406 381.976562 154.128906 C 382.148438 154.6875 382.34375 155.238281 382.566406 155.777344 C 382.792969 156.320312 383.042969 156.847656 383.316406 157.363281 C 383.59375 157.878906 383.894531 158.378906 384.21875 158.867188 C 384.542969 159.351562 384.890625 159.820312 385.261719 160.273438 C 385.632812 160.726562 386.027344 161.160156 386.441406 161.570312 C 386.855469 161.984375 387.285156 162.378906 387.738281 162.75 C 388.191406 163.121094 388.660156 163.46875 389.148438 163.792969 C 389.632812 164.117188 390.132812 164.417969 390.652344 164.695312 C 391.167969 164.96875 391.695312 165.21875 392.234375 165.445312 C 392.777344 165.667969 393.328125 165.863281 393.886719 166.035156 C 394.445312 166.203125 395.011719 166.347656 395.585938 166.460938 C 396.160156 166.574219 396.738281 166.660156 397.320312 166.71875 C 397.902344 166.773438 398.488281 166.804688 399.070312 166.804688 L 410.980469 166.804688 C 412.347656 166.804688 413.707031 166.871094 415.066406 167.003906 C 416.425781 167.136719 417.773438 167.335938 419.113281 167.605469 C 420.453125 167.871094 421.777344 168.203125 423.082031 168.597656 C 424.386719 168.992188 425.671875 169.453125 426.933594 169.976562 C 428.195312 170.496094 429.425781 171.082031 430.632812 171.722656 C 431.835938 172.367188 433.003906 173.066406 434.140625 173.824219 C 435.273438 174.585938 436.371094 175.394531 437.425781 176.261719 C 438.480469 177.128906 439.492188 178.042969 440.457031 179.007812 C 441.421875 179.972656 442.335938 180.984375 443.203125 182.039062 C 444.070312 183.09375 444.882812 184.1875 445.640625 185.324219 C 446.398438 186.457031 447.101562 187.628906 447.742188 188.832031 C 448.386719 190.035156 448.96875 191.265625 449.492188 192.527344 C 450.015625 193.789062 450.472656 195.070312 450.871094 196.378906 C 451.265625 197.683594 451.597656 199.007812 451.863281 200.34375 C 452.132812 201.683594 452.332031 203.03125 452.464844 204.390625 C 452.597656 205.75 452.664062 207.109375 452.664062 208.476562 C 452.664062 209.839844 452.597656 211.203125 452.464844 212.558594 C 452.332031 213.917969 452.132812 215.265625 451.863281 216.605469 C 451.597656 217.941406 451.265625 219.265625 450.871094 220.570312 C 450.472656 221.878906 450.015625 223.160156 449.492188 224.421875 C 448.96875 225.683594 448.386719 226.914062 447.742188 228.117188 C 447.101562 229.324219 446.398438 230.492188 445.640625 231.625 C 444.882812 232.761719 444.070312 233.855469 443.203125 234.910156 C 442.335938 235.964844 441.421875 236.976562 440.457031 237.941406 C 439.492188 238.90625 438.480469 239.820312 437.425781 240.6875 C 436.371094 241.554688 435.273438 242.367188 434.140625 243.125 C 433.003906 243.882812 431.835938 244.582031 430.632812 245.226562 C 429.425781 245.871094 428.195312 246.453125 426.933594 246.976562 C 425.671875 247.496094 424.386719 247.957031 423.082031 248.351562 C 421.777344 248.75 420.453125 249.078125 419.113281 249.347656 C 417.773438 249.613281 416.425781 249.8125 415.066406 249.945312 C 413.707031 250.078125 412.347656 250.148438 410.980469 250.148438 Z M 410.980469 250.148438 " fill-opacity="1" fill-rule="nonzero"/><path fill="#000000" d="M 405.027344 131.085938 C 404.246094 131.085938 403.46875 131.007812 402.703125 130.855469 C 401.9375 130.703125 401.191406 130.476562 400.46875 130.179688 C 399.746094 129.878906 399.058594 129.511719 398.410156 129.078125 C 397.761719 128.644531 397.160156 128.148438 396.605469 127.597656 C 396.050781 127.042969 395.558594 126.441406 395.125 125.792969 C 394.691406 125.144531 394.324219 124.457031 394.023438 123.734375 C 393.722656 123.011719 393.5 122.269531 393.347656 121.5 C 393.195312 120.734375 393.117188 119.960938 393.117188 119.179688 L 393.117188 95.367188 C 393.117188 94.582031 393.195312 93.808594 393.347656 93.042969 C 393.5 92.277344 393.722656 91.53125 394.023438 90.808594 C 394.324219 90.085938 394.691406 89.402344 395.125 88.75 C 395.558594 88.101562 396.050781 87.5 396.605469 86.945312 C 397.160156 86.394531 397.761719 85.898438 398.410156 85.464844 C 399.058594 85.03125 399.746094 84.664062 400.46875 84.367188 C 401.191406 84.066406 401.9375 83.839844 402.703125 83.6875 C 403.46875 83.535156 404.246094 83.460938 405.027344 83.460938 C 405.808594 83.460938 406.582031 83.535156 407.351562 83.6875 C 408.117188 83.839844 408.863281 84.066406 409.585938 84.367188 C 410.308594 84.664062 410.992188 85.03125 411.644531 85.464844 C 412.292969 85.898438 412.894531 86.394531 413.449219 86.945312 C 414 87.5 414.496094 88.101562 414.929688 88.75 C 415.363281 89.402344 415.730469 90.085938 416.03125 90.808594 C 416.328125 91.53125 416.554688 92.277344 416.707031 93.042969 C 416.859375 93.808594 416.9375 94.582031 416.9375 95.367188 L 416.9375 119.179688 C 416.9375 119.960938 416.859375 120.734375 416.707031 121.5 C 416.554688 122.269531 416.328125 123.011719 416.03125 123.734375 C 415.730469 124.457031 415.363281 125.144531 414.929688 125.792969 C 414.496094 126.441406 414 127.042969 413.449219 127.597656 C 412.894531 128.148438 412.292969 128.644531 411.644531 129.078125 C 410.992188 129.511719 410.308594 129.878906 409.585938 130.179688 C 408.863281 130.476562 408.117188 130.703125 407.351562 130.855469 C 406.582031 131.007812 405.808594 131.085938 405.027344 131.085938 Z M 405.027344 131.085938 " fill-opacity="1" fill-rule="nonzero"/><path fill="#000000" d="M 405.027344 273.960938 C 404.246094 273.960938 403.46875 273.882812 402.703125 273.730469 C 401.9375 273.578125 401.191406 273.351562 400.46875 273.054688 C 399.746094 272.753906 399.058594 272.386719 398.410156 271.953125 C 397.761719 271.519531 397.160156 271.023438 396.605469 270.472656 C 396.050781 269.917969 395.558594 269.316406 395.125 268.667969 C 394.691406 268.019531 394.324219 267.332031 394.023438 266.609375 C 393.722656 265.886719 393.5 265.144531 393.347656 264.375 C 393.195312 263.609375 393.117188 262.835938 393.117188 262.054688 L 393.117188 238.242188 C 393.117188 237.457031 393.195312 236.683594 393.347656 235.917969 C 393.5 235.152344 393.722656 234.40625 394.023438 233.683594 C 394.324219 232.960938 394.691406 232.277344 395.125 231.625 C 395.558594 230.976562 396.050781 230.375 396.605469 229.820312 C 397.160156 229.269531 397.761719 228.773438 398.410156 228.339844 C 399.058594 227.90625 399.746094 227.539062 400.46875 227.242188 C 401.191406 226.941406 401.9375 226.714844 402.703125 226.5625 C 403.46875 226.410156 404.246094 226.335938 405.027344 226.335938 C 405.808594 226.335938 406.582031 226.410156 407.351562 226.5625 C 408.117188 226.714844 408.863281 226.941406 409.585938 227.242188 C 410.308594 227.539062 410.992188 227.90625 411.644531 228.339844 C 412.292969 228.773438 412.894531 229.269531 413.449219 229.820312 C 414 230.375 414.496094 230.976562 414.929688 231.625 C 415.363281 232.277344 415.730469 232.960938 416.03125 233.683594 C 416.328125 234.40625 416.554688 235.152344 416.707031 235.917969 C 416.859375 236.683594 416.9375 237.457031 416.9375 238.242188 L 416.9375 262.054688 C 416.9375 262.835938 416.859375 263.609375 416.707031 264.375 C 416.554688 265.144531 416.328125 265.886719 416.03125 266.609375 C 415.730469 267.332031 415.363281 268.019531 414.929688 268.667969 C 414.496094 269.316406 414 269.917969 413.449219 270.472656 C 412.894531 271.023438 412.292969 271.519531 411.644531 271.953125 C 410.992188 272.386719 410.308594 272.753906 409.585938 273.054688 C 408.863281 273.351562 408.117188 273.578125 407.351562 273.730469 C 406.582031 273.882812 405.808594 273.960938 405.027344 273.960938 Z M 405.027344 273.960938 " fill-opacity="1" fill-rule="nonzero"/><path fill="#f4d7de" d="M 226.382812 393.023438 L 223.492188 386.28125 C 218.089844 373.675781 213.335938 360.832031 209.234375 347.75 C 205.132812 334.664062 201.703125 321.40625 198.945312 307.976562 C 196.1875 294.542969 194.113281 281.007812 192.730469 267.363281 C 191.34375 253.722656 190.652344 240.046875 190.652344 226.335938 C 255.039062 226.335938 309.332031 254.402344 345.476562 297.773438 Z M 226.382812 393.023438 " fill-opacity="1" fill-rule="nonzero"/><path fill="#ebaebc" d="M 326.125 313.292969 L 345.476562 297.773438 C 309.199219 254.253906 254.84375 226.335938 190.652344 226.335938 C 190.652344 238.152344 191.1875 250.058594 192.261719 262.054688 C 198.375 262.03125 204.476562 262.292969 210.566406 262.835938 C 216.660156 263.375 222.710938 264.199219 228.726562 265.300781 C 234.742188 266.398438 240.691406 267.777344 246.582031 269.425781 C 252.46875 271.078125 258.265625 272.996094 263.976562 275.179688 C 269.6875 277.367188 275.285156 279.8125 280.769531 282.511719 C 286.253906 285.214844 291.601562 288.164062 296.816406 291.363281 C 302.027344 294.558594 307.082031 297.988281 311.976562 301.652344 C 316.871094 305.316406 321.589844 309.195312 326.125 313.292969 Z M 326.125 313.292969 " fill-opacity="1" fill-rule="nonzero"/><path fill="#000000" d="M 215.4375 397.710938 L 212.550781 390.96875 C 206.972656 378 202.070312 364.785156 197.835938 351.316406 C 193.605469 337.851562 190.070312 324.203125 187.234375 310.378906 C 184.394531 296.550781 182.265625 282.617188 180.84375 268.574219 C 179.425781 254.527344 178.726562 240.449219 178.742188 226.335938 C 178.742188 225.550781 178.820312 224.777344 178.972656 224.011719 C 179.125 223.246094 179.347656 222.5 179.648438 221.777344 C 179.949219 221.054688 180.316406 220.371094 180.75 219.71875 C 181.183594 219.070312 181.675781 218.46875 182.230469 217.914062 C 182.785156 217.363281 183.386719 216.867188 184.035156 216.433594 C 184.683594 216 185.371094 215.632812 186.09375 215.335938 C 186.816406 215.035156 187.5625 214.808594 188.328125 214.65625 C 189.09375 214.503906 189.871094 214.429688 190.652344 214.429688 C 257.332031 214.429688 315.152344 242.808594 354.632812 290.152344 C 355.140625 290.761719 355.582031 291.414062 355.960938 292.109375 C 356.335938 292.804688 356.640625 293.53125 356.871094 294.289062 C 357.105469 295.046875 357.257812 295.820312 357.335938 296.609375 C 357.414062 297.394531 357.414062 298.183594 357.332031 298.972656 C 357.253906 299.761719 357.097656 300.53125 356.863281 301.289062 C 356.628906 302.046875 356.324219 302.773438 355.945312 303.46875 C 355.566406 304.164062 355.121094 304.8125 354.613281 305.421875 C 354.105469 306.027344 353.539062 306.578125 352.921875 307.074219 L 233.824219 402.324219 C 233.46875 402.609375 233.09375 402.875 232.707031 403.117188 C 232.320312 403.359375 231.921875 403.578125 231.507812 403.773438 C 231.09375 403.96875 230.671875 404.144531 230.238281 404.289062 C 229.804688 404.4375 229.367188 404.5625 228.917969 404.65625 C 228.472656 404.753906 228.023438 404.828125 227.566406 404.871094 C 227.113281 404.917969 226.65625 404.9375 226.199219 404.929688 C 225.742188 404.921875 225.285156 404.886719 224.832031 404.828125 C 224.378906 404.769531 223.929688 404.683594 223.488281 404.570312 C 223.042969 404.460938 222.609375 404.324219 222.179688 404.164062 C 221.753906 404 221.335938 403.816406 220.929688 403.605469 C 220.523438 403.398438 220.128906 403.164062 219.75 402.910156 C 219.371094 402.65625 219.007812 402.378906 218.660156 402.082031 C 218.3125 401.785156 217.980469 401.472656 217.671875 401.136719 C 217.359375 400.800781 217.066406 400.449219 216.796875 400.082031 C 216.527344 399.714844 216.277344 399.332031 216.050781 398.933594 C 215.824219 398.539062 215.617188 398.128906 215.4375 397.710938 Z M 202.742188 238.464844 C 203.429688 261.703125 206.167969 284.699219 210.953125 307.449219 C 215.742188 330.199219 222.5 352.351562 231.234375 373.898438 L 328.238281 296.285156 C 324.175781 292 319.921875 287.921875 315.472656 284.042969 C 311.023438 280.167969 306.398438 276.507812 301.601562 273.070312 C 296.804688 269.632812 291.851562 266.433594 286.75 263.464844 C 281.648438 260.5 276.414062 257.78125 271.054688 255.3125 C 265.691406 252.84375 260.226562 250.636719 254.652344 248.6875 C 249.082031 246.738281 243.429688 245.058594 237.699219 243.644531 C 231.96875 242.234375 226.183594 241.097656 220.34375 240.238281 C 214.503906 239.378906 208.636719 238.796875 202.742188 238.492188 Z M 202.742188 238.464844 " fill-opacity="1" fill-rule="nonzero"/><path fill="#f4d7de" d="M 583.671875 393.023438 L 586.5625 386.28125 C 591.964844 373.675781 596.71875 360.832031 600.820312 347.75 C 604.921875 334.664062 608.351562 321.40625 611.109375 307.976562 C 613.867188 294.542969 615.9375 281.007812 617.324219 267.363281 C 618.710938 253.722656 619.402344 240.046875 619.402344 226.335938 C 555.015625 226.335938 500.722656 254.402344 464.574219 297.773438 Z M 583.671875 393.023438 " fill-opacity="1" fill-rule="nonzero"/><path fill="#ebaebc" d="M 464.574219 297.773438 L 483.929688 313.292969 C 488.464844 309.195312 493.179688 305.316406 498.078125 301.652344 C 502.972656 297.988281 508.027344 294.558594 513.238281 291.363281 C 518.449219 288.164062 523.796875 285.214844 529.28125 282.511719 C 534.769531 279.808594 540.367188 277.367188 546.074219 275.179688 C 551.785156 272.992188 557.585938 271.074219 563.472656 269.425781 C 569.359375 267.773438 575.3125 266.398438 581.328125 265.296875 C 587.34375 264.199219 593.394531 263.375 599.484375 262.832031 C 605.578125 262.292969 611.679688 262.03125 617.792969 262.054688 C 618.867188 250.058594 619.402344 238.152344 619.402344 226.335938 C 555.386719 226.335938 500.960938 254.121094 464.574219 297.773438 Z M 464.574219 297.773438 " fill-opacity="1" fill-rule="nonzero"/><path fill="#000000" d="M 576.230469 402.324219 L 457.132812 307.074219 C 456.511719 306.578125 455.949219 306.027344 455.441406 305.421875 C 454.933594 304.8125 454.488281 304.164062 454.109375 303.46875 C 453.730469 302.773438 453.425781 302.046875 453.191406 301.289062 C 452.957031 300.53125 452.800781 299.761719 452.71875 298.972656 C 452.640625 298.183594 452.640625 297.394531 452.714844 296.609375 C 452.792969 295.820312 452.949219 295.046875 453.179688 294.289062 C 453.414062 293.53125 453.71875 292.804688 454.09375 292.109375 C 454.472656 291.414062 454.914062 290.761719 455.417969 290.152344 C 493.785156 244.195312 551.023438 214.429688 619.402344 214.429688 C 620.183594 214.429688 620.957031 214.503906 621.726562 214.65625 C 622.492188 214.808594 623.238281 215.035156 623.960938 215.335938 C 624.683594 215.632812 625.367188 216 626.019531 216.433594 C 626.667969 216.867188 627.269531 217.363281 627.824219 217.914062 C 628.375 218.46875 628.871094 219.070312 629.304688 219.71875 C 629.738281 220.371094 630.105469 221.054688 630.40625 221.777344 C 630.703125 222.5 630.929688 223.246094 631.082031 224.011719 C 631.234375 224.777344 631.3125 225.550781 631.3125 226.335938 C 631.328125 240.449219 630.625 254.527344 629.207031 268.574219 C 627.789062 282.617188 625.660156 296.550781 622.820312 310.378906 C 619.980469 324.203125 616.445312 337.851562 612.214844 351.316406 C 607.984375 364.785156 603.082031 378 597.503906 390.96875 L 594.613281 397.710938 C 594.433594 398.128906 594.230469 398.539062 594.003906 398.933594 C 593.777344 399.332031 593.527344 399.714844 593.257812 400.082031 C 592.984375 400.449219 592.695312 400.800781 592.382812 401.136719 C 592.070312 401.472656 591.742188 401.785156 591.394531 402.082031 C 591.046875 402.378906 590.683594 402.65625 590.304688 402.910156 C 589.921875 403.164062 589.53125 403.398438 589.125 403.605469 C 588.71875 403.816406 588.300781 404 587.871094 404.164062 C 587.445312 404.324219 587.007812 404.460938 586.566406 404.570312 C 586.121094 404.683594 585.671875 404.769531 585.21875 404.828125 C 584.765625 404.886719 584.3125 404.921875 583.855469 404.929688 C 583.398438 404.9375 582.941406 404.917969 582.488281 404.871094 C 582.03125 404.828125 581.582031 404.753906 581.132812 404.65625 C 580.6875 404.5625 580.246094 404.4375 579.816406 404.289062 C 579.382812 404.144531 578.960938 403.96875 578.546875 403.773438 C 578.132812 403.578125 577.734375 403.359375 577.347656 403.117188 C 576.957031 402.871094 576.585938 402.609375 576.230469 402.324219 Z M 481.816406 296.285156 L 578.820312 373.867188 C 587.554688 352.320312 594.3125 330.171875 599.101562 307.417969 C 603.886719 284.667969 606.625 261.671875 607.3125 238.433594 C 601.417969 238.738281 595.550781 239.320312 589.707031 240.183594 C 583.867188 241.046875 578.082031 242.1875 572.347656 243.597656 C 566.617188 245.011719 560.964844 246.695312 555.394531 248.648438 C 549.820312 250.597656 544.355469 252.808594 538.992188 255.28125 C 533.632812 257.75 528.398438 260.472656 523.296875 263.441406 C 518.195312 266.410156 513.246094 269.617188 508.449219 273.054688 C 503.648438 276.496094 499.027344 280.15625 494.578125 284.035156 C 490.128906 287.917969 485.875 292 481.816406 296.285156 Z M 481.816406 296.285156 " fill-opacity="1" fill-rule="nonzero"/><path fill="#e38499" d="M 333.570312 654.960938 L 309.75 774.023438 L 262.109375 774.023438 C 259.726562 762.117188 240.597656 666.480469 238.289062 654.960938 Z M 333.570312 654.960938 " fill-opacity="1" fill-rule="nonzero"/><path fill="#db4e6c" d="M 333.570312 654.960938 L 316.402344 740.742188 C 293.519531 735.65625 271.632812 727.796875 250.738281 717.167969 L 238.289062 654.960938 Z M 333.570312 654.960938 " fill-opacity="1" fill-rule="nonzero"/><g clip-path="url(#8cc1e510cd)"><path fill="#000000" d="M 309.75 785.929688 L 262.109375 785.929688 C 261.425781 785.925781 260.75 785.867188 260.078125 785.753906 C 259.402344 785.636719 258.746094 785.460938 258.101562 785.230469 C 257.460938 785 256.839844 784.71875 256.246094 784.382812 C 255.652344 784.046875 255.09375 783.660156 254.5625 783.226562 C 254.035156 782.796875 253.550781 782.320312 253.101562 781.804688 C 252.65625 781.285156 252.257812 780.734375 251.90625 780.152344 C 251.554688 779.566406 251.253906 778.953125 251.007812 778.316406 C 250.761719 777.679688 250.574219 777.027344 250.4375 776.359375 L 226.621094 657.296875 C 226.53125 656.867188 226.472656 656.433594 226.433594 655.996094 C 226.394531 655.558594 226.378906 655.117188 226.390625 654.679688 C 226.402344 654.242188 226.4375 653.804688 226.496094 653.371094 C 226.554688 652.933594 226.636719 652.503906 226.742188 652.078125 C 226.847656 651.652344 226.976562 651.234375 227.128906 650.820312 C 227.28125 650.410156 227.457031 650.007812 227.65625 649.617188 C 227.851562 649.222656 228.070312 648.84375 228.308594 648.476562 C 228.546875 648.105469 228.804688 647.753906 229.085938 647.414062 C 229.363281 647.074219 229.660156 646.75 229.972656 646.445312 C 230.285156 646.136719 230.617188 645.847656 230.960938 645.578125 C 231.308594 645.308594 231.667969 645.058594 232.042969 644.828125 C 232.414062 644.597656 232.800781 644.386719 233.199219 644.199219 C 233.59375 644.011719 234 643.847656 234.414062 643.703125 C 234.832031 643.558594 235.253906 643.441406 235.679688 643.34375 C 236.109375 643.246094 236.542969 643.175781 236.976562 643.125 C 237.414062 643.078125 237.851562 643.054688 238.289062 643.054688 L 333.570312 643.054688 C 334.007812 643.054688 334.445312 643.078125 334.882812 643.125 C 335.316406 643.175781 335.75 643.246094 336.179688 643.34375 C 336.605469 643.441406 337.027344 643.558594 337.445312 643.703125 C 337.859375 643.847656 338.265625 644.011719 338.660156 644.199219 C 339.058594 644.386719 339.445312 644.597656 339.816406 644.828125 C 340.191406 645.058594 340.550781 645.308594 340.898438 645.578125 C 341.242188 645.847656 341.574219 646.136719 341.886719 646.445312 C 342.199219 646.75 342.496094 647.074219 342.773438 647.414062 C 343.054688 647.753906 343.3125 648.105469 343.550781 648.476562 C 343.789062 648.84375 344.007812 649.222656 344.207031 649.617188 C 344.402344 650.007812 344.578125 650.410156 344.730469 650.820312 C 344.882812 651.234375 345.011719 651.652344 345.117188 652.078125 C 345.222656 652.503906 345.304688 652.933594 345.363281 653.371094 C 345.421875 653.804688 345.457031 654.242188 345.46875 654.679688 C 345.480469 655.117188 345.464844 655.558594 345.425781 655.996094 C 345.386719 656.433594 345.328125 656.867188 345.238281 657.296875 L 321.421875 776.359375 C 321.285156 777.027344 321.097656 777.679688 320.851562 778.316406 C 320.605469 778.953125 320.304688 779.566406 319.953125 780.152344 C 319.601562 780.734375 319.203125 781.285156 318.757812 781.804688 C 318.308594 782.320312 317.824219 782.796875 317.296875 783.226562 C 316.765625 783.660156 316.207031 784.046875 315.613281 784.382812 C 315.019531 784.71875 314.398438 785 313.757812 785.230469 C 313.113281 785.460938 312.457031 785.636719 311.78125 785.753906 C 311.109375 785.867188 310.433594 785.925781 309.75 785.929688 Z M 271.875 762.117188 L 299.984375 762.117188 L 319.039062 666.867188 L 252.820312 666.867188 Z M 271.875 762.117188 " fill-opacity="1" fill-rule="nonzero"/></g><path fill="#e38499" d="M 571.761719 654.960938 C 569.457031 666.480469 550.324219 762.117188 547.945312 774.023438 L 500.304688 774.023438 C 491.96875 732.351562 497.238281 758.707031 476.484375 654.960938 Z M 571.761719 654.960938 " fill-opacity="1" fill-rule="nonzero"/><path fill="#db4e6c" d="M 571.761719 654.960938 L 559.316406 717.167969 C 538.421875 727.796875 516.535156 735.65625 493.648438 740.742188 L 476.484375 654.960938 Z M 571.761719 654.960938 " fill-opacity="1" fill-rule="nonzero"/><g clip-path="url(#9be2a287cd)"><path fill="#000000" d="M 547.945312 785.929688 L 500.304688 785.929688 C 499.621094 785.925781 498.945312 785.867188 498.269531 785.753906 C 497.597656 785.636719 496.941406 785.460938 496.296875 785.230469 C 495.65625 785 495.035156 784.71875 494.441406 784.382812 C 493.847656 784.046875 493.285156 783.660156 492.757812 783.226562 C 492.230469 782.796875 491.742188 782.320312 491.296875 781.804688 C 490.851562 781.285156 490.453125 780.734375 490.101562 780.152344 C 489.75 779.566406 489.449219 778.953125 489.203125 778.316406 C 488.957031 777.679688 488.765625 777.027344 488.632812 776.359375 L 464.8125 657.296875 C 464.726562 656.867188 464.664062 656.433594 464.628906 655.996094 C 464.589844 655.558594 464.574219 655.117188 464.585938 654.679688 C 464.59375 654.242188 464.628906 653.804688 464.6875 653.371094 C 464.746094 652.933594 464.828125 652.503906 464.9375 652.078125 C 465.042969 651.652344 465.171875 651.234375 465.324219 650.820312 C 465.476562 650.410156 465.652344 650.007812 465.847656 649.617188 C 466.046875 649.222656 466.265625 648.84375 466.503906 648.476562 C 466.742188 648.109375 467 647.753906 467.277344 647.414062 C 467.558594 647.074219 467.851562 646.75 468.167969 646.445312 C 468.480469 646.136719 468.8125 645.847656 469.15625 645.578125 C 469.503906 645.308594 469.863281 645.058594 470.238281 644.828125 C 470.609375 644.597656 470.996094 644.386719 471.390625 644.199219 C 471.789062 644.011719 472.195312 643.847656 472.609375 643.703125 C 473.023438 643.558594 473.445312 643.441406 473.875 643.34375 C 474.304688 643.246094 474.734375 643.175781 475.171875 643.125 C 475.609375 643.078125 476.046875 643.054688 476.484375 643.054688 L 571.761719 643.054688 C 572.542969 643.054688 573.320312 643.128906 574.085938 643.28125 C 574.851562 643.433594 575.597656 643.660156 576.320312 643.960938 C 577.042969 644.257812 577.730469 644.625 578.378906 645.058594 C 579.03125 645.492188 579.632812 645.988281 580.183594 646.539062 C 580.738281 647.09375 581.230469 647.695312 581.664062 648.34375 C 582.101562 648.996094 582.464844 649.679688 582.765625 650.402344 C 583.066406 651.125 583.292969 651.871094 583.445312 652.636719 C 583.597656 653.402344 583.671875 654.175781 583.671875 654.960938 C 583.671875 655.742188 583.597656 656.515625 583.445312 657.28125 C 583.292969 658.046875 583.066406 658.792969 582.765625 659.515625 C 582.464844 660.238281 582.101562 660.925781 581.664062 661.574219 C 581.230469 662.222656 580.738281 662.824219 580.183594 663.378906 C 579.632812 663.929688 579.03125 664.425781 578.378906 664.859375 C 577.730469 665.292969 577.042969 665.660156 576.320312 665.960938 C 575.597656 666.257812 574.851562 666.484375 574.085938 666.636719 C 573.320312 666.789062 572.542969 666.867188 571.761719 666.867188 L 491.015625 666.867188 L 510.070312 762.117188 L 538.175781 762.117188 L 545.800781 724.058594 C 545.953125 723.292969 546.179688 722.550781 546.480469 721.828125 C 546.78125 721.105469 547.148438 720.417969 547.582031 719.769531 C 548.019531 719.121094 548.511719 718.519531 549.066406 717.96875 C 549.621094 717.414062 550.222656 716.921875 550.875 716.488281 C 551.523438 716.054688 552.210938 715.6875 552.933594 715.390625 C 553.65625 715.09375 554.402344 714.867188 555.167969 714.714844 C 555.9375 714.5625 556.710938 714.488281 557.492188 714.488281 C 558.273438 714.492188 559.050781 714.566406 559.816406 714.722656 C 560.582031 714.875 561.328125 715.101562 562.050781 715.402344 C 562.773438 715.703125 563.457031 716.070312 564.105469 716.503906 C 564.757812 716.9375 565.359375 717.433594 565.910156 717.988281 C 566.460938 718.539062 566.957031 719.144531 567.390625 719.792969 C 567.824219 720.445312 568.1875 721.128906 568.488281 721.851562 C 568.785156 722.574219 569.011719 723.320312 569.164062 724.085938 C 569.316406 724.855469 569.390625 725.628906 569.390625 726.410156 C 569.386719 727.191406 569.3125 727.96875 569.15625 728.734375 L 559.613281 776.359375 C 559.480469 777.027344 559.289062 777.679688 559.042969 778.316406 C 558.796875 778.953125 558.5 779.566406 558.148438 780.152344 C 557.796875 780.734375 557.398438 781.285156 556.949219 781.804688 C 556.503906 782.320312 556.015625 782.796875 555.488281 783.226562 C 554.960938 783.660156 554.402344 784.046875 553.804688 784.382812 C 553.210938 784.71875 552.59375 785 551.949219 785.230469 C 551.308594 785.460938 550.648438 785.636719 549.976562 785.753906 C 549.304688 785.867188 548.625 785.925781 547.945312 785.929688 Z M 547.945312 785.929688 " fill-opacity="1" fill-rule="nonzero"/></g><path fill="#e38499" d="M 631.3125 535.898438 C 631.3125 410.957031 530.003906 285.867188 405.027344 285.867188 C 280.050781 285.867188 178.742188 410.957031 178.742188 535.898438 C 178.742188 660.839844 280.050781 714.492188 405.027344 714.492188 C 530.003906 714.492188 631.3125 660.914062 631.3125 535.898438 Z M 631.3125 535.898438 " fill-opacity="1" fill-rule="nonzero"/><path fill="#db4e6c" d="M 405.027344 678.773438 C 286.09375 678.773438 188.597656 630.179688 179.457031 517.800781 C 169.050781 652.757812 270.699219 714.492188 405.027344 714.492188 C 539.355469 714.492188 641.003906 652.757812 630.597656 517.800781 C 621.457031 630.179688 523.960938 678.773438 405.027344 678.773438 Z M 405.027344 678.773438 " fill-opacity="1" fill-rule="nonzero"/><path fill="#000000" d="M 405.027344 726.398438 C 271.710938 726.398438 166.832031 666.65625 166.832031 535.898438 C 166.832031 405.597656 272.128906 273.960938 405.027344 273.960938 C 537.925781 273.960938 643.222656 405.628906 643.222656 535.898438 C 643.222656 666.867188 538.042969 726.398438 405.027344 726.398438 Z M 405.027344 297.773438 C 285.929688 297.773438 190.652344 418.324219 190.652344 535.898438 C 190.652344 654.304688 287.539062 702.585938 405.027344 702.585938 C 522.515625 702.585938 619.402344 654.304688 619.402344 535.898438 C 619.402344 418.324219 524.125 297.773438 405.027344 297.773438 Z M 405.027344 297.773438 " fill-opacity="1" fill-rule="nonzero"/><path fill="#f4d7de" d="M 488.394531 547.804688 C 488.394531 548.777344 488.363281 549.75 488.292969 550.722656 C 488.226562 551.699219 488.128906 552.667969 487.992188 553.636719 C 487.859375 554.609375 487.691406 555.574219 487.492188 556.539062 C 487.292969 557.5 487.058594 558.460938 486.792969 559.417969 C 486.527344 560.371094 486.226562 561.324219 485.894531 562.269531 C 485.566406 563.214844 485.199219 564.152344 484.804688 565.085938 C 484.410156 566.015625 483.980469 566.941406 483.519531 567.859375 C 483.0625 568.777344 482.570312 569.683594 482.046875 570.585938 C 481.527344 571.484375 480.972656 572.375 480.390625 573.257812 C 479.808594 574.136719 479.195312 575.007812 478.550781 575.867188 C 477.90625 576.726562 477.234375 577.574219 476.535156 578.40625 C 475.832031 579.242188 475.101562 580.066406 474.34375 580.875 C 473.585938 581.6875 472.800781 582.484375 471.988281 583.265625 C 471.175781 584.046875 470.335938 584.816406 469.472656 585.570312 C 468.605469 586.324219 467.714844 587.058594 466.796875 587.78125 C 465.882812 588.503906 464.941406 589.210938 463.976562 589.898438 C 463.011719 590.585938 462.023438 591.257812 461.011719 591.914062 C 460.003906 592.566406 458.96875 593.203125 457.914062 593.820312 C 456.859375 594.441406 455.785156 595.039062 454.6875 595.617188 C 453.59375 596.199219 452.476562 596.761719 451.34375 597.300781 C 450.210938 597.84375 449.058594 598.363281 447.886719 598.863281 C 446.714844 599.367188 445.53125 599.84375 444.328125 600.304688 C 443.121094 600.765625 441.90625 601.203125 440.671875 601.617188 C 439.4375 602.035156 438.191406 602.429688 436.929688 602.800781 C 435.671875 603.175781 434.398438 603.527344 433.113281 603.855469 C 431.828125 604.183594 430.53125 604.488281 429.226562 604.769531 C 427.921875 605.054688 426.605469 605.3125 425.285156 605.550781 C 423.960938 605.785156 422.628906 606 421.292969 606.191406 C 419.953125 606.378906 418.609375 606.546875 417.257812 606.691406 C 415.910156 606.832031 414.554688 606.953125 413.199219 607.046875 C 411.839844 607.144531 410.480469 607.214844 409.117188 607.261719 C 407.753906 607.308594 406.390625 607.335938 405.027344 607.335938 C 403.664062 607.335938 402.300781 607.308594 400.9375 607.261719 C 399.574219 607.214844 398.214844 607.144531 396.855469 607.046875 C 395.496094 606.953125 394.144531 606.832031 392.792969 606.691406 C 391.445312 606.546875 390.101562 606.378906 388.761719 606.191406 C 387.425781 606 386.09375 605.785156 384.769531 605.550781 C 383.445312 605.3125 382.132812 605.054688 380.828125 604.769531 C 379.519531 604.488281 378.226562 604.183594 376.941406 603.855469 C 375.65625 603.527344 374.382812 603.175781 373.125 602.800781 C 371.863281 602.429688 370.617188 602.035156 369.382812 601.617188 C 368.148438 601.203125 366.929688 600.765625 365.726562 600.304688 C 364.523438 599.84375 363.335938 599.367188 362.167969 598.863281 C 360.996094 598.363281 359.84375 597.84375 358.710938 597.300781 C 357.574219 596.761719 356.460938 596.199219 355.363281 595.617188 C 354.269531 595.039062 353.195312 594.441406 352.140625 593.820312 C 351.085938 593.203125 350.050781 592.566406 349.039062 591.914062 C 348.03125 591.257812 347.042969 590.585938 346.078125 589.898438 C 345.113281 589.210938 344.171875 588.503906 343.253906 587.78125 C 342.339844 587.058594 341.449219 586.324219 340.582031 585.570312 C 339.71875 584.816406 338.878906 584.046875 338.066406 583.265625 C 337.253906 582.484375 336.46875 581.6875 335.707031 580.875 C 334.949219 580.066406 334.222656 579.242188 333.519531 578.410156 C 332.816406 577.574219 332.144531 576.726562 331.503906 575.867188 C 330.859375 575.007812 330.246094 574.136719 329.664062 573.257812 C 329.078125 572.375 328.527344 571.484375 328.003906 570.585938 C 327.484375 569.683594 326.992188 568.777344 326.53125 567.859375 C 326.074219 566.941406 325.644531 566.015625 325.25 565.085938 C 324.851562 564.152344 324.488281 563.214844 324.15625 562.269531 C 323.824219 561.324219 323.527344 560.371094 323.261719 559.417969 C 322.996094 558.460938 322.761719 557.5 322.5625 556.539062 C 322.359375 555.574219 322.195312 554.609375 322.058594 553.636719 C 321.925781 552.667969 321.828125 551.699219 321.757812 550.722656 C 321.691406 549.75 321.660156 548.777344 321.660156 547.804688 C 321.660156 546.828125 321.691406 545.855469 321.757812 544.882812 C 321.828125 543.910156 321.925781 542.9375 322.058594 541.96875 C 322.195312 541 322.359375 540.03125 322.5625 539.066406 C 322.761719 538.105469 322.996094 537.144531 323.261719 536.1875 C 323.527344 535.234375 323.824219 534.285156 324.15625 533.339844 C 324.488281 532.394531 324.851562 531.453125 325.25 530.523438 C 325.644531 529.589844 326.074219 528.664062 326.53125 527.746094 C 326.992188 526.832031 327.484375 525.921875 328.003906 525.019531 C 328.527344 524.121094 329.078125 523.230469 329.664062 522.351562 C 330.246094 521.46875 330.859375 520.597656 331.503906 519.738281 C 332.144531 518.882812 332.816406 518.035156 333.519531 517.199219 C 334.222656 516.363281 334.949219 515.539062 335.707031 514.730469 C 336.46875 513.917969 337.253906 513.121094 338.066406 512.339844 C 338.878906 511.558594 339.71875 510.789062 340.582031 510.035156 C 341.449219 509.285156 342.339844 508.546875 343.253906 507.824219 C 344.171875 507.101562 345.113281 506.398438 346.078125 505.707031 C 347.042969 505.019531 348.03125 504.347656 349.039062 503.691406 C 350.050781 503.039062 351.085938 502.402344 352.140625 501.785156 C 353.195312 501.167969 354.269531 500.566406 355.363281 499.988281 C 356.460938 499.40625 357.574219 498.847656 358.710938 498.304688 C 359.84375 497.761719 360.996094 497.242188 362.167969 496.742188 C 363.335938 496.242188 364.523438 495.761719 365.726562 495.300781 C 366.929688 494.84375 368.148438 494.402344 369.382812 493.988281 C 370.617188 493.570312 371.863281 493.175781 373.125 492.804688 C 374.382812 492.429688 375.65625 492.078125 376.941406 491.75 C 378.226562 491.421875 379.519531 491.117188 380.828125 490.835938 C 382.132812 490.550781 383.445312 490.292969 384.769531 490.054688 C 386.09375 489.820312 387.425781 489.605469 388.761719 489.414062 C 390.101562 489.226562 391.445312 489.058594 392.792969 488.917969 C 394.144531 488.773438 395.496094 488.652344 396.855469 488.558594 C 398.214844 488.464844 399.574219 488.390625 400.9375 488.34375 C 402.300781 488.296875 403.664062 488.273438 405.027344 488.273438 C 406.390625 488.273438 407.753906 488.296875 409.117188 488.34375 C 410.480469 488.390625 411.839844 488.464844 413.199219 488.558594 C 414.554688 488.652344 415.910156 488.773438 417.257812 488.917969 C 418.609375 489.058594 419.953125 489.226562 421.292969 489.414062 C 422.628906 489.605469 423.960938 489.820312 425.285156 490.054688 C 426.605469 490.292969 427.921875 490.550781 429.226562 490.835938 C 430.53125 491.117188 431.828125 491.421875 433.113281 491.75 C 434.398438 492.078125 435.671875 492.429688 436.929688 492.804688 C 438.191406 493.175781 439.4375 493.570312 440.671875 493.988281 C 441.90625 494.402344 443.121094 494.84375 444.328125 495.300781 C 445.53125 495.761719 446.714844 496.242188 447.886719 496.742188 C 449.058594 497.242188 450.210938 497.761719 451.34375 498.304688 C 452.476562 498.847656 453.59375 499.40625 454.6875 499.988281 C 455.785156 500.566406 456.859375 501.167969 457.914062 501.785156 C 458.96875 502.402344 460.003906 503.039062 461.011719 503.691406 C 462.023438 504.347656 463.011719 505.019531 463.976562 505.707031 C 464.941406 506.398438 465.882812 507.101562 466.796875 507.824219 C 467.714844 508.546875 468.605469 509.285156 469.472656 510.035156 C 470.335938 510.789062 471.175781 511.558594 471.988281 512.339844 C 472.800781 513.121094 473.585938 513.917969 474.34375 514.730469 C 475.101562 515.539062 475.832031 516.363281 476.535156 517.199219 C 477.234375 518.035156 477.90625 518.882812 478.550781 519.738281 C 479.195312 520.597656 479.808594 521.46875 480.390625 522.351562 C 480.972656 523.230469 481.527344 524.121094 482.046875 525.019531 C 482.570312 525.921875 483.0625 526.832031 483.519531 527.746094 C 483.980469 528.664062 484.410156 529.589844 484.804688 530.523438 C 485.199219 531.453125 485.566406 532.394531 485.894531 533.339844 C 486.226562 534.285156 486.527344 535.234375 486.792969 536.1875 C 487.058594 537.144531 487.292969 538.105469 487.492188 539.066406 C 487.691406 540.03125 487.859375 541 487.992188 541.96875 C 488.128906 542.9375 488.226562 543.910156 488.292969 544.882812 C 488.363281 545.855469 488.394531 546.828125 488.394531 547.804688 Z M 488.394531 547.804688 " fill-opacity="1" fill-rule="nonzero"/><path fill="#ebaebc" d="M 405.027344 571.617188 C 367.703125 571.617188 336.097656 554.097656 325.484375 529.945312 C 322.949219 535.625 321.671875 541.578125 321.660156 547.804688 C 321.660156 580.679688 358.980469 607.335938 405.027344 607.335938 C 451.074219 607.335938 488.394531 580.679688 488.394531 547.804688 C 488.382812 541.578125 487.105469 535.625 484.570312 529.945312 C 473.953125 554.097656 442.347656 571.617188 405.027344 571.617188 Z M 405.027344 571.617188 " fill-opacity="1" fill-rule="nonzero"/><path fill="#000000" d="M 339.152344 599.582031 C 300.148438 571.734375 299.671875 524.214844 339.152344 496.027344 C 375.863281 469.800781 434.175781 469.789062 470.902344 496.027344 C 509.921875 523.886719 510.367188 571.40625 470.902344 599.582031 C 434.191406 625.804688 375.878906 625.820312 339.152344 599.582031 Z M 405.027344 500.179688 C 366.320312 500.179688 333.570312 521.980469 333.570312 547.804688 C 333.570312 573.625 366.320312 595.429688 405.027344 595.429688 C 443.734375 595.429688 476.484375 573.625 476.484375 547.804688 C 476.484375 521.980469 443.734375 500.179688 405.027344 500.179688 Z M 405.027344 500.179688 " fill-opacity="1" fill-rule="nonzero"/><path fill="#000000" d="M 381.207031 559.710938 C 380.425781 559.710938 379.652344 559.632812 378.882812 559.480469 C 378.117188 559.328125 377.371094 559.101562 376.648438 558.804688 C 375.925781 558.503906 375.242188 558.136719 374.589844 557.703125 C 373.941406 557.269531 373.339844 556.773438 372.785156 556.222656 C 372.234375 555.667969 371.738281 555.066406 371.304688 554.417969 C 370.871094 553.769531 370.503906 553.082031 370.203125 552.359375 C 369.90625 551.636719 369.679688 550.894531 369.527344 550.125 C 369.375 549.359375 369.296875 548.585938 369.296875 547.804688 C 369.296875 547.019531 369.375 546.246094 369.527344 545.480469 C 369.679688 544.714844 369.90625 543.96875 370.203125 543.246094 C 370.503906 542.523438 370.871094 541.839844 371.304688 541.1875 C 371.738281 540.539062 372.234375 539.9375 372.785156 539.382812 C 373.339844 538.832031 373.941406 538.335938 374.589844 537.902344 C 375.242188 537.46875 375.925781 537.101562 376.648438 536.804688 C 377.371094 536.503906 378.117188 536.277344 378.882812 536.125 C 379.652344 535.972656 380.425781 535.898438 381.207031 535.898438 C 381.988281 535.898438 382.765625 535.972656 383.53125 536.125 C 384.296875 536.277344 385.042969 536.503906 385.765625 536.804688 C 386.488281 537.101562 387.175781 537.46875 387.824219 537.902344 C 388.472656 538.335938 389.074219 538.832031 389.628906 539.382812 C 390.183594 539.9375 390.675781 540.539062 391.109375 541.1875 C 391.542969 541.839844 391.910156 542.523438 392.210938 543.246094 C 392.511719 543.96875 392.734375 544.714844 392.886719 545.480469 C 393.039062 546.246094 393.117188 547.019531 393.117188 547.804688 C 393.117188 548.585938 393.039062 549.359375 392.886719 550.125 C 392.734375 550.894531 392.511719 551.636719 392.210938 552.359375 C 391.910156 553.082031 391.542969 553.769531 391.109375 554.417969 C 390.675781 555.066406 390.183594 555.667969 389.628906 556.222656 C 389.074219 556.773438 388.472656 557.269531 387.824219 557.703125 C 387.175781 558.136719 386.488281 558.503906 385.765625 558.804688 C 385.042969 559.101562 384.296875 559.328125 383.53125 559.480469 C 382.765625 559.632812 381.988281 559.710938 381.207031 559.710938 Z M 381.207031 559.710938 " fill-opacity="1" fill-rule="nonzero"/><path fill="#000000" d="M 428.847656 559.710938 C 428.0625 559.710938 427.289062 559.632812 426.523438 559.480469 C 425.753906 559.328125 425.011719 559.101562 424.289062 558.804688 C 423.566406 558.503906 422.878906 558.136719 422.230469 557.703125 C 421.578125 557.269531 420.976562 556.773438 420.425781 556.222656 C 419.871094 555.667969 419.378906 555.066406 418.945312 554.417969 C 418.507812 553.769531 418.140625 553.082031 417.84375 552.359375 C 417.542969 551.636719 417.316406 550.894531 417.164062 550.125 C 417.011719 549.359375 416.9375 548.585938 416.9375 547.804688 C 416.9375 547.019531 417.011719 546.246094 417.164062 545.480469 C 417.316406 544.714844 417.542969 543.96875 417.84375 543.246094 C 418.140625 542.523438 418.507812 541.839844 418.945312 541.1875 C 419.378906 540.539062 419.871094 539.9375 420.425781 539.382812 C 420.976562 538.832031 421.578125 538.335938 422.230469 537.902344 C 422.878906 537.46875 423.566406 537.101562 424.289062 536.804688 C 425.011719 536.503906 425.753906 536.277344 426.523438 536.125 C 427.289062 535.972656 428.0625 535.898438 428.847656 535.898438 C 429.628906 535.898438 430.402344 535.972656 431.167969 536.125 C 431.9375 536.277344 432.679688 536.503906 433.402344 536.804688 C 434.125 537.101562 434.8125 537.46875 435.464844 537.902344 C 436.113281 538.335938 436.714844 538.832031 437.269531 539.382812 C 437.820312 539.9375 438.3125 540.539062 438.75 541.1875 C 439.183594 541.839844 439.550781 542.523438 439.847656 543.246094 C 440.148438 543.96875 440.375 544.714844 440.527344 545.480469 C 440.679688 546.246094 440.757812 547.019531 440.757812 547.804688 C 440.757812 548.585938 440.679688 549.359375 440.527344 550.125 C 440.375 550.894531 440.148438 551.636719 439.847656 552.359375 C 439.550781 553.082031 439.183594 553.769531 438.75 554.417969 C 438.3125 555.066406 437.820312 555.667969 437.269531 556.222656 C 436.714844 556.773438 436.113281 557.269531 435.464844 557.703125 C 434.8125 558.136719 434.125 558.503906 433.402344 558.804688 C 432.679688 559.101562 431.9375 559.328125 431.167969 559.480469 C 430.402344 559.632812 429.628906 559.710938 428.847656 559.710938 Z M 428.847656 559.710938 " fill-opacity="1" fill-rule="nonzero"/><path fill="#000000" d="M 369.296875 416.835938 C 367.71875 416.835938 366.199219 416.535156 364.738281 415.929688 C 363.277344 415.328125 361.988281 414.46875 360.871094 413.351562 C 360.367188 412.847656 359.839844 412.367188 359.289062 411.914062 C 358.738281 411.464844 358.167969 411.039062 357.574219 410.640625 C 356.980469 410.246094 356.371094 409.878906 355.742188 409.542969 C 355.113281 409.207031 354.46875 408.902344 353.8125 408.628906 C 353.152344 408.355469 352.480469 408.113281 351.800781 407.90625 C 351.117188 407.699219 350.425781 407.527344 349.726562 407.386719 C 349.027344 407.25 348.324219 407.144531 347.613281 407.074219 C 346.902344 407.003906 346.191406 406.96875 345.476562 406.96875 C 344.765625 406.96875 344.054688 407.003906 343.34375 407.074219 C 342.632812 407.144531 341.929688 407.25 341.230469 407.386719 C 340.53125 407.527344 339.839844 407.699219 339.15625 407.90625 C 338.476562 408.113281 337.804688 408.355469 337.144531 408.628906 C 336.488281 408.902344 335.84375 409.207031 335.214844 409.542969 C 334.585938 409.878906 333.976562 410.246094 333.382812 410.640625 C 332.789062 411.039062 332.21875 411.464844 331.667969 411.914062 C 331.117188 412.367188 330.589844 412.847656 330.085938 413.351562 C 329.53125 413.90625 328.929688 414.398438 328.277344 414.832031 C 327.628906 415.269531 326.941406 415.636719 326.21875 415.933594 C 325.496094 416.234375 324.75 416.460938 323.984375 416.613281 C 323.214844 416.765625 322.441406 416.839844 321.660156 416.839844 C 320.875 416.839844 320.101562 416.765625 319.335938 416.613281 C 318.566406 416.460938 317.820312 416.234375 317.097656 415.933594 C 316.375 415.636719 315.6875 415.269531 315.039062 414.832031 C 314.386719 414.398438 313.785156 413.90625 313.234375 413.351562 C 312.679688 412.796875 312.183594 412.195312 311.75 411.546875 C 311.316406 410.894531 310.949219 410.210938 310.648438 409.488281 C 310.351562 408.765625 310.125 408.019531 309.972656 407.253906 C 309.820312 406.484375 309.742188 405.710938 309.742188 404.929688 C 309.742188 404.144531 309.820312 403.371094 309.972656 402.605469 C 310.125 401.835938 310.351562 401.09375 310.648438 400.371094 C 310.949219 399.648438 311.316406 398.960938 311.75 398.308594 C 312.183594 397.660156 312.679688 397.058594 313.234375 396.503906 C 314.289062 395.449219 315.394531 394.445312 316.546875 393.5 C 317.703125 392.550781 318.898438 391.660156 320.140625 390.832031 C 321.382812 390.003906 322.664062 389.234375 323.980469 388.53125 C 325.296875 387.828125 326.644531 387.1875 328.027344 386.617188 C 329.40625 386.046875 330.808594 385.542969 332.238281 385.109375 C 333.667969 384.675781 335.117188 384.3125 336.582031 384.019531 C 338.046875 383.730469 339.523438 383.511719 341.007812 383.363281 C 342.496094 383.21875 343.984375 383.144531 345.476562 383.144531 C 346.972656 383.144531 348.460938 383.21875 349.949219 383.363281 C 351.433594 383.511719 352.910156 383.730469 354.375 384.019531 C 355.839844 384.3125 357.289062 384.675781 358.71875 385.109375 C 360.144531 385.542969 361.550781 386.046875 362.929688 386.617188 C 364.3125 387.1875 365.660156 387.828125 366.976562 388.53125 C 368.292969 389.234375 369.574219 390.003906 370.816406 390.832031 C 372.054688 391.660156 373.253906 392.550781 374.410156 393.5 C 375.5625 394.445312 376.667969 395.449219 377.722656 396.503906 C 378.558594 397.335938 379.253906 398.273438 379.808594 399.3125 C 380.363281 400.351562 380.757812 401.449219 380.988281 402.601562 C 381.21875 403.757812 381.273438 404.921875 381.160156 406.09375 C 381.042969 407.265625 380.761719 408.398438 380.308594 409.484375 C 379.859375 410.574219 379.257812 411.574219 378.511719 412.484375 C 377.761719 413.394531 376.898438 414.175781 375.917969 414.832031 C 374.9375 415.484375 373.886719 415.984375 372.757812 416.324219 C 371.628906 416.664062 370.476562 416.835938 369.296875 416.835938 Z M 369.296875 416.835938 " fill-opacity="1" fill-rule="nonzero"/><path fill="#000000" d="M 476.484375 416.835938 C 474.90625 416.835938 473.386719 416.535156 471.925781 415.929688 C 470.464844 415.328125 469.175781 414.46875 468.058594 413.351562 C 467.554688 412.847656 467.027344 412.371094 466.476562 411.917969 C 465.925781 411.464844 465.351562 411.039062 464.761719 410.644531 C 464.167969 410.25 463.558594 409.882812 462.929688 409.546875 C 462.300781 409.210938 461.65625 408.90625 460.996094 408.632812 C 460.339844 408.359375 459.667969 408.121094 458.984375 407.914062 C 458.304688 407.707031 457.613281 407.53125 456.914062 407.394531 C 456.214844 407.253906 455.507812 407.152344 454.800781 407.082031 C 454.089844 407.011719 453.378906 406.976562 452.664062 406.976562 C 451.953125 406.976562 451.242188 407.011719 450.53125 407.082031 C 449.824219 407.152344 449.117188 407.253906 448.417969 407.394531 C 447.71875 407.53125 447.027344 407.707031 446.347656 407.914062 C 445.664062 408.121094 444.992188 408.359375 444.335938 408.632812 C 443.675781 408.90625 443.03125 409.210938 442.402344 409.546875 C 441.773438 409.882812 441.164062 410.25 440.570312 410.644531 C 439.976562 411.039062 439.40625 411.464844 438.855469 411.917969 C 438.304688 412.371094 437.777344 412.847656 437.273438 413.351562 C 436.71875 413.90625 436.117188 414.398438 435.464844 414.832031 C 434.816406 415.269531 434.128906 415.636719 433.40625 415.933594 C 432.683594 416.234375 431.9375 416.460938 431.171875 416.613281 C 430.402344 416.765625 429.628906 416.839844 428.847656 416.839844 C 428.0625 416.839844 427.289062 416.765625 426.523438 416.613281 C 425.753906 416.460938 425.007812 416.234375 424.285156 415.933594 C 423.5625 415.636719 422.875 415.269531 422.226562 414.832031 C 421.574219 414.398438 420.972656 413.90625 420.421875 413.351562 C 419.867188 412.796875 419.371094 412.195312 418.9375 411.546875 C 418.503906 410.894531 418.136719 410.210938 417.835938 409.488281 C 417.539062 408.765625 417.3125 408.019531 417.160156 407.253906 C 417.007812 406.484375 416.929688 405.710938 416.929688 404.929688 C 416.929688 404.144531 417.007812 403.371094 417.160156 402.605469 C 417.3125 401.835938 417.539062 401.09375 417.835938 400.371094 C 418.136719 399.648438 418.503906 398.960938 418.9375 398.308594 C 419.371094 397.660156 419.867188 397.058594 420.421875 396.503906 C 421.476562 395.449219 422.582031 394.449219 423.738281 393.503906 C 424.894531 392.558594 426.09375 391.671875 427.335938 390.84375 C 428.578125 390.015625 429.855469 389.25 431.171875 388.546875 C 432.492188 387.847656 433.839844 387.210938 435.21875 386.640625 C 436.597656 386.070312 438.003906 385.566406 439.433594 385.132812 C 440.859375 384.703125 442.308594 384.339844 443.773438 384.050781 C 445.238281 383.757812 446.710938 383.539062 448.199219 383.394531 C 449.683594 383.25 451.171875 383.175781 452.664062 383.175781 C 454.160156 383.175781 455.648438 383.25 457.132812 383.394531 C 458.621094 383.539062 460.09375 383.757812 461.558594 384.050781 C 463.023438 384.339844 464.46875 384.703125 465.898438 385.132812 C 467.328125 385.566406 468.734375 386.070312 470.113281 386.640625 C 471.492188 387.210938 472.839844 387.84375 474.15625 388.546875 C 475.476562 389.25 476.753906 390.015625 477.996094 390.84375 C 479.238281 391.671875 480.4375 392.558594 481.59375 393.503906 C 482.75 394.449219 483.855469 395.449219 484.910156 396.503906 C 485.746094 397.335938 486.441406 398.273438 486.996094 399.3125 C 487.550781 400.351562 487.945312 401.449219 488.175781 402.601562 C 488.40625 403.757812 488.460938 404.921875 488.347656 406.09375 C 488.230469 407.265625 487.949219 408.398438 487.496094 409.484375 C 487.046875 410.574219 486.445312 411.574219 485.699219 412.484375 C 484.949219 413.394531 484.085938 414.175781 483.105469 414.832031 C 482.125 415.484375 481.074219 415.984375 479.945312 416.324219 C 478.816406 416.664062 477.664062 416.835938 476.484375 416.835938 Z M 476.484375 416.835938 " fill-opacity="1" fill-rule="nonzero"/><path fill="#cd4f5f" d="M 143.011719 71.554688 L 214.472656 71.554688 L 178.742188 131.085938 Z M 143.011719 71.554688 " fill-opacity="1" fill-rule="nonzero"/><path fill="#000000" d="M 168.53125 137.214844 L 132.800781 77.683594 C 132.257812 76.78125 131.84375 75.824219 131.554688 74.808594 C 131.265625 73.796875 131.113281 72.761719 131.101562 71.707031 C 131.085938 70.652344 131.210938 69.617188 131.472656 68.59375 C 131.734375 67.574219 132.125 66.605469 132.644531 65.6875 C 133.164062 64.769531 133.792969 63.9375 134.535156 63.1875 C 135.277344 62.4375 136.101562 61.796875 137.011719 61.265625 C 137.921875 60.734375 138.886719 60.332031 139.90625 60.058594 C 140.921875 59.785156 141.957031 59.648438 143.011719 59.648438 L 214.472656 59.648438 C 215.527344 59.648438 216.5625 59.785156 217.578125 60.058594 C 218.597656 60.332031 219.5625 60.734375 220.472656 61.265625 C 221.382812 61.796875 222.210938 62.4375 222.949219 63.1875 C 223.691406 63.9375 224.320312 64.769531 224.839844 65.6875 C 225.359375 66.605469 225.75 67.574219 226.011719 68.59375 C 226.273438 69.617188 226.398438 70.652344 226.382812 71.707031 C 226.371094 72.761719 226.21875 73.796875 225.929688 74.808594 C 225.644531 75.824219 225.226562 76.78125 224.683594 77.683594 L 188.953125 137.214844 C 188.691406 137.65625 188.402344 138.074219 188.082031 138.476562 C 187.765625 138.878906 187.421875 139.257812 187.058594 139.613281 C 186.691406 139.972656 186.300781 140.304688 185.894531 140.613281 C 185.484375 140.917969 185.054688 141.199219 184.609375 141.453125 C 184.164062 141.703125 183.703125 141.925781 183.230469 142.117188 C 182.757812 142.3125 182.273438 142.472656 181.777344 142.605469 C 181.28125 142.734375 180.78125 142.832031 180.273438 142.898438 C 179.765625 142.964844 179.253906 142.996094 178.742188 142.996094 C 178.230469 142.996094 177.71875 142.964844 177.210938 142.898438 C 176.703125 142.832031 176.203125 142.734375 175.707031 142.605469 C 175.214844 142.472656 174.726562 142.3125 174.253906 142.117188 C 173.78125 141.925781 173.320312 141.703125 172.875 141.453125 C 172.429688 141.199219 172 140.917969 171.589844 140.613281 C 171.183594 140.304688 170.792969 139.972656 170.425781 139.613281 C 170.0625 139.257812 169.71875 138.878906 169.402344 138.476562 C 169.082031 138.074219 168.792969 137.65625 168.53125 137.214844 Z M 164.046875 83.460938 L 178.742188 107.941406 L 193.4375 83.460938 Z M 164.046875 83.460938 " fill-opacity="1" fill-rule="nonzero"/><path fill="#cd4f5f" d="M 595.582031 71.554688 L 667.039062 71.554688 L 631.3125 131.085938 Z M 595.582031 71.554688 " fill-opacity="1" fill-rule="nonzero"/><path fill="#000000" d="M 621.097656 137.214844 L 585.371094 77.683594 C 584.828125 76.78125 584.410156 75.824219 584.121094 74.808594 C 583.835938 73.796875 583.683594 72.761719 583.671875 71.707031 C 583.65625 70.652344 583.78125 69.617188 584.042969 68.59375 C 584.304688 67.574219 584.695312 66.605469 585.214844 65.6875 C 585.734375 64.769531 586.363281 63.9375 587.105469 63.1875 C 587.84375 62.4375 588.671875 61.796875 589.582031 61.265625 C 590.492188 60.734375 591.457031 60.332031 592.472656 60.058594 C 593.492188 59.785156 594.527344 59.648438 595.582031 59.648438 L 667.039062 59.648438 C 668.09375 59.648438 669.132812 59.785156 670.148438 60.058594 C 671.167969 60.332031 672.128906 60.734375 673.042969 61.265625 C 673.953125 61.796875 674.777344 62.4375 675.519531 63.1875 C 676.257812 63.9375 676.890625 64.769531 677.410156 65.6875 C 677.929688 66.605469 678.320312 67.574219 678.582031 68.59375 C 678.84375 69.617188 678.964844 70.652344 678.953125 71.707031 C 678.9375 72.761719 678.789062 73.796875 678.5 74.808594 C 678.210938 75.824219 677.796875 76.78125 677.253906 77.683594 L 641.523438 137.214844 C 641.261719 137.65625 640.96875 138.074219 640.652344 138.476562 C 640.335938 138.878906 639.992188 139.257812 639.625 139.613281 C 639.257812 139.972656 638.871094 140.304688 638.460938 140.613281 C 638.050781 140.917969 637.625 141.199219 637.179688 141.453125 C 636.734375 141.703125 636.273438 141.925781 635.800781 142.117188 C 635.324219 142.3125 634.839844 142.472656 634.34375 142.605469 C 633.851562 142.734375 633.347656 142.832031 632.839844 142.898438 C 632.332031 142.964844 631.824219 142.996094 631.3125 142.996094 C 630.800781 142.996094 630.289062 142.964844 629.78125 142.898438 C 629.273438 142.832031 628.773438 142.734375 628.277344 142.605469 C 627.78125 142.472656 627.296875 142.3125 626.824219 142.117188 C 626.347656 141.925781 625.890625 141.703125 625.445312 141.453125 C 624.996094 141.199219 624.570312 140.917969 624.160156 140.613281 C 623.75 140.304688 623.363281 139.972656 622.996094 139.613281 C 622.628906 139.257812 622.289062 138.878906 621.96875 138.476562 C 621.652344 138.074219 621.363281 137.65625 621.097656 137.214844 Z M 616.632812 83.460938 L 631.3125 107.941406 L 646.003906 83.460938 Z M 616.632812 83.460938 " fill-opacity="1" fill-rule="nonzero"/></svg>