<?xml version="1.0" standalone="no"?>
<!DOCTYPE svg PUBLIC "-//W3C//DTD SVG 20010904//EN"
 "http://www.w3.org/TR/2001/REC-SVG-20010904/DTD/svg10.dtd">
<svg version="1.0" xmlns="http://www.w3.org/2000/svg"
 width="512.000000pt" height="512.000000pt" viewBox="0 0 512.000000 512.000000"
 preserveAspectRatio="xMidYMid meet">

<g transform="translate(0.000000,512.000000) scale(0.100000,-0.100000)"
fill="#000000" stroke="#000000" stroke-width="150" stroke-linejoin="round">
<path d="M4142 4273 c-54 -19 -131 -93 -162 -158 -20 -42 -25 -65 -25 -140 0
-77 4 -98 27 -147 47 -101 140 -183 241 -213 39 -11 40 -13 20 -24 -12 -6 -41
-14 -65 -17 -40 -5 -44 -3 -64 28 -46 73 -152 194 -223 256 -198 170 -426 280
-694 334 -96 20 -142 23 -317 22 -183 0 -219 -3 -333 -27 -316 -67 -585 -186
-869 -384 -58 -41 -114 -83 -124 -94 -11 -13 -30 -19 -58 -19 -69 0 -228 -28
-310 -54 l-79 -25 -61 55 c-110 100 -274 162 -491 186 -82 9 -108 9 -118 -1
-20 -20 -22 -257 -2 -354 17 -86 72 -215 123 -289 16 -24 27 -49 25 -55 -3 -8
-22 -13 -45 -13 -24 0 -51 -8 -68 -20 -57 -41 -110 -196 -110 -325 0 -122 44
-263 98 -313 16 -15 32 -39 35 -53 6 -24 2 -29 -67 -62 -142 -71 -208 -177
-208 -337 0 -218 144 -412 347 -466 108 -29 261 -8 356 49 l54 33 100 -43
c100 -42 276 -93 321 -93 13 0 24 -2 24 -4 0 -3 -18 -38 -40 -78 -22 -40 -40
-81 -40 -90 0 -44 202 -163 339 -200 101 -27 292 -31 317 -7 15 16 53 229 69
392 6 65 8 69 39 84 32 15 36 14 133 -25 82 -33 142 -50 299 -88 7 -1 13 -90
17 -274 4 -197 9 -275 18 -286 67 -81 380 -131 544 -88 83 21 183 79 191 109
3 13 -6 68 -20 122 -14 54 -45 173 -70 264 l-43 166 101 27 c55 15 146 45 200
66 55 22 101 38 102 37 1 -1 13 -78 28 -171 14 -93 31 -175 37 -182 19 -24 83
-36 160 -33 97 5 185 48 276 132 65 62 163 189 163 213 0 18 -110 165 -191
256 l-69 76 46 54 c133 155 233 357 284 572 43 180 44 430 1 596 l-18 70 56
43 c71 55 162 169 205 260 32 65 40 75 90 100 106 56 206 175 246 295 15 47
18 67 10 82 -16 30 -30 25 -95 -38 -55 -53 -149 -122 -165 -122 -4 0 -10 29
-14 66 -7 71 -36 159 -72 215 -35 56 -120 126 -180 148 -65 25 -168 27 -232 4z
m226 -75 c66 -32 117 -85 154 -164 32 -67 33 -72 33 -199 -1 -121 -3 -136 -32
-213 -41 -105 -107 -205 -185 -277 -61 -57 -62 -57 -72 -34 -5 13 -27 61 -47
106 -37 82 -39 93 -10 93 32 0 122 50 169 94 121 113 151 288 75 429 -63 114
-198 157 -301 95 -69 -42 -86 -144 -42 -246 40 -92 95 -126 238 -147 l42 -7
-17 -30 c-17 -28 -21 -30 -73 -26 -245 17 -371 326 -201 492 69 67 170 80 269
34z m-1213 -68 c570 -98 984 -492 1102 -1050 24 -116 24 -354 -1 -468 -89
-414 -358 -758 -714 -911 -119 -52 -256 -96 -386 -126 -117 -26 -130 -32 -124
-61 2 -14 14 -20 41 -22 20 -2 37 -6 37 -9 0 -3 29 -118 65 -255 74 -284 76
-260 -22 -297 -90 -35 -170 -44 -273 -31 -94 11 -197 40 -237 66 l-23 14 0
313 c0 331 -3 354 -46 346 -14 -3 -20 -14 -22 -41 -3 -36 -4 -37 -35 -31 -60
11 -194 52 -247 75 l-53 24 64 46 c77 55 200 182 250 258 124 188 181 408 159
615 -10 97 -41 218 -67 269 -13 24 -16 55 -14 141 3 135 -18 280 -59 408 -48
152 -75 205 -106 213 -41 10 -182 -4 -270 -27 -43 -11 -83 -21 -89 -21 -5 0
-47 16 -92 36 -71 32 -163 57 -311 83 l-43 8 126 84 c281 188 592 312 890 356
143 21 363 18 500 -5z m1152 -51 c80 -30 139 -154 118 -248 -6 -27 -11 -31
-40 -31 -106 0 -183 41 -216 115 -53 116 24 208 138 164z m445 -276 c-35 -44
-66 -74 -104 -98 l-28 -17 0 31 c0 25 6 35 31 49 18 9 52 31 78 48 25 17 48
29 50 28 2 -2 -10 -20 -27 -41z m-4002 -54 c88 -24 188 -75 249 -127 l44 -38
-69 -42 c-38 -23 -80 -51 -93 -61 l-25 -19 -50 76 c-27 43 -87 114 -132 160
l-83 84 42 -7 c23 -3 76 -15 117 -26z m-131 -96 c63 -64 121 -134 143 -172
l38 -65 -53 -55 c-29 -31 -67 -74 -85 -96 -32 -39 -33 -39 -48 -20 -35 46 -95
185 -109 250 -18 84 -20 265 -4 265 6 0 59 -48 118 -107z m1212 -66 c53 -14
113 -34 134 -44 l37 -20 -56 -31 c-66 -38 -196 -157 -196 -181 0 -18 18 -41
32 -41 4 0 44 33 88 74 129 119 282 186 457 202 59 5 77 4 84 -7 14 -23 10
-303 -7 -416 -8 -57 -27 -143 -41 -191 -50 -170 -49 -160 -30 -179 16 -16 18
-16 36 2 41 43 106 309 117 483 4 56 9 100 12 98 12 -13 33 -145 38 -252 5
-91 3 -145 -10 -223 -10 -56 -15 -109 -12 -117 7 -19 45 -18 52 1 12 29 21 14
37 -57 25 -114 30 -190 17 -290 -37 -285 -186 -512 -441 -671 -265 -164 -641
-209 -942 -111 l-47 16 48 24 c71 35 125 86 158 148 23 45 35 56 67 66 22 6
50 22 64 36 19 19 22 28 13 44 -13 25 -38 25 -70 0 -41 -32 -78 -26 -122 22
-32 35 -42 40 -56 32 -33 -21 -26 -53 18 -96 37 -35 41 -42 32 -63 -36 -78
-156 -155 -244 -155 -75 0 -80 5 -53 53 37 64 51 162 36 248 -39 217 -237 409
-441 427 -45 4 -75 12 -78 20 -2 6 4 12 14 12 9 0 34 18 55 40 60 62 84 153
84 310 0 136 -14 196 -61 265 l-24 36 59 83 c63 87 187 212 263 264 107 73
248 131 385 157 124 23 372 14 494 -18z m-1235 -522 c70 -75 99 -290 58 -435
-21 -75 -74 -140 -113 -140 -56 0 -111 91 -131 215 -21 130 14 301 75 362 42
42 69 42 111 -2z m169 -759 c161 -80 273 -270 250 -425 -9 -63 -41 -133 -74
-165 l-28 -27 15 61 c13 54 13 69 -1 141 -19 100 -80 225 -144 298 -52 59
-147 126 -193 136 -17 4 -30 11 -30 17 0 7 23 9 66 5 48 -3 86 -15 139 -41z
m-155 -67 c164 -87 283 -315 249 -477 -21 -102 -98 -149 -227 -139 -238 19
-409 295 -327 528 45 127 166 162 305 88z m3462 -519 c24 -30 55 -70 68 -89
l23 -34 -19 -35 c-10 -20 -51 -69 -91 -108 -107 -108 -229 -159 -319 -135
l-39 10 -23 153 c-13 84 -26 160 -28 169 -3 11 20 31 78 67 46 28 112 75 148
105 l64 54 47 -51 c25 -28 66 -76 91 -106z m-2072 -175 c0 -27 -40 -299 -48
-330 l-9 -30 -95 1 c-140 2 -303 58 -403 138 l-30 24 40 76 40 77 45 -6 c67
-9 255 12 356 39 110 30 104 29 104 11z"/>
<path d="M2860 4059 c-214 -27 -435 -112 -572 -218 -52 -40 -74 -72 -65 -95
10 -26 36 -19 183 43 146 61 325 123 486 167 110 30 161 56 156 81 -6 31 -67
38 -188 22z"/>
<path d="M3510 3295 c-10 -12 -10 -25 -1 -59 6 -25 11 -49 11 -55 0 -9 -69
-37 -74 -29 -1 1 -9 28 -17 58 -10 39 -20 56 -33 58 -30 6 -35 -16 -19 -86 15
-66 15 -66 -8 -87 -108 -93 -125 -202 -44 -274 32 -27 65 -41 135 -55 23 -5
30 -20 76 -171 l51 -165 -47 0 c-58 0 -91 -20 -71 -44 10 -12 31 -16 75 -16
l61 0 20 -57 c16 -45 25 -59 43 -61 32 -5 38 21 17 75 -18 46 -12 62 22 63 6
0 18 3 26 6 11 4 21 -12 37 -61 23 -68 40 -86 64 -66 12 10 11 22 -9 81 l-23
69 33 25 c41 31 75 100 75 150 0 82 -72 164 -172 194 l-56 17 -38 140 c-20 77
-39 146 -42 153 -7 20 28 14 75 -14 49 -29 76 -26 71 8 -4 26 -54 57 -117 74
-44 11 -47 13 -61 65 -22 81 -35 94 -60 64z m34 -202 c26 -87 75 -278 72 -281
-3 -2 -23 -1 -45 3 -45 7 -44 6 -81 155 -12 47 -23 92 -26 101 -2 10 5 20 18
27 34 16 56 14 62 -5z m-104 -159 c15 -60 27 -110 26 -111 -6 -7 -77 20 -99
38 -31 24 -44 77 -27 110 14 28 62 81 67 75 2 -2 17 -53 33 -112z m197 -188
c6 -6 93 -289 90 -292 -2 -2 -21 -6 -43 -10 l-41 -6 -46 154 c-26 85 -47 158
-47 162 0 8 79 0 87 -8z m142 -39 c65 -39 88 -114 56 -177 -8 -16 -24 -34 -34
-40 -16 -8 -20 -6 -25 13 -3 12 -21 71 -40 130 -34 105 -34 108 -13 101 12 -3
37 -15 56 -27z"/>
<path d="M1088 2942 c-38 -25 -67 -65 -91 -125 -29 -74 -36 -267 -13 -357 43
-166 136 -239 227 -177 80 54 132 245 111 411 -25 197 -135 313 -234 248z
m111 -50 c15 -15 38 -54 52 -87 20 -53 23 -77 24 -195 0 -128 -1 -138 -29
-198 -65 -140 -148 -134 -207 16 -20 49 -23 75 -23 182 1 107 4 134 24 185 26
67 77 125 110 125 12 0 34 -12 49 -28z"/>
<path d="M1107 2832 c-44 -49 -67 -196 -48 -307 28 -160 95 -202 147 -92 13
29 24 58 24 66 0 7 -17 36 -37 63 -25 35 -34 54 -27 64 5 7 22 31 37 52 26 37
27 43 18 80 -22 80 -76 116 -114 74z"/>
<path d="M501 3017 c-79 -95 -70 -398 13 -453 33 -21 62 -5 87 49 26 59 24 78
-17 131 l-36 47 29 40 c15 22 32 46 37 53 12 17 0 74 -24 114 -15 24 -27 32
-49 32 -16 0 -34 -6 -40 -13z"/>
<path d="M377 2132 c-27 -30 -39 -75 -39 -152 -1 -126 44 -194 101 -153 34 26
50 73 50 154 1 102 -28 169 -74 169 -12 0 -29 -8 -38 -18z"/>
<path d="M618 2023 c-28 -30 -38 -71 -38 -151 0 -113 35 -173 93 -158 40 10
60 75 56 179 -3 68 -8 92 -25 114 -25 34 -64 41 -86 16z"/>
</g>
</svg>
