<svg xmlns="http://www.w3.org/2000/svg" xmlns:xlink="http://www.w3.org/1999/xlink" width="1080" zoomAndPan="magnify" viewBox="0 0 810 809.999993" height="1080" preserveAspectRatio="xMidYMid meet" version="1.0"><defs><clipPath id="b5cff7aa6d"><path d="M 157.03125 50.761719 L 652.78125 50.761719 L 652.78125 759.511719 L 157.03125 759.511719 Z M 157.03125 50.761719 " clip-rule="nonzero"/></clipPath></defs><g clip-path="url(#b5cff7aa6d)"><path fill="#000000" d="M 242.511719 758.566406 C 241.824219 758.21875 240.644531 757.480469 239.890625 756.925781 C 238.710938 756.054688 238.210938 755.949219 236.253906 756.152344 C 233.820312 756.402344 230.972656 755.800781 228.554688 754.53125 C 227.753906 754.109375 226.53125 753.769531 225.832031 753.769531 C 225.136719 753.769531 224.171875 753.492188 223.691406 753.15625 C 223.210938 752.820312 221.910156 752.339844 220.800781 752.089844 C 218.238281 751.515625 217.710938 751.058594 217.710938 749.421875 C 217.710938 747.972656 218.339844 747.09375 219.378906 747.09375 C 220.5 747.09375 221.066406 746.242188 220.566406 745.308594 C 219.46875 743.261719 222.265625 741.078125 225.832031 741.199219 C 228.054688 741.277344 231.554688 742.257812 232.914062 743.191406 C 233.984375 743.929688 234.988281 743.910156 235.628906 743.136719 C 236.277344 742.355469 241.285156 740.839844 243.222656 740.839844 C 244.023438 740.839844 245.265625 741.042969 245.980469 741.296875 C 247.011719 741.65625 247.730469 741.601562 249.449219 741.027344 C 251.277344 740.421875 252.433594 740.355469 256.859375 740.617188 C 263.339844 741 263.746094 741 268.269531 740.617188 C 270.921875 740.394531 272.398438 740.457031 273.605469 740.859375 C 275.070312 741.339844 275.535156 741.316406 277.382812 740.652344 C 279.277344 739.96875 279.78125 739.949219 282.367188 740.4375 C 284.871094 740.910156 285.609375 740.890625 288.109375 740.285156 C 291.992188 739.351562 292.59375 739.394531 296.324219 740.886719 C 299.402344 742.121094 299.738281 742.167969 303.382812 741.898438 C 305.949219 741.703125 307.757812 741.777344 308.882812 742.113281 C 310.363281 742.558594 311.019531 742.484375 314.632812 741.457031 C 318.613281 740.328125 318.757812 740.316406 320.832031 740.976562 C 322 741.347656 324.082031 741.746094 325.457031 741.867188 C 326.832031 741.984375 328.636719 742.195312 329.464844 742.335938 C 330.46875 742.507812 331.40625 742.363281 332.257812 741.925781 C 333.703125 741.179688 337.578125 741.046875 339.835938 741.667969 C 341.945312 742.246094 346.816406 742.292969 352.511719 741.796875 C 356.953125 741.410156 357.761719 741.445312 360.222656 742.15625 C 364.40625 743.359375 372.488281 743.96875 374.386719 743.222656 C 376.203125 742.511719 382.234375 742.386719 384.847656 743.007812 C 385.882812 743.253906 391.792969 743.53125 397.984375 743.625 C 404.171875 743.71875 410.738281 743.851562 412.574219 743.921875 C 426.558594 744.464844 431 744.734375 431.636719 745.078125 C 432.671875 745.632812 432.554688 747.050781 431.433594 747.519531 C 430.175781 748.046875 419.175781 749.167969 413.113281 749.386719 C 410.429688 749.476562 407.824219 749.78125 407.320312 750.050781 C 406.8125 750.320312 405.671875 750.441406 404.75 750.316406 C 403.769531 750.183594 402.253906 750.371094 401.050781 750.75 C 399.386719 751.289062 398.71875 751.320312 397.382812 750.917969 C 396.128906 750.542969 395.28125 750.546875 393.738281 750.929688 C 392.636719 751.199219 390.886719 751.464844 389.855469 751.511719 C 388.824219 751.566406 386.480469 751.890625 384.644531 752.242188 C 382.375 752.675781 379.667969 752.828125 376.167969 752.722656 C 372.0625 752.589844 370.832031 752.695312 370.058594 753.199219 C 369.28125 753.707031 368.378906 753.78125 365.585938 753.550781 C 362.6875 753.316406 361.84375 753.394531 360.683594 753.992188 C 359.527344 754.589844 357.835938 754.746094 351.121094 754.882812 C 341.09375 755.085938 338.746094 755.25 334.804688 756.035156 C 330.449219 756.90625 318.035156 757.675781 310.347656 757.554688 C 307.058594 757.503906 304.964844 757.6875 303.320312 758.164062 C 301.441406 758.710938 300.578125 758.757812 298.921875 758.402344 C 297.789062 758.160156 295.65625 757.960938 294.183594 757.960938 C 292.679688 757.960938 290.757812 757.660156 289.808594 757.28125 C 288.136719 756.609375 288.078125 756.621094 285.285156 757.90625 C 281.964844 759.4375 280.621094 759.515625 277.648438 758.34375 C 275.601562 757.535156 275.21875 757.511719 272.1875 758.003906 C 269.640625 758.417969 268.523438 758.425781 267.078125 758.042969 C 265.539062 757.632812 264.957031 757.660156 263.566406 758.21875 C 262.425781 758.671875 261.335938 758.796875 260.125 758.613281 C 259.148438 758.460938 257.695312 758.347656 256.890625 758.363281 C 252.835938 758.429688 246.90625 758.746094 245.429688 758.96875 C 244.316406 759.140625 243.34375 759.011719 242.511719 758.589844 Z M 204.164062 749.398438 C 203.015625 748.859375 201.378906 748.292969 200.523438 748.136719 C 199.117188 747.882812 193.082031 744.574219 191.472656 743.175781 C 191.117188 742.867188 190.148438 742.394531 189.320312 742.128906 C 188.492188 741.863281 186.523438 740.609375 184.945312 739.339844 C 183.363281 738.074219 180.945312 736.304688 179.570312 735.410156 C 175.375 732.679688 174.90625 732.191406 172.867188 728.421875 C 171.78125 726.417969 170.289062 724.097656 169.546875 723.261719 C 168.660156 722.265625 168.035156 720.980469 167.71875 719.507812 C 167.457031 718.277344 166.734375 716.535156 166.113281 715.640625 C 165.117188 714.199219 164.957031 713.507812 164.769531 709.761719 C 164.570312 705.710938 164.496094 705.441406 163.226562 703.992188 C 161.765625 702.328125 161.246094 700.734375 160.824219 696.621094 C 160.671875 695.128906 160.167969 693.066406 159.707031 692.035156 C 159.230469 690.976562 158.859375 689.246094 158.855469 688.070312 C 158.847656 686.921875 158.652344 685.613281 158.410156 685.160156 C 157.609375 683.644531 157.355469 681.621094 157.773438 680.039062 C 158 679.179688 158.335938 676.691406 158.519531 674.515625 C 159.859375 658.671875 160.46875 655.578125 162.648438 653.488281 C 164.066406 652.128906 168.53125 650.738281 171.476562 650.738281 C 172.726562 650.738281 174.085938 651.101562 175.347656 651.773438 C 177.136719 652.726562 177.472656 652.773438 179.449219 652.347656 C 180.632812 652.09375 182.699219 652 184.039062 652.140625 C 186.179688 652.363281 186.671875 652.273438 188.03125 651.371094 C 189.195312 650.597656 190.71875 650.1875 194.164062 649.710938 C 196.683594 649.363281 199.511719 648.960938 200.457031 648.816406 C 201.550781 648.652344 203.042969 648.808594 204.601562 649.265625 C 206.769531 649.898438 207.589844 649.921875 212.0625 649.464844 C 214.824219 649.183594 217.453125 648.761719 217.90625 648.527344 C 218.359375 648.296875 221.332031 648.042969 224.507812 647.96875 C 229.027344 647.863281 230.546875 647.96875 231.492188 648.460938 C 233.269531 649.378906 242.449219 648.910156 245.753906 647.730469 C 247.746094 647.023438 248.648438 646.925781 250.964844 647.1875 C 254.566406 647.585938 261.46875 647.433594 262.40625 646.933594 C 264.230469 645.953125 267.113281 645.777344 270.636719 646.425781 C 273.5625 646.960938 274.539062 646.984375 276.304688 646.5625 C 278.105469 646.128906 279.019531 646.164062 282.222656 646.78125 C 286.507812 647.613281 287.550781 647.453125 287.140625 646.042969 C 285.910156 641.832031 285.878906 640.808594 286.847656 637.085938 C 287.371094 635.074219 288.277344 632.304688 288.863281 630.925781 C 290.210938 627.761719 290.464844 625.429688 289.804688 622.304688 C 289.390625 620.363281 289.386719 619.320312 289.777344 617.453125 C 291.285156 610.21875 291.648438 608.546875 292.332031 605.742188 C 292.996094 603.011719 293.015625 602.476562 292.492188 600.996094 C 291.691406 598.726562 291.738281 597.953125 292.996094 591.769531 C 293.910156 587.285156 294.015625 586.148438 293.625 584.839844 C 292.949219 582.582031 293.03125 581.855469 294.222656 579.617188 C 295.152344 577.863281 295.226562 577.460938 294.789062 576.402344 C 294.101562 574.738281 294.566406 569.25 295.640625 566.425781 C 296.34375 564.566406 296.410156 563.953125 296.023438 562.785156 C 295.730469 561.894531 295.679688 560.523438 295.890625 559.03125 C 296.070312 557.734375 296.234375 552.921875 296.25 548.335938 C 296.261719 543.539062 296.460938 539.726562 296.699219 539.367188 C 296.925781 539.023438 297.113281 537.230469 297.117188 535.386719 C 297.117188 532.894531 297.304688 531.742188 297.847656 530.917969 C 298.738281 529.550781 298.765625 528.566406 297.949219 527.003906 C 297.035156 525.246094 297.191406 522.769531 298.382812 520.207031 C 299.433594 517.949219 299.4375 517.9375 298.78125 514.785156 C 297.800781 510.074219 298.273438 493.320312 299.503906 488.988281 C 300.351562 486.011719 300.355469 485.90625 299.609375 483.71875 C 298.898438 481.628906 298.882812 480.898438 299.382812 472.15625 C 299.675781 467.023438 299.96875 461.414062 300.03125 459.695312 C 300.09375 457.972656 300.355469 454.632812 300.617188 452.269531 C 301.019531 448.632812 300.996094 447.6875 300.457031 446.101562 C 299.65625 443.746094 299.625 437.78125 300.40625 435.164062 C 302.160156 429.222656 302.347656 426.242188 301.238281 421.816406 C 300.597656 419.261719 300.488281 414.578125 300.664062 397.4375 C 300.671875 396.808594 300.675781 395.257812 300.675781 393.996094 C 300.675781 392.734375 300.683594 391.28125 300.6875 390.765625 C 300.695312 390.246094 300.632812 387.480469 300.570312 384.609375 C 300.488281 381.742188 300.609375 378.832031 300.8125 378.144531 C 301.023438 377.457031 301.234375 372.578125 301.285156 367.300781 C 301.363281 359.261719 301.496094 357.402344 302.113281 355.828125 C 302.585938 354.625 303.027344 351.632812 303.339844 347.488281 C 303.746094 342.15625 304.015625 340.617188 304.875 338.726562 C 305.722656 336.867188 305.839844 336.214844 305.5 335.277344 C 305.003906 333.898438 305.695312 330.847656 306.886719 329.175781 C 307.390625 328.464844 307.769531 326.929688 307.96875 324.753906 C 308.136719 322.917969 308.46875 320.945312 308.707031 320.371094 C 308.941406 319.796875 309.28125 318.296875 309.464844 317.035156 C 310.394531 310.601562 311.144531 308.085938 312.257812 307.660156 C 313.09375 307.335938 314.566406 308.957031 314.234375 309.828125 C 314.117188 310.148438 314.207031 311.292969 314.453125 312.367188 C 314.695312 313.445312 314.988281 316.550781 315.105469 319.273438 C 315.222656 321.992188 315.5 325.183594 315.726562 326.363281 C 315.953125 327.542969 316.296875 329.859375 316.492188 331.511719 C 316.6875 333.167969 317 334.761719 317.183594 335.058594 C 317.367188 335.355469 317.46875 337.796875 317.40625 340.484375 C 317.328125 343.996094 317.472656 345.890625 317.921875 347.222656 C 318.386719 348.585938 318.445312 349.445312 318.152344 350.46875 C 317.902344 351.34375 317.902344 352.320312 318.152344 353.113281 C 318.628906 354.628906 318.40625 367.003906 317.828125 370.976562 C 317.574219 372.726562 317.5625 374.328125 317.789062 375.144531 C 318.359375 377.144531 318.246094 379.101562 317.464844 380.753906 C 316.792969 382.171875 316.800781 382.296875 317.613281 383.734375 C 318.949219 386.09375 319.09375 387.355469 318.339844 390.042969 C 317.914062 391.574219 317.761719 393.019531 317.941406 393.875 C 318.578125 396.921875 318.640625 399.238281 318.121094 400.753906 C 317.824219 401.625 317.652344 402.527344 317.742188 402.757812 C 317.886719 403.136719 318.144531 408.390625 318.273438 413.601562 C 318.300781 414.75 318.082031 416.8125 317.789062 418.191406 C 317.441406 419.824219 317.355469 421.777344 317.542969 423.820312 C 317.96875 428.421875 318.089844 455.105469 317.691406 456.566406 C 316.785156 459.882812 316.570312 463.410156 317.160156 465.363281 C 317.871094 467.738281 317.597656 474.300781 316.609375 478.613281 C 315.996094 481.28125 316 481.609375 316.699219 483.539062 C 317.382812 485.441406 317.402344 486.101562 316.917969 491.667969 C 316.613281 495.175781 316.511719 499.320312 316.679688 501.503906 C 316.949219 505.070312 316.898438 505.40625 315.835938 507.507812 C 314.742188 509.679688 314.726562 509.792969 315.335938 511.726562 C 315.828125 513.289062 315.9375 515.578125 315.84375 522.488281 C 315.777344 527.3125 315.554688 531.722656 315.347656 532.289062 C 315.140625 532.855469 315.101562 535.566406 315.269531 538.324219 C 315.445312 541.417969 315.398438 543.804688 315.132812 544.582031 C 314.898438 545.269531 314.691406 547.535156 314.671875 549.613281 C 314.648438 553.011719 314.519531 553.574219 313.492188 555.132812 C 312.15625 557.152344 312.09375 558.097656 313.046875 561.671875 C 313.722656 564.214844 313.714844 564.421875 312.859375 567.789062 C 311.410156 573.496094 311.355469 573.945312 311.324219 580.246094 C 311.308594 583.570312 311.0625 587.703125 310.773438 589.421875 C 310.488281 591.140625 310.1875 595.085938 310.105469 598.183594 C 309.984375 602.761719 309.792969 604.164062 309.09375 605.691406 C 308.019531 608.035156 307.917969 608.964844 308.339844 612.402344 C 308.605469 614.5625 308.492188 616.066406 307.8125 619.398438 C 307.335938 621.734375 306.746094 624.015625 306.503906 624.472656 C 306.191406 625.058594 306.195312 625.796875 306.53125 627.023438 C 307.074219 629.046875 306.820312 630.382812 305.5 632.40625 C 304.785156 633.492188 304.453125 634.796875 304.226562 637.359375 C 304.035156 639.5 303.550781 641.660156 302.964844 642.972656 C 301.167969 646.992188 301.046875 646.761719 305.058594 646.898438 C 310.789062 647.097656 311.949219 647.082031 315.890625 646.765625 C 321.277344 646.335938 325.9375 646.503906 328.742188 647.230469 C 330.65625 647.726562 331.480469 647.761719 332.601562 647.390625 C 333.625 647.054688 334.808594 647.042969 336.835938 647.351562 C 340.3125 647.886719 347.507812 648.035156 348.234375 647.582031 C 348.53125 647.402344 350.875 647.214844 353.441406 647.167969 C 356.007812 647.128906 358.289062 646.976562 358.511719 646.839844 C 358.734375 646.703125 359.550781 646.785156 360.328125 647.015625 C 361.171875 647.269531 370.644531 647.523438 383.796875 647.648438 C 395.925781 647.769531 406.148438 648.011719 406.511719 648.199219 C 406.878906 648.390625 408.113281 648.679688 409.257812 648.847656 C 410.40625 649.011719 411.71875 649.339844 412.175781 649.574219 C 413.941406 650.476562 415.757812 652.664062 416.585938 654.886719 C 417.0625 656.160156 417.878906 657.765625 418.398438 658.453125 C 419.71875 660.199219 420.261719 662.085938 420.679688 666.402344 C 420.929688 668.976562 421.378906 670.84375 422.125 672.425781 C 422.726562 673.6875 423.214844 675.050781 423.21875 675.457031 C 423.226562 677.066406 425.386719 682.269531 426.539062 683.46875 C 428.1875 685.175781 428.757812 686.859375 428.433594 689.039062 C 428.183594 690.714844 428.269531 690.949219 429.636719 692.277344 C 430.523438 693.136719 431.296875 694.417969 431.574219 695.476562 C 432.800781 700.199219 433.789062 702.8125 434.914062 704.308594 C 435.589844 705.207031 436.148438 706.148438 436.15625 706.390625 C 436.164062 706.636719 436.808594 707.851562 437.597656 709.085938 C 438.382812 710.320312 439.238281 712.351562 439.496094 713.59375 C 439.882812 715.449219 440.164062 715.929688 441.074219 716.277344 C 442.835938 716.945312 444.839844 718.65625 445.570312 720.105469 C 445.941406 720.839844 446.710938 721.941406 447.285156 722.554688 C 447.855469 723.164062 449.007812 725.019531 449.839844 726.667969 C 450.742188 728.449219 451.78125 729.894531 452.402344 730.222656 C 455.554688 731.882812 456.585938 732.214844 458.863281 732.289062 C 460.238281 732.34375 462.503906 732.519531 463.902344 732.695312 L 466.441406 733.015625 L 468.546875 730.980469 C 469.707031 729.863281 471.238281 727.773438 471.953125 726.339844 C 472.769531 724.703125 473.773438 723.390625 474.652344 722.816406 C 475.417969 722.3125 476.484375 721.261719 477.019531 720.484375 C 477.554688 719.703125 478.65625 718.613281 479.46875 718.058594 C 480.664062 717.246094 481.160156 716.441406 482.078125 713.824219 C 482.699219 712.046875 483.21875 710.207031 483.226562 709.738281 C 483.265625 707.777344 485.050781 703.617188 486.417969 702.289062 C 487.542969 701.195312 487.832031 700.582031 487.839844 699.289062 C 487.847656 698.394531 488.21875 696.84375 488.671875 695.84375 C 489.125 694.84375 489.496094 693.660156 489.496094 693.214844 C 489.496094 692.144531 490.449219 690.34375 491.539062 689.359375 C 492.097656 688.851562 492.414062 688.058594 492.414062 687.15625 C 492.414062 686.382812 492.707031 685.050781 493.0625 684.195312 C 493.421875 683.34375 494.175781 681.265625 494.742188 679.574219 C 495.308594 677.882812 496.425781 675.277344 497.21875 673.777344 C 498.203125 671.921875 498.667969 670.492188 498.667969 669.3125 C 498.667969 667.066406 499.613281 663.914062 501.175781 660.941406 C 502.160156 659.066406 502.417969 658.042969 502.425781 656.011719 C 502.425781 654.601562 502.707031 652.320312 503.046875 650.945312 C 503.386719 649.566406 503.777344 646.5625 503.921875 644.269531 C 504.105469 641.328125 504.414062 639.691406 504.96875 638.71875 C 505.398438 637.960938 505.753906 636.644531 505.757812 635.800781 C 505.757812 634.953125 506.246094 633.226562 506.835938 631.964844 C 507.808594 629.886719 507.882812 629.363281 507.636719 626.433594 C 507.386719 623.480469 507.457031 622.988281 508.480469 620.804688 C 509.554688 618.5 509.835938 616.96875 510.695312 608.71875 C 511.042969 605.378906 511.246094 604.863281 513.027344 602.835938 C 513.796875 601.957031 513.878906 601.300781 513.894531 595.953125 C 513.910156 589.96875 514.5625 585.632812 516.0625 581.492188 C 516.527344 580.199219 516.707031 578.535156 516.636719 576.152344 C 516.570312 573.761719 516.742188 572.148438 517.207031 570.933594 C 517.574219 569.96875 517.953125 567.769531 518.046875 566.054688 C 518.757812 552.894531 518.847656 552.136719 519.917969 550.414062 C 521.058594 548.582031 521.171875 547.191406 521.121094 536.003906 C 521.09375 531.722656 521.257812 529.964844 521.761719 528.757812 C 522.125 527.878906 522.425781 526.347656 522.425781 525.351562 C 522.425781 524.355469 522.796875 522.550781 523.246094 521.335938 C 523.824219 519.785156 524.054688 518.203125 524.015625 516.003906 C 523.992188 514.28125 524.210938 510.714844 524.511719 508.078125 C 524.8125 505.4375 525.03125 501.828125 525 500.058594 C 524.972656 498.285156 525.144531 496.3125 525.390625 495.675781 C 526.332031 493.257812 527.035156 489.9375 526.820312 488.914062 C 526.703125 488.324219 526.5 485.707031 526.382812 483.09375 C 526.167969 478.386719 526.175781 478.320312 527.4375 476.082031 C 528.585938 474.046875 528.6875 473.582031 528.453125 471.449219 C 528.296875 470.0625 528.371094 468.585938 528.644531 467.894531 C 528.976562 467.035156 528.96875 465.4375 528.605469 462.007812 C 528.128906 457.429688 528.144531 457.195312 529.226562 453.289062 C 530.515625 448.644531 530.636719 445.3125 529.652344 441.769531 C 529.097656 439.765625 529.050781 438.875 529.410156 437.082031 C 529.667969 435.792969 529.714844 434.121094 529.527344 433.066406 C 529.15625 431.058594 529.460938 429.273438 530.488281 427.277344 C 531.332031 425.648438 531.363281 424.03125 530.59375 421.851562 C 529.917969 419.933594 530.113281 413.789062 530.9375 411.09375 C 531.285156 409.964844 531.429688 406.46875 531.386719 400.25 C 531.332031 393.40625 531.464844 390.648438 531.894531 389.402344 C 532.277344 388.292969 532.382812 386.894531 532.210938 385.230469 C 532.03125 383.480469 532.144531 382.199219 532.585938 380.964844 C 533.15625 379.378906 533.152344 378.953125 532.574219 376.792969 C 530.972656 370.882812 530.964844 368.933594 532.546875 366.316406 C 533.347656 364.992188 533.355469 364.851562 532.703125 363.488281 C 531.738281 361.460938 531.855469 359.183594 533.058594 356.597656 C 534.089844 354.382812 534.460938 351.085938 533.730469 350.636719 C 533.523438 350.503906 533.132812 349.472656 532.859375 348.332031 C 532.449219 346.628906 532.472656 345.902344 532.976562 344.261719 C 533.699219 341.933594 533.613281 334.976562 532.832031 332.613281 C 532.523438 331.675781 532.453125 330.320312 532.640625 328.976562 C 532.804688 327.796875 532.910156 326.082031 532.867188 325.164062 C 532.644531 320.074219 532.777344 316.949219 533.308594 314.867188 C 534.308594 310.96875 534.34375 295.679688 533.363281 292.488281 C 532.71875 290.390625 532.722656 290.148438 533.429688 288.316406 C 534.582031 285.335938 534.664062 284.316406 533.875 282.789062 C 533.023438 281.136719 532.929688 277.8125 533.664062 275.183594 C 534.105469 273.601562 534.082031 273.152344 533.480469 271.992188 C 532.765625 270.605469 532.683594 267.0625 533.085938 254.671875 C 533.300781 248.070312 533.308594 240.675781 533.101562 236.109375 C 532.796875 229.414062 531.722656 216.332031 531.414062 215.597656 C 531.253906 215.21875 531.425781 213.800781 531.804688 212.457031 C 532.4375 210.210938 532.4375 209.773438 531.832031 207.179688 C 531.03125 203.726562 531.027344 203.539062 531.765625 203.824219 C 532.597656 204.140625 532.988281 201.367188 532.636719 197.613281 C 532.433594 195.457031 532.53125 193.957031 532.945312 192.496094 C 533.347656 191.105469 533.429688 189.957031 533.195312 188.972656 C 533.003906 188.167969 532.96875 186.480469 533.113281 185.21875 C 533.265625 183.957031 533.421875 182.078125 533.460938 181.046875 C 533.566406 178.417969 534.386719 173.089844 534.910156 171.714844 C 535.148438 171.082031 535.347656 169.757812 535.347656 168.769531 C 535.347656 166.621094 537.476562 159.230469 538.910156 156.398438 C 539.472656 155.285156 539.933594 153.949219 539.933594 153.425781 C 539.941406 151.535156 540.847656 149.257812 542.195312 147.75 C 542.953125 146.90625 543.710938 145.746094 543.878906 145.171875 C 544.277344 143.804688 547.328125 138.578125 548.503906 137.25 C 549.011719 136.675781 549.804688 135.453125 550.265625 134.535156 C 551.242188 132.597656 552.296875 131.558594 555.054688 129.824219 C 556.152344 129.136719 557.601562 127.8125 558.277344 126.878906 C 560.039062 124.449219 561.613281 123.746094 564.683594 124.027344 C 566.460938 124.1875 567.539062 124.078125 568.386719 123.636719 C 571.527344 122.011719 579.414062 121.664062 581.984375 123.042969 C 582.4375 123.285156 583.429688 123.484375 584.191406 123.484375 C 586.652344 123.484375 588.679688 124.324219 590.800781 126.210938 C 591.941406 127.226562 593.390625 128.324219 594.019531 128.648438 C 594.644531 128.976562 595.628906 129.75 596.203125 130.367188 C 596.777344 130.984375 599.238281 132.875 601.671875 134.566406 C 606 137.574219 607.457031 139.246094 607.457031 141.207031 C 607.457031 141.59375 608.550781 143.066406 609.886719 144.480469 C 611.226562 145.894531 613.019531 148.273438 613.878906 149.761719 C 614.734375 151.253906 616.0625 153.359375 616.828125 154.445312 C 617.59375 155.527344 618.339844 157.152344 618.492188 158.050781 C 618.644531 158.953125 619.554688 161.070312 620.511719 162.757812 C 621.46875 164.441406 622.894531 167.230469 623.679688 168.953125 C 624.464844 170.671875 625.566406 172.78125 626.128906 173.636719 C 626.6875 174.492188 627.246094 176.085938 627.371094 177.179688 C 627.488281 178.28125 628.058594 179.875 628.632812 180.746094 C 629.417969 181.933594 629.746094 183.132812 629.964844 185.621094 C 630.132812 187.542969 630.542969 189.363281 630.945312 189.976562 C 632.15625 191.828125 633.390625 195.363281 633.730469 197.941406 C 633.910156 199.316406 634.378906 201.335938 634.769531 202.425781 C 635.339844 204.007812 635.398438 204.753906 635.058594 206.089844 C 634.511719 208.25 635.242188 211.511719 636.773438 213.746094 C 637.578125 214.917969 637.886719 215.902344 637.894531 217.292969 C 637.90625 219.925781 638.980469 228.847656 639.363281 229.460938 C 639.628906 229.898438 640.109375 240.703125 640.101562 246.175781 C 640.101562 247.375 639.777344 248.640625 639.253906 249.511719 C 638.785156 250.285156 638.28125 251.625 638.125 252.488281 C 637.816406 254.234375 635.890625 256.683594 634.09375 257.613281 C 632.230469 258.578125 629.546875 258.378906 627.65625 257.136719 C 625.433594 255.679688 623.195312 252.792969 622.601562 250.617188 C 621.964844 248.28125 621.925781 244.757812 622.523438 243.453125 C 622.902344 242.621094 622.847656 242.058594 622.246094 240.617188 C 621.652344 239.191406 621.484375 237.527344 621.433594 232.5625 C 621.378906 228.078125 621.175781 225.714844 620.6875 224.21875 C 619.917969 221.839844 618.300781 212.503906 618.300781 210.429688 C 618.300781 209.671875 618.097656 208.519531 617.847656 207.875 C 617.597656 207.226562 617.21875 204.851562 617.003906 202.59375 C 616.660156 199.007812 616.457031 198.296875 615.398438 196.964844 C 613.929688 195.117188 612.046875 190.242188 612.046875 188.289062 C 612.046875 187.488281 611.507812 185.914062 610.796875 184.65625 C 609.839844 182.957031 609.546875 181.917969 609.546875 180.203125 C 609.546875 178.402344 609.347656 177.757812 608.53125 176.898438 C 607.976562 176.3125 606.066406 172.921875 604.292969 169.367188 C 602.523438 165.8125 600.550781 162.128906 599.910156 161.1875 C 599.273438 160.242188 598.066406 158.03125 597.234375 156.273438 C 595.933594 153.535156 595.292969 152.738281 592.800781 150.746094 C 591.199219 149.46875 589.265625 147.457031 588.503906 146.277344 C 587.023438 143.984375 584.503906 141.402344 582.984375 140.625 C 582.472656 140.363281 581.628906 140.253906 581.109375 140.386719 C 580.589844 140.515625 578.191406 140.4375 575.785156 140.203125 L 571.410156 139.785156 L 568.28125 141.695312 C 565.058594 143.667969 561.613281 147.453125 561.613281 149.023438 C 561.613281 150.097656 560.21875 152.726562 559.113281 153.722656 C 558.605469 154.183594 557.910156 155.121094 557.5625 155.808594 C 557.214844 156.496094 556.589844 157.4375 556.171875 157.894531 C 555.753906 158.355469 555.226562 159.894531 554.996094 161.3125 C 554.769531 162.734375 554.394531 164.246094 554.167969 164.671875 C 553.941406 165.097656 553.777344 166.484375 553.808594 167.75 C 553.847656 169.4375 553.617188 170.464844 552.957031 171.59375 C 552.457031 172.4375 551.679688 174.652344 551.226562 176.515625 C 550.503906 179.503906 550.460938 180.292969 550.886719 183.191406 C 551.308594 186.097656 551.273438 186.738281 550.589844 188.75 C 549.957031 190.613281 549.878906 191.566406 550.15625 194.0625 C 550.640625 198.382812 550.746094 206.40625 550.34375 208.320312 C 550.152344 209.242188 550.171875 210.382812 550.398438 210.972656 C 550.613281 211.539062 550.871094 214.574219 550.972656 217.714844 C 551.121094 222.214844 551.027344 223.675781 550.542969 224.613281 C 550.117188 225.429688 550.007812 226.40625 550.1875 227.753906 C 550.347656 228.976562 550.1875 230.875 549.75 232.835938 C 549.097656 235.765625 549.097656 236.074219 549.761719 237.726562 C 550.300781 239.074219 550.390625 240.007812 550.144531 241.660156 C 549.96875 242.851562 549.851562 244.386719 549.890625 245.074219 C 549.929688 245.765625 550.027344 248.109375 550.109375 250.289062 L 550.253906 254.253906 L 556.453125 254.515625 C 562.132812 254.753906 565.992188 255.28125 567.105469 255.96875 C 567.34375 256.117188 568.785156 256.386719 570.308594 256.570312 C 571.828125 256.757812 574.761719 257.222656 576.824219 257.609375 C 580.457031 258.285156 585.078125 258.902344 589.273438 259.269531 C 590.390625 259.359375 591.558594 259.65625 591.867188 259.914062 C 592.210938 260.199219 593.066406 260.269531 594.070312 260.101562 C 595.242188 259.902344 596.105469 260.023438 597.078125 260.53125 C 597.828125 260.917969 599.582031 261.390625 600.972656 261.578125 C 602.363281 261.769531 604.628906 262.140625 606.003906 262.40625 C 607.378906 262.671875 609.347656 263.015625 610.382812 263.175781 C 612.683594 263.527344 613.296875 263.882812 613.296875 264.863281 C 613.296875 266.222656 612.117188 266.660156 606.9375 267.230469 C 604.128906 267.535156 600.933594 267.980469 599.832031 268.21875 C 598.71875 268.457031 596.300781 268.527344 594.386719 268.382812 C 591.972656 268.195312 590.652344 268.277344 589.964844 268.640625 C 589.429688 268.925781 587.753906 269.226562 586.242188 269.304688 C 584.730469 269.382812 582.425781 269.667969 581.121094 269.933594 C 579.816406 270.199219 577.570312 270.332031 576.125 270.226562 C 574.578125 270.109375 572.746094 270.265625 571.660156 270.59375 C 569.484375 271.25 566.546875 271.308594 564.566406 270.742188 C 563.414062 270.410156 562.578125 270.53125 560.085938 271.394531 C 557.71875 272.210938 556.382812 272.421875 554.210938 272.320312 L 551.398438 272.1875 L 551.335938 273.648438 C 551.296875 274.453125 551.03125 275.8125 550.746094 276.671875 C 550.332031 277.925781 550.335938 278.558594 550.773438 279.867188 C 551.132812 280.960938 551.203125 282.152344 550.980469 283.515625 C 550.796875 284.625 550.6875 288.164062 550.738281 291.375 C 550.789062 294.589844 550.632812 297.871094 550.390625 298.671875 C 550.050781 299.808594 550.101562 300.578125 550.625 302.15625 C 551.191406 303.867188 551.222656 304.554688 550.804688 306.542969 C 550.398438 308.476562 550.421875 309.320312 550.9375 311.273438 C 551.40625 313.054688 551.457031 314.035156 551.144531 315.175781 C 550.847656 316.242188 550.867188 317.300781 551.207031 318.722656 C 551.71875 320.855469 551.5 322.71875 550.503906 324.664062 C 549.980469 325.691406 549.992188 326.179688 550.597656 328.652344 C 551.136719 330.878906 551.222656 332.554688 551.011719 336.660156 C 550.664062 343.289062 550.542969 351.046875 550.726562 354.78125 C 550.804688 356.386719 550.734375 360.046875 550.5625 362.914062 C 550.394531 365.78125 550.230469 370.007812 550.199219 372.300781 C 550.171875 374.59375 549.808594 377.941406 549.402344 379.734375 C 548.773438 382.496094 548.738281 383.339844 549.15625 385.222656 C 549.570312 387.066406 549.535156 388.183594 548.949219 391.765625 C 548.453125 394.785156 548.347656 396.644531 548.597656 397.957031 C 548.929688 399.699219 548.917969 405.066406 548.558594 414.640625 C 548.421875 418.3125 547.992188 421.746094 547.027344 426.945312 C 546.796875 428.195312 546.789062 431.035156 547.003906 434.035156 C 547.277344 437.816406 547.234375 439.449219 546.828125 440.710938 C 546.027344 443.207031 545.691406 450.988281 546.289062 453.230469 C 546.683594 454.710938 546.675781 455.515625 546.25 457.082031 C 545.417969 460.171875 545.070312 466.859375 545.386719 473.664062 C 545.507812 476.28125 545.386719 477.296875 544.804688 478.378906 C 544.21875 479.472656 544.046875 480.90625 543.980469 485.265625 C 543.898438 490.304688 543.808594 490.890625 542.910156 492.152344 C 542.1875 493.167969 541.890625 494.242188 541.769531 496.253906 C 541.679688 497.753906 541.527344 499.113281 541.421875 499.277344 C 541.316406 499.445312 541.488281 500.320312 541.804688 501.222656 C 542.632812 503.617188 542.195312 511.390625 541.085938 514.027344 C 540.332031 515.824219 540.300781 516.257812 540.761719 518.4375 C 541.144531 520.234375 541.15625 521.273438 540.8125 522.496094 C 540.5625 523.398438 540.355469 525.230469 540.355469 526.570312 C 540.355469 528.375 540.019531 529.761719 539.058594 531.957031 C 537.703125 535.046875 537.707031 534.972656 538.515625 540.6875 C 538.738281 542.269531 538.539062 543.367188 537.488281 546.433594 C 536.199219 550.179688 536.1875 550.320312 536.1875 558.492188 C 536.1875 565.675781 536.082031 567.078125 535.351562 569.1875 C 534.894531 570.519531 534.515625 572.660156 534.515625 573.945312 C 534.515625 575.226562 534.160156 577.777344 533.730469 579.613281 C 533.300781 581.449219 532.824219 585.222656 532.671875 587.996094 C 532.410156 592.730469 531.160156 598.804688 530.003906 600.96875 C 529.746094 601.445312 529.667969 603.0625 529.804688 604.902344 C 530.003906 607.527344 529.898438 608.355469 529.15625 610.039062 C 528.636719 611.207031 528.261719 612.941406 528.253906 614.183594 C 528.242188 615.359375 527.96875 616.789062 527.640625 617.363281 C 527.3125 617.9375 527.039062 619.390625 527.03125 620.589844 C 527.023438 621.789062 526.746094 623.476562 526.414062 624.34375 C 525.429688 626.917969 524.515625 631.078125 524.519531 632.9375 C 524.519531 633.894531 524.070312 636.269531 523.515625 638.222656 C 522.960938 640.171875 522.273438 642.796875 521.992188 644.0625 C 521.710938 645.320312 521.023438 647.667969 520.464844 649.273438 C 519.90625 650.878906 519.296875 653.621094 519.109375 655.367188 C 518.921875 657.113281 518.558594 658.945312 518.292969 659.433594 C 518.003906 659.984375 517.921875 661.109375 518.085938 662.355469 C 518.289062 663.898438 518.164062 664.820312 517.539062 666.226562 C 517.089844 667.242188 516.589844 668.777344 516.429688 669.632812 C 516.269531 670.492188 515.542969 671.871094 514.8125 672.703125 C 513.5625 674.125 513.496094 674.371094 513.617188 677.035156 C 513.769531 680.320312 512.753906 683.179688 511.035156 684.308594 C 510.078125 684.933594 509.988281 685.242188 510.054688 687.578125 C 510.117188 689.773438 509.933594 690.46875 508.878906 692.242188 C 507.28125 694.914062 506.664062 696.515625 506.625 698.085938 C 506.585938 699.507812 505.390625 701.941406 503.621094 704.1875 C 502.699219 705.359375 502.425781 706.144531 502.425781 707.621094 C 502.425781 710.144531 501.472656 712.421875 499.726562 714.070312 C 498.566406 715.164062 498.179688 715.992188 497.597656 718.632812 C 496.941406 721.59375 496.707031 722.027344 494.722656 723.941406 C 492.960938 725.644531 492.507812 726.375 492.269531 727.90625 C 492.015625 729.527344 491.585938 730.148438 489.089844 732.503906 C 487.425781 734.074219 485.914062 735.929688 485.519531 736.886719 C 484.566406 739.199219 483.988281 739.753906 479.5 742.722656 C 477.320312 744.160156 474.789062 746.132812 473.871094 747.097656 C 472.957031 748.066406 471.644531 749.097656 470.953125 749.394531 C 469.148438 750.167969 460.019531 750.628906 458.464844 750.027344 C 457.78125 749.761719 455.84375 749.28125 454.15625 748.957031 C 452.472656 748.636719 450.496094 748.011719 449.769531 747.574219 C 449.042969 747.132812 447.785156 746.5625 446.972656 746.304688 C 445.964844 745.984375 443.558594 743.910156 439.335938 739.730469 C 433.230469 733.6875 431.699219 731.808594 430.851562 729.34375 C 430.613281 728.644531 429.304688 726.957031 427.945312 725.589844 C 425.15625 722.785156 423.644531 720.03125 423.644531 717.75 C 423.644531 715.652344 421.464844 711.40625 420 710.640625 C 419.367188 710.3125 418.433594 709.597656 417.921875 709.046875 C 416.683594 707.71875 415.332031 703.574219 415.320312 701.054688 C 415.3125 699.382812 415.078125 698.761719 414.007812 697.539062 C 412.628906 695.964844 411.558594 693.796875 411.558594 692.570312 C 411.558594 692.164062 411.101562 690.890625 410.546875 689.742188 C 408.207031 684.921875 407.34375 682.445312 406.78125 678.941406 C 406.378906 676.429688 405.917969 674.953125 405.355469 674.351562 C 403.6875 672.578125 399.855469 661.46875 399.902344 658.542969 C 399.910156 658.035156 400.453125 656.257812 401.109375 654.59375 L 402.300781 651.570312 L 400.363281 651.570312 C 399.300781 651.570312 397.277344 651.757812 395.871094 651.988281 C 394.464844 652.214844 391.464844 652.496094 389.203125 652.605469 C 386.941406 652.710938 383.496094 652.996094 381.546875 653.230469 C 368.84375 654.75 368.902344 654.742188 361.539062 655.0625 C 359.132812 655.167969 356.507812 655.457031 355.707031 655.703125 C 354.90625 655.949219 353.40625 656.171875 352.371094 656.195312 C 351.339844 656.222656 350.027344 656.371094 349.453125 656.53125 C 348.878906 656.695312 347.585938 656.652344 346.574219 656.441406 C 345.128906 656.136719 344.433594 656.203125 343.277344 656.753906 C 342.148438 657.292969 341.222656 657.390625 339.222656 657.175781 C 337.109375 656.949219 336.421875 657.039062 335.488281 657.648438 C 334.316406 658.417969 333.785156 658.472656 325.277344 658.679688 C 321.808594 658.773438 320.019531 659.003906 318.808594 659.539062 C 317.480469 660.121094 316.773438 660.195312 315.40625 659.886719 C 314.113281 659.597656 313.226562 659.660156 311.882812 660.132812 C 310.605469 660.582031 307.859375 660.8125 302.332031 660.921875 C 296.078125 661.054688 294.050781 661.242188 291.882812 661.910156 C 288.527344 662.945312 279.800781 663.320312 275.050781 662.628906 C 273.339844 662.382812 272.460938 662.511719 270.164062 663.386719 C 267.5 664.394531 267.007812 664.441406 260.367188 664.316406 C 256.523438 664.25 252.953125 664.34375 252.433594 664.539062 C 251.914062 664.734375 248.488281 665.097656 244.816406 665.351562 C 238.996094 665.753906 237.890625 665.726562 236.199219 665.152344 C 233.519531 664.238281 231.503906 664.324219 228.019531 665.503906 C 224.152344 666.8125 217.980469 667.242188 212.699219 666.578125 C 209.328125 666.152344 208.429688 666.175781 206.476562 666.734375 C 204.964844 667.167969 203.699219 667.28125 202.734375 667.070312 C 201.929688 666.890625 198.164062 666.902344 194.363281 667.097656 C 188.113281 667.40625 187.207031 667.363281 184.863281 666.632812 C 182.882812 666.015625 181.941406 665.917969 180.851562 666.21875 C 179.808594 666.507812 179.046875 666.449219 177.976562 666.003906 C 176.792969 665.507812 176.4375 665.496094 176.078125 665.9375 C 175.601562 666.511719 174.714844 671.664062 174.671875 674.097656 C 174.632812 676.71875 175.523438 681.839844 176.285156 683.300781 C 176.703125 684.113281 177.164062 686.273438 177.34375 688.277344 C 178.273438 698.71875 178.527344 700 180.03125 701.757812 C 180.976562 702.863281 181.53125 704.023438 181.722656 705.292969 C 181.878906 706.332031 182.4375 707.816406 182.964844 708.59375 C 183.492188 709.375 184.148438 710.703125 184.429688 711.554688 C 185.234375 714.023438 187.3125 717.550781 189.023438 719.355469 C 191.214844 721.664062 194.773438 727.730469 195.085938 729.683594 C 195.367188 731.445312 196.992188 733.652344 200.230469 736.675781 C 201.351562 737.722656 202.386719 739.117188 202.550781 739.804688 C 202.714844 740.488281 203.625 741.796875 204.566406 742.714844 C 207.566406 745.632812 208.640625 747.304688 208.492188 748.839844 C 208.386719 749.972656 208.171875 750.238281 207.316406 750.300781 C 206.742188 750.339844 205.335938 749.9375 204.191406 749.398438 Z M 599.808594 740.574219 C 599.664062 740.429688 598.652344 740.332031 597.554688 740.351562 C 595.257812 740.40625 592.429688 739.65625 592.152344 738.929688 C 591.953125 738.410156 594.703125 732.683594 595.34375 732.289062 C 595.542969 732.171875 596.019531 730.988281 596.398438 729.671875 C 597.308594 726.5 600.855469 722.875 603.761719 722.144531 C 605.261719 721.765625 606.058594 721.210938 607.394531 719.613281 C 608.335938 718.488281 609.902344 717.183594 610.875 716.710938 C 613.257812 715.558594 616.414062 712.402344 617.390625 710.191406 C 617.921875 708.988281 618.925781 707.84375 620.417969 706.742188 C 623.210938 704.675781 623.425781 704.402344 624.277344 701.785156 C 624.753906 700.320312 625.949219 698.511719 628.101562 695.996094 C 629.824219 693.984375 631.625 691.566406 632.101562 690.621094 C 632.582031 689.675781 633.601562 688.199219 634.375 687.339844 C 635.148438 686.476562 635.777344 685.589844 635.777344 685.363281 C 635.777344 685.136719 636.503906 684.472656 637.386719 683.890625 C 638.269531 683.304688 639.199219 682.371094 639.453125 681.820312 C 639.703125 681.269531 640.578125 680.074219 641.398438 679.164062 C 642.21875 678.257812 643.34375 676.652344 643.90625 675.597656 C 644.464844 674.542969 645.882812 672.414062 647.050781 670.863281 C 650.480469 666.324219 650.277344 666.511719 651.207031 667.007812 C 652.515625 667.710938 652.203125 671.566406 650.539062 675.21875 C 650.15625 676.0625 650.027344 677.136719 650.183594 678.140625 C 650.324219 679.046875 650.210938 680.265625 649.917969 680.980469 C 648.769531 683.773438 647.890625 686.449219 647.867188 687.234375 C 647.851562 687.695312 647.378906 689.007812 646.8125 690.15625 C 646.25 691.300781 645.789062 692.496094 645.785156 692.808594 C 645.785156 693.121094 645.414062 694.0625 644.964844 694.894531 C 643.445312 697.714844 642.863281 699.632812 642.863281 701.804688 C 642.863281 703.472656 642.585938 704.402344 641.652344 705.875 C 640.988281 706.925781 640.214844 707.925781 639.9375 708.09375 C 639.660156 708.269531 638.972656 709.453125 638.40625 710.734375 C 637.839844 712.015625 636.773438 713.632812 636.035156 714.332031 C 635.296875 715.03125 633.6875 717.101562 632.464844 718.9375 C 628.617188 724.703125 627.660156 725.695312 625.019531 726.660156 C 623.378906 727.257812 622.367188 727.929688 621.800781 728.792969 C 621.351562 729.484375 620.207031 730.507812 619.265625 731.070312 C 618.320312 731.632812 617.046875 732.886719 616.429688 733.863281 C 614.976562 736.160156 613.050781 737.453125 610.464844 737.863281 C 609.324219 738.042969 607.753906 738.582031 606.972656 739.058594 C 606.195312 739.539062 604.445312 740.132812 603.085938 740.382812 C 600.1875 740.914062 600.148438 740.917969 599.808594 740.574219 Z M 529.28125 732.613281 C 523.910156 732.253906 521.914062 731.332031 522.609375 729.527344 C 522.835938 728.941406 529.136719 724.984375 529.84375 724.984375 C 530.054688 724.984375 531.421875 724.171875 532.878906 723.179688 C 534.339844 722.183594 536.566406 720.890625 537.824219 720.300781 C 540.367188 719.117188 543.082031 716.699219 544.148438 714.679688 C 544.527344 713.953125 545.5625 712.902344 546.441406 712.34375 C 547.320312 711.785156 549.710938 709.425781 551.753906 707.105469 C 553.796875 704.785156 555.90625 702.597656 556.441406 702.246094 C 556.976562 701.894531 557.417969 701.34375 557.417969 701.015625 C 557.417969 700.691406 558.140625 699.589844 559.023438 698.566406 C 560.03125 697.402344 560.726562 696.109375 560.890625 695.101562 C 561.058594 694.070312 561.820312 692.675781 563.019531 691.21875 C 564.046875 689.96875 565.003906 688.429688 565.140625 687.800781 C 565.277344 687.167969 565.960938 685.941406 566.65625 685.066406 C 567.351562 684.195312 568.261719 682.8125 568.679688 681.992188 C 569.101562 681.175781 569.734375 680.261719 570.09375 679.964844 C 571.351562 678.921875 574.503906 671.679688 574.515625 669.8125 C 574.523438 668.84375 574.894531 667.230469 575.347656 666.230469 C 575.800781 665.230469 576.171875 663.9375 576.171875 663.363281 C 576.171875 662.785156 576.625 661.257812 577.171875 659.964844 C 578.457031 656.949219 579.769531 652.8125 580.367188 649.902344 C 580.625 648.640625 581.273438 646.929688 581.808594 646.097656 C 583.5 643.476562 584.925781 637.984375 584.9375 634.03125 C 584.949219 631.535156 585.203125 629.835938 585.804688 628.210938 C 587.253906 624.300781 587.886719 621.886719 588.46875 617.992188 C 588.777344 615.925781 589.433594 612.078125 589.925781 609.441406 C 590.417969 606.800781 590.871094 602.859375 590.929688 600.679688 C 591.007812 597.6875 591.269531 596.15625 591.988281 594.425781 C 592.714844 592.671875 593.011719 590.890625 593.238281 586.882812 C 593.40625 584 593.703125 581.375 593.898438 581.058594 C 594.097656 580.738281 594.378906 579.0625 594.527344 577.335938 C 594.863281 573.417969 595.550781 570.625 596.84375 567.929688 C 597.398438 566.777344 597.847656 565.558594 597.851562 565.21875 C 597.851562 564.878906 598.226562 563.984375 598.683594 563.234375 C 599.140625 562.480469 599.515625 561.507812 599.515625 561.066406 C 599.515625 560.203125 601.910156 558.132812 602.910156 558.132812 C 603.789062 558.132812 604.515625 558.996094 604.515625 560.039062 C 604.515625 560.535156 604.863281 561.390625 605.28125 561.9375 C 606.175781 563.09375 607.679688 565.921875 609.570312 569.992188 C 610.847656 572.742188 610.890625 572.988281 610.4375 575.132812 C 610.085938 576.824219 610.085938 577.910156 610.449219 579.46875 C 610.8125 581.058594 610.8125 581.992188 610.433594 583.40625 C 610.164062 584.425781 609.941406 586.507812 609.941406 588.035156 C 609.941406 590.09375 609.589844 591.808594 608.59375 594.664062 L 607.246094 598.511719 L 607.96875 600.535156 C 608.367188 601.648438 608.691406 603.160156 608.691406 603.898438 C 608.691406 605.445312 607.367188 611.308594 606.421875 613.976562 C 606.0625 614.980469 605.773438 616.3125 605.773438 616.9375 C 605.773438 617.5625 605.273438 618.996094 604.660156 620.121094 C 603.707031 621.878906 603.5625 622.605469 603.625 625.355469 C 603.664062 627.109375 603.519531 629.03125 603.289062 629.625 C 603.0625 630.21875 602.679688 632.308594 602.4375 634.269531 C 602.191406 636.230469 601.742188 638.4375 601.429688 639.175781 C 600.320312 641.816406 599.039062 646.636719 599.28125 647.265625 C 599.710938 648.386719 598.246094 654.984375 596.769531 658.5625 C 595.988281 660.457031 595.351562 662.394531 595.351562 662.867188 C 595.351562 663.964844 594.679688 665.257812 593.402344 666.632812 C 592.679688 667.410156 592.277344 668.5 592.007812 670.410156 C 591.554688 673.59375 589.925781 677.480469 588.230469 679.410156 C 586.855469 680.980469 586.890625 680.855469 586.828125 684.523438 C 586.789062 686.757812 586.550781 687.640625 585.464844 689.539062 C 584.738281 690.804688 583.644531 692.308594 583.03125 692.875 C 581.261719 694.523438 579.21875 698.003906 578.890625 699.925781 C 578.574219 701.808594 576.714844 704.320312 575.308594 704.765625 C 574.859375 704.910156 573.945312 706.109375 573.277344 707.433594 C 572.476562 709.019531 571.191406 710.59375 569.507812 712.054688 C 567.835938 713.503906 566.539062 715.089844 565.753906 716.652344 C 564.550781 719.03125 562.730469 720.945312 561.203125 721.429688 C 560.761719 721.570312 560.039062 722.296875 559.597656 723.042969 C 559.160156 723.789062 558.199219 724.859375 557.46875 725.421875 C 556.738281 725.984375 555.210938 727.234375 554.078125 728.199219 C 552.066406 729.910156 551.484375 730.117188 547.359375 730.578125 C 546.300781 730.699219 544.796875 731.15625 544.027344 731.597656 C 542.890625 732.246094 541.554688 732.429688 536.996094 732.574219 C 533.902344 732.667969 530.429688 732.691406 529.285156 732.613281 Z M 344.601562 609.066406 C 339.765625 608.585938 335.773438 605.667969 334.617188 601.765625 C 333.707031 598.695312 333.824219 596.070312 334.945312 594.382812 C 336.542969 591.984375 338.105469 591.507812 345.105469 591.285156 C 348.511719 591.179688 352.332031 590.980469 353.59375 590.84375 C 355.574219 590.632812 356.167969 590.753906 357.96875 591.734375 C 359.921875 592.796875 360.347656 592.867188 364.726562 592.785156 C 368.097656 592.722656 369.78125 592.878906 370.769531 593.316406 C 371.523438 593.65625 373.65625 594.023438 375.511719 594.132812 C 377.878906 594.277344 379.554688 594.644531 381.140625 595.367188 C 383.035156 596.234375 384.523438 596.484375 390.480469 596.917969 C 396.277344 597.34375 397.824219 597.59375 398.976562 598.292969 C 400.03125 598.933594 401.179688 599.164062 403.5625 599.214844 C 405.308594 599.253906 407.566406 599.585938 408.582031 599.957031 C 409.601562 600.332031 410.578125 600.546875 410.753906 600.4375 C 410.929688 600.332031 412.351562 600.445312 413.910156 600.699219 C 416.460938 601.113281 417.738281 601.394531 420.558594 602.140625 C 422.109375 602.554688 422.25 604.476562 420.769531 605.066406 C 419.871094 605.421875 411.222656 606.082031 404.027344 606.339844 C 400.929688 606.445312 397.273438 606.707031 395.898438 606.910156 C 394.523438 607.109375 391.335938 607.226562 388.8125 607.164062 C 385.238281 607.070312 383.703125 607.214844 381.84375 607.828125 C 378.59375 608.886719 369.335938 608.945312 367.183594 607.917969 C 365.824219 607.269531 365.652344 607.277344 364.148438 608.023438 C 362.894531 608.644531 361.476562 608.839844 357.550781 608.921875 C 354.800781 608.972656 351.425781 609.101562 350.046875 609.195312 C 348.671875 609.285156 346.21875 609.234375 344.597656 609.074219 Z M 365.925781 563.660156 C 365.609375 563.347656 356.628906 562.804688 347.757812 562.566406 C 340.679688 562.378906 337.125 560.976562 335.828125 557.867188 C 334.089844 553.707031 335.878906 550.980469 342.660156 547.464844 L 346.523438 545.457031 L 348.703125 545.992188 C 352.839844 547.003906 354.988281 547.015625 357.6875 546.03125 C 360.398438 545.042969 359.867188 545.03125 370.058594 546.277344 C 373.265625 546.667969 377.207031 547.023438 378.808594 547.070312 C 380.414062 547.109375 382.25 547.371094 382.886719 547.632812 C 383.761719 547.996094 384.488281 547.996094 385.835938 547.632812 C 387.367188 547.222656 387.832031 547.261719 389.054688 547.90625 C 390.992188 548.929688 395.449219 549.417969 397.621094 548.847656 C 399.113281 548.453125 399.636719 548.519531 401.539062 549.339844 C 402.90625 549.929688 404.171875 550.199219 404.882812 550.058594 C 405.515625 549.925781 408.15625 550.019531 410.757812 550.246094 C 413.363281 550.476562 417 550.722656 418.847656 550.792969 C 420.691406 550.859375 422.617188 551.144531 423.125 551.417969 C 423.632812 551.691406 424.84375 551.890625 425.8125 551.863281 C 428.285156 551.796875 438.640625 552.996094 440 553.511719 C 441.21875 553.976562 441.5 555.214844 440.566406 555.992188 C 439.921875 556.527344 438.734375 556.695312 431.375 557.285156 C 428.417969 557.519531 425.257812 557.914062 424.347656 558.160156 C 423.4375 558.40625 422.007812 558.558594 421.175781 558.503906 C 420.339844 558.449219 419.003906 558.609375 418.199219 558.875 C 416.738281 559.351562 414.917969 559.46875 409.863281 559.402344 C 408.28125 559.375 406.398438 559.652344 405.34375 560.050781 C 404.179688 560.488281 402.855469 560.65625 401.640625 560.519531 C 400.453125 560.386719 399.195312 560.535156 398.269531 560.925781 C 397.15625 561.390625 395.996094 561.472656 393.578125 561.257812 C 391.324219 561.058594 390.074219 561.125 389.398438 561.492188 C 388.789062 561.816406 386.320312 562.042969 382.785156 562.101562 C 379.683594 562.152344 376.394531 562.390625 375.476562 562.632812 C 370.730469 563.890625 366.597656 564.335938 365.925781 563.660156 Z M 360.46875 509.253906 C 359.554688 509.023438 357.675781 508.46875 356.300781 508.023438 C 354.925781 507.574219 352.675781 506.917969 351.300781 506.558594 C 349.925781 506.199219 348.332031 505.652344 347.757812 505.335938 C 347.183594 505.019531 345.917969 504.390625 344.945312 503.933594 C 343.933594 503.460938 343.171875 502.8125 343.171875 502.429688 C 343.171875 501.394531 345.480469 499.320312 346.632812 499.320312 C 347.195312 499.320312 347.871094 499.058594 348.136719 498.738281 C 348.609375 498.167969 349.207031 497.898438 353.382812 496.375 C 357.339844 494.933594 359.949219 494.265625 365.445312 493.28125 C 370.527344 492.375 371.191406 492.339844 373.84375 492.859375 C 380.929688 494.246094 382.777344 494.496094 386.105469 494.519531 C 388.171875 494.53125 390.046875 494.765625 390.605469 495.078125 C 391.15625 495.386719 392.75 495.589844 394.355469 495.558594 C 399.085938 495.464844 411.042969 496.351562 414.316406 497.042969 C 415.445312 497.28125 415.996094 498.796875 415.21875 499.523438 C 414.609375 500.097656 409.324219 501.28125 404.664062 501.894531 C 403.066406 502.101562 401.460938 502.546875 401.089844 502.882812 C 400.660156 503.273438 399.527344 503.492188 397.941406 503.492188 C 396.308594 503.492188 395.125 503.726562 394.476562 504.179688 C 393.9375 504.558594 392.796875 504.917969 391.941406 504.976562 C 391.085938 505.042969 389.75 505.261719 388.976562 505.472656 C 388.199219 505.683594 386.890625 505.777344 386.0625 505.679688 C 385.238281 505.574219 383.730469 505.785156 382.710938 506.128906 C 381.691406 506.476562 379.457031 506.894531 377.75 507.058594 C 376.039062 507.222656 374.078125 507.640625 373.390625 507.992188 C 371.089844 509.160156 363.171875 509.933594 360.46875 509.257812 Z M 473.636719 506.535156 C 472.835938 506.46875 470.773438 506.195312 469.0625 505.921875 C 465.71875 505.390625 464.050781 504.304688 464.050781 502.664062 C 464.050781 501.652344 464.914062 501.226562 468.632812 500.410156 C 471.511719 499.777344 478.976562 499.859375 480.238281 500.527344 C 480.621094 500.730469 481.867188 501.035156 483.015625 501.203125 C 488.535156 502.007812 490.414062 504.574219 486.574219 506.066406 C 485.5625 506.460938 476.703125 506.777344 473.636719 506.527344 Z M 350.726562 465.496094 C 347.410156 464.789062 345.527344 461.976562 345.066406 457.035156 C 344.730469 453.445312 345.160156 452.253906 347.535156 450.164062 C 349.667969 448.289062 349.800781 448.269531 359.53125 448.382812 C 361.1875 448.394531 363.449219 448.410156 370.890625 448.410156 C 373.414062 448.410156 376.695312 448.1875 378.183594 447.914062 C 382.4375 447.132812 384.484375 447.242188 385.859375 448.328125 C 387.269531 449.4375 388.414062 449.5 390.675781 448.59375 C 392.390625 447.910156 392.832031 447.921875 399.027344 448.882812 C 400.746094 449.148438 404.871094 449.433594 408.195312 449.515625 C 419.507812 449.792969 422.570312 449.972656 427.53125 450.667969 C 430.253906 451.046875 434.15625 451.328125 436.199219 451.292969 C 440.390625 451.210938 441.09375 451.546875 440.476562 453.296875 C 439.941406 454.804688 437.21875 455.441406 421.949219 457.636719 C 414.648438 458.683594 412.558594 459.054688 409.03125 459.914062 C 407.539062 460.28125 404.539062 460.804688 402.359375 461.082031 C 400.183594 461.359375 398.027344 461.792969 397.566406 462.042969 C 396.371094 462.703125 394.269531 463.011719 390.6875 463.0625 C 388.96875 463.089844 386.550781 463.390625 385.3125 463.742188 C 383.664062 464.207031 382.1875 464.300781 379.816406 464.09375 C 377.230469 463.867188 376.3125 463.949219 375.265625 464.488281 C 374.378906 464.949219 372.980469 465.15625 370.964844 465.125 C 369.316406 465.097656 366.097656 465.191406 363.804688 465.3125 C 355.984375 465.742188 352.132812 465.796875 350.726562 465.496094 Z M 481.554688 459.269531 C 480.753906 459.09375 479.160156 458.730469 478.011719 458.464844 C 476.867188 458.203125 474.992188 457.875 473.84375 457.742188 C 472.699219 457.609375 471.523438 457.3125 471.234375 457.078125 C 470.945312 456.847656 470.132812 456.59375 469.429688 456.511719 C 467.660156 456.304688 467.382812 456.0625 467.382812 454.710938 C 467.382812 452.957031 467.832031 452.71875 472.953125 451.761719 C 474.066406 451.550781 475.6875 451.015625 476.550781 450.5625 C 477.964844 449.828125 478.792969 449.757812 484.753906 449.898438 C 488.398438 449.976562 492.21875 450.261719 493.242188 450.519531 C 494.265625 450.777344 495.945312 451.144531 496.976562 451.335938 C 499.503906 451.804688 502.425781 452.964844 503.414062 453.894531 C 504.183594 454.621094 504.1875 454.691406 503.492188 455.464844 C 502.703125 456.332031 499.984375 457.417969 497.015625 458.046875 C 496.003906 458.261719 494.183594 458.75 492.96875 459.132812 C 491.121094 459.71875 490.488281 459.746094 489.082031 459.328125 C 487.890625 458.972656 487.160156 458.949219 486.589844 459.261719 C 485.679688 459.75 483.722656 459.753906 481.558594 459.273438 Z M 355.949219 424.527344 C 353.902344 423.730469 352.59375 422.910156 351.78125 421.921875 C 351.128906 421.128906 350.34375 420.480469 350.039062 420.480469 C 349.121094 420.480469 347.757812 418.371094 347.757812 416.953125 C 347.757812 415.535156 348.128906 415.070312 351.09375 412.769531 C 353.125 411.191406 354.242188 410.605469 357.761719 409.289062 C 359.8125 408.523438 360.710938 408.453125 366.304688 408.636719 C 372.90625 408.851562 380.652344 409.042969 394.023438 409.316406 C 399.167969 409.421875 402.488281 409.667969 403.0625 409.980469 C 403.5625 410.25 405.164062 410.472656 406.625 410.472656 C 410.738281 410.472656 423.609375 411.691406 424.496094 412.164062 C 425.503906 412.703125 425.515625 414.074219 424.519531 414.609375 C 423.558594 415.125 416.347656 416.777344 414.664062 416.871094 C 413.976562 416.910156 413.207031 417.070312 412.957031 417.230469 C 412.359375 417.625 409.34375 418.378906 406.679688 418.804688 C 405.496094 418.992188 403.875 419.386719 403.074219 419.675781 C 401.914062 420.09375 401.367188 420.097656 400.378906 419.6875 C 399.304688 419.242188 398.917969 419.289062 397.527344 420.035156 C 396.640625 420.511719 395.617188 420.898438 395.246094 420.898438 C 394.878906 420.898438 393.46875 421.289062 392.113281 421.765625 C 390.226562 422.429688 389.082031 422.574219 387.191406 422.390625 C 385.613281 422.238281 383.964844 422.363281 382.605469 422.746094 C 381.4375 423.074219 379.171875 423.570312 377.566406 423.851562 C 375.960938 424.128906 373.898438 424.632812 372.980469 424.96875 C 371.832031 425.390625 369.390625 425.597656 365.125 425.636719 C 359.265625 425.691406 358.777344 425.636719 355.953125 424.53125 Z M 481.140625 419.007812 C 479.648438 418.664062 476.808594 418.007812 474.832031 417.546875 C 472.851562 417.085938 470.414062 416.277344 469.414062 415.75 C 467.917969 414.960938 467.570312 414.550781 467.460938 413.453125 C 467.34375 412.253906 467.488281 412.050781 468.917969 411.449219 C 469.792969 411.085938 471.261719 410.683594 472.175781 410.5625 C 473.09375 410.445312 474.226562 410.089844 474.699219 409.785156 C 475.746094 409.105469 481.730469 408.234375 483.0625 408.566406 C 483.59375 408.703125 484.789062 408.644531 485.710938 408.433594 C 486.636719 408.222656 488.074219 408.207031 488.910156 408.394531 C 489.746094 408.582031 492.980469 408.78125 496.101562 408.839844 C 499.238281 408.890625 502.515625 409.175781 503.4375 409.472656 C 504.355469 409.761719 506.230469 410.222656 507.605469 410.488281 C 513.210938 411.574219 516.128906 413.003906 515.59375 414.398438 C 515.285156 415.203125 513.621094 415.886719 511.980469 415.886719 C 511.320312 415.886719 510.671875 416.066406 510.539062 416.28125 C 510.40625 416.496094 509.410156 416.796875 508.328125 416.945312 C 507.242188 417.097656 505.417969 417.507812 504.273438 417.859375 C 502.210938 418.492188 497.324219 418.96875 488.433594 419.402344 C 485.148438 419.5625 483.078125 419.457031 481.140625 419.003906 Z M 477.734375 386.066406 C 477.613281 385.949219 476.09375 385.675781 474.34375 385.453125 C 469.261719 384.808594 464.882812 381.90625 464.882812 379.179688 C 464.882812 377.578125 465.964844 374.6875 467.144531 373.140625 C 468.269531 371.664062 474.632812 368.367188 476.980469 368.042969 C 477.917969 367.910156 479.574219 368.214844 481.566406 368.886719 C 484.261719 369.792969 485.609375 369.957031 491.589844 370.109375 C 495.386719 370.199219 498.761719 370.457031 499.089844 370.667969 C 499.417969 370.878906 501 371.0625 502.605469 371.078125 C 505.242188 371.105469 507.117188 371.371094 515.640625 372.953125 C 520.1875 373.796875 519.808594 376.171875 514.902344 377.582031 C 509.035156 379.269531 506.34375 379.898438 501.867188 380.621094 C 499.832031 380.949219 497.597656 381.59375 496.816406 382.078125 C 495.796875 382.707031 494.722656 382.941406 492.824219 382.941406 C 490.878906 382.941406 489.929688 383.152344 489.03125 383.792969 C 488.371094 384.265625 486.84375 384.8125 485.632812 385.011719 C 484.421875 385.210938 482.902344 385.578125 482.257812 385.824219 C 481.058594 386.289062 478.113281 386.445312 477.734375 386.066406 Z M 368.613281 383.289062 C 367.113281 382.585938 366.265625 382.464844 364.191406 382.65625 C 362.097656 382.851562 361.339844 382.734375 360.035156 382.039062 C 359.09375 381.535156 357.402344 381.121094 355.910156 381.03125 C 352.128906 380.800781 348.046875 379.375 347.261719 378.007812 C 346.90625 377.394531 346.703125 376.652344 346.808594 376.359375 C 347.144531 375.425781 349.136719 374.691406 352.132812 374.402344 C 353.738281 374.246094 356.738281 373.59375 358.804688 372.949219 C 366.578125 370.535156 370.351562 370.027344 373.003906 371.039062 C 374.042969 371.4375 375.214844 371.664062 375.601562 371.539062 C 375.992188 371.421875 377.105469 371.023438 378.078125 370.664062 C 379.773438 370.042969 379.980469 370.0625 383.078125 371.109375 C 385.519531 371.933594 387.285156 372.226562 390.273438 372.296875 C 392.449219 372.347656 394.78125 372.613281 395.449219 372.886719 C 396.121094 373.15625 396.890625 373.296875 397.160156 373.191406 C 397.429688 373.085938 399.019531 373.257812 400.6875 373.582031 C 402.359375 373.898438 403.894531 374.054688 404.101562 373.925781 C 404.507812 373.675781 411.957031 374.90625 413.511719 375.480469 C 414.132812 375.714844 414.449219 376.171875 414.449219 376.855469 C 414.449219 377.957031 414.140625 378.113281 411.113281 378.578125 C 410.082031 378.738281 408.75 379.117188 408.152344 379.421875 C 407.558594 379.726562 406.710938 379.960938 406.277344 379.9375 C 405.839844 379.914062 404.359375 380.132812 402.984375 380.421875 C 400.15625 381.011719 397.199219 381.332031 384.4375 382.445312 C 379.507812 382.875 374.945312 383.441406 374.300781 383.707031 C 372.585938 384.414062 370.722656 384.277344 368.613281 383.289062 Z M 365.472656 349.984375 C 365.015625 349.789062 363.636719 349.613281 362.410156 349.597656 C 359.773438 349.558594 355.914062 348.523438 354.363281 347.429688 C 353.746094 346.996094 352.546875 346.648438 351.652344 346.648438 C 350.773438 346.648438 349.394531 346.28125 348.589844 345.835938 C 347.789062 345.386719 345.953125 344.441406 344.507812 343.738281 C 343.066406 343.03125 341.769531 342.152344 341.628906 341.785156 C 341.339844 341.03125 341.878906 339.976562 342.785156 339.519531 C 345.425781 338.1875 348.746094 337.054688 350.023438 337.054688 C 351.082031 337.054688 352.035156 336.683594 353.097656 335.855469 C 355.875 333.6875 360.359375 332.726562 363.007812 333.734375 C 363.910156 334.078125 364.777344 333.949219 367.308594 333.109375 C 370.023438 332.203125 371.195312 332.054688 375.476562 332.078125 C 380.679688 332.105469 386.339844 332.582031 390.273438 333.320312 C 393.75 333.976562 401.855469 334.191406 403.753906 333.679688 C 404.945312 333.359375 405.898438 333.363281 407.121094 333.691406 C 408.054688 333.941406 411.539062 334.210938 414.863281 334.292969 C 422.585938 334.484375 440.539062 335.652344 441.109375 336.003906 C 441.804688 336.4375 441.605469 338.246094 440.8125 338.671875 C 440.410156 338.886719 438.582031 339.261719 436.75 339.511719 C 434.914062 339.757812 432.570312 340.164062 431.539062 340.410156 C 429.46875 340.910156 427.082031 341.285156 419.78125 342.257812 C 417.097656 342.613281 414.410156 343.09375 413.8125 343.320312 C 413.214844 343.546875 411.71875 343.734375 410.488281 343.734375 C 409.257812 343.734375 407.722656 343.953125 407.078125 344.222656 C 406.429688 344.492188 404.402344 344.746094 402.570312 344.789062 C 400.265625 344.839844 398.460938 345.15625 396.734375 345.8125 C 395.277344 346.363281 392.664062 346.886719 390.480469 347.066406 C 388.417969 347.238281 385.699219 347.679688 384.4375 348.054688 C 383.027344 348.46875 380.542969 348.734375 377.976562 348.746094 C 374.960938 348.761719 373.175781 348.988281 371.515625 349.570312 C 369.089844 350.425781 366.847656 350.582031 365.472656 349.988281 Z M 477.804688 341.246094 C 474.121094 340.738281 471.136719 339.640625 471.136719 338.792969 C 471.136719 338.386719 471.890625 337.320312 472.8125 336.421875 C 474.085938 335.175781 474.859375 334.761719 476.042969 334.699219 C 477.988281 334.59375 480.671875 334 481.765625 333.433594 C 484.457031 332.042969 493.988281 331.773438 499 332.945312 C 502.457031 333.75 503.71875 334.457031 503.570312 335.496094 C 503.464844 336.199219 502.519531 336.902344 499.6875 338.355469 C 495.792969 340.355469 493.964844 340.726562 486.765625 340.96875 C 485.390625 341.019531 483.328125 341.167969 482.179688 341.304688 C 481.035156 341.445312 479.066406 341.410156 477.804688 341.238281 Z M 374.773438 284.945312 C 374.171875 284.46875 373.386719 284.078125 373.035156 284.078125 C 372.679688 284.078125 371.429688 283.875 370.257812 283.621094 C 368.65625 283.277344 368.011719 282.914062 367.667969 282.15625 C 367.28125 281.308594 367.359375 280.988281 368.179688 280.121094 C 368.710938 279.550781 369.539062 278.964844 370.015625 278.8125 C 370.492188 278.660156 371.550781 278.09375 372.375 277.546875 C 373.460938 276.828125 374.382812 276.578125 375.753906 276.628906 C 376.789062 276.667969 377.84375 276.578125 378.097656 276.414062 C 378.351562 276.257812 380.304688 276.335938 382.4375 276.574219 C 385.492188 276.921875 386.964844 277.339844 389.378906 278.542969 C 392.660156 280.171875 393.082031 280.636719 392.40625 281.898438 C 391.714844 283.199219 385.707031 284.996094 381.519531 285.15625 C 379.570312 285.234375 377.503906 285.410156 376.925781 285.550781 C 376.203125 285.726562 375.53125 285.539062 374.777344 284.941406 Z M 308.445312 263.328125 C 308.355469 263.15625 308.316406 261.886719 308.382812 260.511719 C 308.445312 259.136719 308.621094 254.816406 308.773438 250.917969 C 308.960938 246.105469 309.25 243.347656 309.675781 242.332031 C 310.167969 241.164062 310.214844 240.359375 309.902344 238.636719 C 309.597656 236.960938 309.652344 235.871094 310.128906 234.082031 C 310.800781 231.5625 310.859375 230.257812 310.425781 227.4375 C 310.210938 226.066406 310.371094 225.148438 311.085938 223.476562 C 311.835938 221.742188 312.011719 220.601562 311.960938 217.847656 C 311.921875 215.339844 312.09375 214.023438 312.59375 213.046875 C 312.976562 212.308594 313.421875 210.347656 313.585938 208.683594 C 313.804688 206.425781 314.167969 205.222656 315.015625 203.941406 C 315.695312 202.914062 316.289062 201.277344 316.488281 199.875 C 316.679688 198.523438 317.636719 195.816406 318.742188 193.503906 C 319.875 191.128906 320.660156 188.894531 320.660156 188.042969 C 320.660156 185.679688 321.738281 182.8125 323.746094 179.8125 C 325.878906 176.632812 326.386719 175.476562 326.945312 172.527344 C 327.160156 171.398438 327.886719 169.617188 328.558594 168.566406 C 329.230469 167.515625 330.464844 165.25 331.308594 163.527344 C 332.148438 161.808594 333.277344 159.8125 333.816406 159.097656 C 334.351562 158.382812 335.023438 156.878906 335.304688 155.761719 C 335.710938 154.152344 336.351562 153.203125 338.402344 151.179688 C 341.046875 148.574219 341.222656 148.265625 341.707031 145.410156 C 341.894531 144.300781 342.515625 143.21875 343.625 142.074219 C 345.683594 139.949219 348.585938 135.980469 348.585938 135.292969 C 348.585938 134.453125 350.980469 131.972656 352.332031 131.410156 C 353.019531 131.125 354.21875 130.003906 355 128.917969 C 356.417969 126.941406 360.878906 123.636719 363.746094 122.4375 C 364.570312 122.09375 365.515625 121.277344 365.855469 120.625 C 366.761719 118.871094 369.21875 116.878906 370.773438 116.640625 C 371.523438 116.523438 372.792969 116.324219 373.597656 116.199219 C 378.136719 115.484375 378.574219 115.476562 380.328125 116.144531 C 381.820312 116.710938 382.695312 116.765625 385.265625 116.445312 C 386.988281 116.230469 389.273438 115.714844 390.347656 115.296875 C 392.109375 114.613281 392.539062 114.597656 394.722656 115.109375 C 399.199219 116.15625 401.058594 116.164062 402.433594 115.148438 C 403.511719 114.351562 404.152344 114.242188 407.492188 114.300781 C 409.597656 114.339844 413.101562 114.148438 415.277344 113.882812 C 419.796875 113.332031 427.191406 113.21875 433.691406 113.605469 C 437.148438 113.8125 438.46875 113.738281 439.617188 113.253906 C 441.554688 112.445312 444.355469 112.472656 445.914062 113.320312 C 449.394531 115.210938 449.199219 115.167969 451.371094 114.550781 C 454.585938 113.640625 467.519531 113.371094 471.195312 114.136719 C 472.832031 114.476562 474.53125 114.949219 474.964844 115.179688 C 475.511719 115.472656 476.480469 115.453125 478.070312 115.128906 C 481.332031 114.449219 487.5625 114.546875 490.484375 115.316406 C 491.84375 115.675781 494.09375 115.949219 495.484375 115.917969 C 504.753906 115.738281 511.109375 115.894531 512.398438 116.320312 C 513.28125 116.613281 518.15625 116.894531 524.695312 117.03125 C 530.65625 117.148438 537.125 117.367188 539.074219 117.507812 C 541.023438 117.648438 543.519531 117.738281 544.625 117.707031 C 545.730469 117.679688 546.972656 117.824219 547.386719 118.050781 C 547.796875 118.269531 550.738281 118.550781 553.921875 118.675781 C 557.101562 118.792969 561.769531 119.074219 564.289062 119.292969 C 566.8125 119.511719 569.4375 119.703125 570.125 119.71875 L 571.378906 119.746094 L 570.335938 120.546875 C 567.800781 122.496094 562.820312 123.628906 554.703125 124.101562 C 552.414062 124.234375 549.597656 124.527344 548.453125 124.753906 C 547.304688 124.984375 544.304688 125.253906 541.785156 125.359375 C 535.3125 125.628906 529.355469 126.175781 528.746094 126.554688 C 528.457031 126.730469 527.1875 126.65625 525.917969 126.394531 C 524.128906 126.023438 523.3125 126.03125 522.277344 126.433594 C 521.5 126.734375 518.570312 126.992188 515.277344 127.042969 C 511.933594 127.097656 509.238281 127.335938 508.703125 127.621094 C 507.824219 128.089844 501.039062 128.417969 486.761719 128.675781 C 481.4375 128.769531 473.496094 129.679688 472.476562 130.304688 C 471.921875 130.644531 450.90625 131.382812 441.210938 131.402344 C 440.457031 131.402344 438.871094 130.914062 437.683594 130.3125 C 435.582031 129.246094 435.484375 129.234375 433.636719 129.875 C 428.738281 131.570312 423.640625 132.226562 416.585938 132.0625 C 411.214844 131.945312 409.445312 132.039062 408.277344 132.527344 C 406.851562 133.121094 406.207031 133.113281 401.730469 132.421875 C 400.539062 132.238281 399.429688 132.414062 397.859375 133.03125 C 395.074219 134.132812 393.597656 134.128906 391.421875 133.019531 C 389.773438 132.179688 389.589844 132.167969 387.582031 132.777344 C 384.6875 133.664062 377.632812 134.078125 375.144531 133.511719 C 372.636719 132.941406 371.8125 133.351562 371.175781 135.46875 C 370.824219 136.648438 369.484375 138.285156 366.207031 141.539062 C 362.066406 145.652344 361.625 146.242188 360.523438 149.199219 C 359.617188 151.621094 358.828125 152.894531 357.28125 154.441406 C 356.144531 155.578125 354.574219 157.816406 353.746094 159.484375 C 352.925781 161.128906 351.8125 162.945312 351.277344 163.519531 C 350.738281 164.09375 350.019531 165.238281 349.675781 166.0625 C 349.332031 166.886719 348.429688 168.332031 347.671875 169.277344 C 345.488281 172 344.453125 173.867188 343.949219 175.960938 C 343.695312 177.035156 343.039062 178.695312 342.492188 179.652344 C 341.949219 180.613281 341.503906 181.847656 341.503906 182.398438 C 341.503906 183.890625 339.585938 189.167969 337.75 192.742188 C 336.773438 194.636719 335.953125 196.96875 335.691406 198.582031 C 335.1875 201.722656 334.003906 205 332.300781 207.996094 C 331.628906 209.171875 331.082031 210.523438 331.082031 211 C 331.082031 212.433594 328.722656 219.273438 326.972656 222.902344 C 326.074219 224.769531 325.222656 227.222656 325.082031 228.351562 C 324.917969 229.664062 324.171875 231.539062 323.007812 233.5625 C 322.007812 235.304688 320.789062 237.804688 320.300781 239.125 C 318.320312 244.464844 317.785156 246.03125 316.957031 248.859375 C 316.484375 250.488281 315.703125 252.316406 315.226562 252.921875 C 314.75 253.527344 314 255.320312 313.5625 256.910156 C 312.78125 259.722656 311.347656 262.695312 310.46875 263.3125 C 309.898438 263.714844 308.671875 263.71875 308.445312 263.320312 Z M 357.136719 249.046875 C 353.597656 248.574219 349.851562 247.152344 344.632812 244.304688 C 343.945312 243.929688 343.144531 243.621094 342.859375 243.621094 C 342.179688 243.621094 339.003906 240.339844 339.003906 239.640625 C 339.003906 238.878906 341.9375 236.640625 343.40625 236.285156 C 344.082031 236.121094 345.398438 235.441406 346.332031 234.773438 C 348.300781 233.378906 352.773438 232.195312 354.726562 232.558594 C 355.605469 232.71875 356.542969 232.558594 357.4375 232.089844 C 360.1875 230.652344 374.859375 230.152344 380.132812 231.320312 C 381.019531 231.515625 382.105469 231.371094 383.410156 230.867188 C 385.148438 230.203125 385.75 230.175781 388.960938 230.621094 C 392.019531 231.039062 392.878906 231.019531 394.640625 230.476562 C 396.394531 229.933594 397.082031 229.914062 399.019531 230.355469 C 400.28125 230.640625 401.597656 230.8125 401.945312 230.738281 C 402.503906 230.605469 426.714844 230.179688 430.289062 230.230469 C 436.917969 230.324219 440.207031 230.59375 441.125 231.105469 C 442.078125 231.640625 445.121094 231.996094 448.523438 231.972656 C 450.082031 231.960938 452.515625 231.980469 456.234375 232.027344 C 457.667969 232.039062 459.589844 232.015625 460.507812 231.960938 C 462.476562 231.839844 467.554688 232.167969 473.636719 232.800781 C 476.042969 233.050781 479.980469 233.261719 482.390625 233.265625 C 484.796875 233.265625 489.578125 233.488281 493.019531 233.753906 C 498.957031 234.210938 499.277344 234.28125 499.398438 235.148438 C 499.605469 236.589844 497.984375 237.308594 493.472656 237.777344 C 491.230469 238.007812 489.234375 238.296875 489.042969 238.414062 C 488.855469 238.53125 487.417969 238.703125 485.855469 238.796875 C 482.101562 239.019531 476.304688 239.777344 472.175781 240.578125 C 466.683594 241.644531 463.53125 241.984375 461.546875 241.730469 C 460.34375 241.578125 459.023438 241.722656 457.847656 242.140625 C 456.847656 242.496094 455.34375 242.789062 454.515625 242.789062 C 453.683594 242.789062 451.972656 243.078125 450.710938 243.425781 C 448.957031 243.910156 447.285156 243.996094 443.582031 243.789062 C 439.605469 243.566406 438.570312 243.632812 437.746094 244.164062 C 436.355469 245.058594 432.433594 245.707031 428.386719 245.707031 C 426.414062 245.707031 424.222656 245.972656 423.199219 246.332031 C 422.070312 246.730469 419.285156 247.023438 415.539062 247.132812 C 412.300781 247.226562 407.777344 247.441406 405.488281 247.601562 C 402.21875 247.828125 400.835938 247.746094 399.082031 247.222656 C 397.023438 246.609375 396.625 246.613281 394.152344 247.234375 C 391.566406 247.882812 391.296875 247.871094 387.425781 247 L 383.394531 246.089844 L 380.894531 246.96875 C 378.472656 247.820312 373.542969 248.5625 368.390625 248.851562 C 367.015625 248.929688 364.480469 249.078125 362.761719 249.1875 C 361.042969 249.292969 358.511719 249.242188 357.136719 249.050781 Z M 245.457031 235.453125 C 244.890625 234.882812 244.546875 232.480469 244.722656 230.269531 C 244.75 229.925781 244.871094 225.578125 244.996094 220.613281 C 245.113281 215.644531 245.378906 211.148438 245.570312 210.625 C 245.78125 210.058594 245.746094 209.199219 245.480469 208.507812 C 245.136719 207.601562 245.214844 206.710938 245.832031 204.519531 C 246.269531 202.964844 246.570312 201.132812 246.503906 200.445312 C 246.117188 196.441406 247.191406 187.417969 248.402344 184.515625 C 248.933594 183.25 248.953125 182.691406 248.535156 181.1875 C 247.890625 178.882812 248.210938 176.917969 249.566406 174.925781 C 250.304688 173.835938 250.636719 172.792969 250.636719 171.550781 C 250.636719 170.5 251.042969 168.941406 251.621094 167.789062 C 252.160156 166.707031 252.730469 165.007812 252.878906 164.015625 C 253.03125 163.019531 253.648438 161.242188 254.246094 160.058594 C 255.246094 158.085938 256.863281 153.015625 257.675781 149.292969 C 258.054688 147.578125 259.367188 145.285156 260.625 144.144531 C 261.09375 143.722656 261.472656 143.148438 261.472656 142.871094 C 261.472656 142.589844 262.386719 139.894531 263.507812 136.882812 C 265.105469 132.585938 265.914062 131 267.257812 129.539062 C 268.203125 128.511719 268.976562 127.285156 268.976562 126.808594 C 268.976562 126.332031 269.675781 124.332031 270.53125 122.363281 C 271.863281 119.285156 272.382812 118.5625 274.21875 117.203125 C 276.246094 115.707031 276.367188 115.507812 276.589844 113.34375 C 276.894531 110.398438 277.609375 109.070312 280.652344 105.816406 C 282.027344 104.347656 283.148438 102.960938 283.148438 102.730469 C 283.148438 102.503906 283.945312 101.578125 284.917969 100.675781 C 287.246094 98.523438 288.816406 96.417969 289.789062 94.144531 C 290.242188 93.085938 291.328125 91.695312 292.324219 90.890625 C 293.285156 90.121094 294.347656 88.957031 294.679688 88.308594 C 295.449219 86.824219 301.058594 81.164062 303.65625 79.25 C 304.734375 78.457031 305.851562 77.253906 306.136719 76.578125 C 307.117188 74.265625 308.882812 72.699219 311.164062 72.113281 C 312.816406 71.691406 313.460938 71.285156 313.964844 70.34375 C 315.222656 68.003906 316.710938 66.804688 320.035156 65.472656 C 322 64.6875 324.058594 63.5 325.039062 62.585938 C 327.433594 60.355469 330.890625 58.5625 333.917969 57.972656 C 336.113281 57.542969 336.722656 57.230469 337.609375 56.066406 C 339.152344 54.046875 340.816406 53.164062 345.3125 51.996094 C 348.867188 51.070312 352.378906 50.746094 357.410156 50.875 C 358.046875 50.886719 359.4375 51.628906 360.671875 52.609375 C 361.859375 53.546875 363.664062 54.597656 364.683594 54.945312 C 366.710938 55.640625 368.15625 57.238281 369.054688 59.789062 C 369.660156 61.507812 369.28125 62.144531 367.644531 62.160156 C 366.082031 62.171875 361.648438 63.949219 360.089844 65.1875 C 357.90625 66.921875 355.992188 67.535156 353.933594 67.15625 C 351.613281 66.734375 351.011719 66.976562 349.28125 69.050781 C 347.605469 71.054688 344.804688 72.347656 341.066406 72.84375 C 339.300781 73.082031 338.503906 73.476562 336.820312 74.976562 C 334.710938 76.847656 332.265625 78.183594 330.085938 78.640625 C 328.894531 78.894531 326.671875 80.855469 321.039062 86.628906 C 319.441406 88.265625 317.566406 89.84375 316.871094 90.128906 C 316.054688 90.46875 315.265625 91.328125 314.625 92.574219 C 314.082031 93.628906 311.84375 96.242188 309.652344 98.378906 C 307.289062 100.6875 305.351562 102.976562 304.886719 104.011719 C 304.457031 104.96875 303.289062 106.558594 302.292969 107.535156 C 301.292969 108.515625 299.910156 110.476562 299.210938 111.898438 C 298.28125 113.800781 297.289062 115.007812 295.464844 116.480469 C 291.964844 119.300781 289.613281 122.835938 288.773438 126.546875 C 288.128906 129.390625 286.828125 131.925781 284.355469 135.164062 C 283.742188 135.96875 282.9375 137.5625 282.570312 138.710938 C 282.199219 139.855469 281.148438 141.898438 280.230469 143.25 C 279.3125 144.601562 278.5625 146.136719 278.5625 146.664062 C 278.5625 147.957031 277.890625 149.671875 276.6875 151.433594 C 276.136719 152.234375 275.480469 153.832031 275.226562 154.976562 C 274.972656 156.125 274.144531 158.191406 273.382812 159.566406 C 272.625 160.941406 271.867188 162.820312 271.703125 163.738281 C 271.539062 164.65625 271.074219 166.0625 270.664062 166.867188 C 269.730469 168.699219 268.558594 173.417969 268.558594 175.347656 C 268.558594 176.203125 267.976562 177.90625 267.148438 179.472656 C 266.371094 180.9375 265.515625 183.191406 265.246094 184.484375 C 264.925781 186.03125 264.238281 187.515625 263.222656 188.839844 C 261.875 190.601562 261.675781 191.164062 261.613281 193.355469 C 261.5625 195.140625 261.238281 196.441406 260.46875 197.910156 C 259.875 199.039062 259.390625 200.207031 259.390625 200.507812 C 259.390625 200.808594 258.847656 202.230469 258.1875 203.671875 C 255.703125 209.066406 255.21875 210.292969 255.214844 211.199219 C 255.214844 211.707031 254.777344 213.0625 254.242188 214.210938 C 253.710938 215.355469 253.144531 217.417969 252.984375 218.785156 C 252.816406 220.226562 252.257812 222.019531 251.664062 223.03125 C 251.074219 224.035156 250.636719 225.441406 250.636719 226.320312 C 250.636719 227.164062 250.167969 228.789062 249.59375 229.929688 C 249.019531 231.074219 248.550781 232.519531 248.550781 233.144531 C 248.550781 234.242188 247.246094 236.109375 246.480469 236.109375 C 246.277344 236.109375 245.816406 235.8125 245.457031 235.453125 Z M 192.320312 223.664062 C 191.792969 222.671875 191.035156 216.621094 191.035156 213.382812 C 191.035156 212 190.824219 210.210938 190.566406 209.410156 C 190.089844 207.910156 189.820312 206.363281 188.976562 200.234375 C 188.707031 198.285156 188.230469 195.1875 187.914062 193.355469 C 187.597656 191.519531 187.441406 189.398438 187.566406 188.644531 C 187.707031 187.804688 187.503906 186.503906 187.046875 185.304688 C 186.449219 183.742188 186.265625 181.765625 186.136719 175.625 C 185.808594 159.636719 186.191406 154.34375 187.890625 151.042969 C 188.199219 150.449219 188.585938 149.023438 188.75 147.878906 C 189.394531 143.414062 191.164062 140.792969 194.652344 139.148438 C 195.984375 138.519531 197.378906 137.738281 197.746094 137.40625 C 200.96875 134.53125 207.289062 138.019531 207.289062 142.675781 C 207.289062 143.390625 206.796875 145.011719 206.195312 146.28125 C 205.234375 148.316406 205.070312 149.324219 204.8125 154.765625 C 204.574219 159.761719 204.371094 161.167969 203.738281 162.132812 C 202.546875 163.945312 202.261719 166.703125 202.988281 169.367188 C 203.589844 171.574219 203.570312 171.832031 202.464844 176.042969 C 201.679688 179.046875 201.238281 181.996094 201.0625 185.429688 C 200.921875 188.179688 200.601562 190.808594 200.34375 191.269531 C 200.089844 191.726562 199.792969 193.792969 199.683594 195.855469 C 199.566406 197.996094 199.171875 200.417969 198.753906 201.488281 C 198.347656 202.519531 197.871094 205.148438 197.691406 207.328125 C 197.300781 212.066406 196.902344 214.347656 196.402344 214.65625 C 196.199219 214.789062 196.019531 215.859375 196 217.050781 C 195.949219 220.492188 195.390625 223.636719 194.746094 224.042969 C 193.792969 224.648438 192.757812 224.488281 192.316406 223.664062 Z M 398.816406 201.472656 C 398.128906 201.257812 395.222656 200.773438 392.355469 200.394531 C 387.949219 199.8125 386.878906 199.523438 385.410156 198.511719 C 384.457031 197.855469 383.421875 197.316406 383.113281 197.316406 C 382.804688 197.316406 381.894531 196.96875 381.097656 196.546875 C 380.296875 196.121094 379.175781 195.660156 378.601562 195.515625 C 376.925781 195.097656 375.199219 193.234375 375.347656 192 C 375.414062 191.414062 375.757812 190.796875 376.101562 190.628906 C 376.855469 190.261719 381.5 189.027344 383.8125 188.582031 C 384.730469 188.40625 386.980469 187.605469 388.8125 186.800781 C 393.480469 184.757812 397.46875 184.082031 400.589844 184.8125 C 402.222656 185.195312 406.699219 185.410156 414.65625 185.484375 C 427.972656 185.601562 430.183594 185.761719 432 186.703125 C 432.988281 187.214844 434.8125 187.40625 439.609375 187.503906 C 446.773438 187.652344 454.882812 188.21875 455.503906 188.613281 C 455.734375 188.761719 458.828125 189 462.378906 189.148438 C 469.214844 189.433594 470.226562 189.742188 469.703125 191.390625 C 469.558594 191.855469 469.117188 192.355469 468.722656 192.507812 C 467.367188 193.027344 461.753906 193.980469 460.035156 193.980469 C 459.089844 193.980469 457.625 194.265625 456.785156 194.621094 C 455.804688 195.03125 454.730469 195.164062 453.8125 194.992188 C 453.019531 194.84375 452.136719 194.914062 451.851562 195.136719 C 450.875 195.921875 446.910156 196.484375 442.3125 196.484375 C 438.597656 196.484375 437.042969 196.683594 434.308594 197.515625 C 432.085938 198.191406 430.050781 198.523438 428.414062 198.480469 C 425.488281 198.402344 422.257812 199.007812 420.492188 199.96875 C 419.066406 200.746094 417.492188 200.839844 415.921875 200.242188 C 415.105469 199.933594 414.25 200.027344 412.457031 200.628906 C 409.710938 201.542969 400.8125 202.097656 398.816406 201.476562 Z M 398.816406 201.472656 " fill-opacity="1" fill-rule="nonzero"/></g></svg>