<svg xmlns="http://www.w3.org/2000/svg" xmlns:xlink="http://www.w3.org/1999/xlink" width="1080" zoomAndPan="magnify" viewBox="0 0 810 809.999993" height="1080" preserveAspectRatio="xMidYMid meet" version="1.0"><defs><clipPath id="f8ddb40c8b"><path d="M 81 314.394531 L 204 314.394531 L 204 460 L 81 460 Z M 81 314.394531 " clip-rule="nonzero"/></clipPath></defs><g clip-path="url(#f8ddb40c8b)"><path fill="#000000" d="M 196.90625 318.054688 C 197.929688 314.878906 200.171875 314.542969 203.230469 315.296875 C 204.03125 318.414062 202.621094 320.816406 201.015625 323.035156 C 198.488281 326.519531 195.863281 329.933594 193.125 333.238281 C 185.167969 342.820312 177.359375 352.542969 169.070312 361.828125 C 159.074219 373.027344 149.628906 384.691406 139.679688 395.925781 C 131.859375 404.757812 124.789062 414.253906 117.238281 423.328125 C 111.050781 430.757812 104.621094 437.988281 98.328125 445.332031 C 95.976562 448.070312 93.628906 450.808594 91.394531 453.644531 C 89.476562 456.074219 87.058594 457.785156 84.277344 459.019531 C 82.851562 459.65625 81 458.425781 81.132812 456.894531 C 81.242188 455.640625 81.398438 454.265625 81.996094 453.199219 C 84.101562 449.460938 86.164062 445.65625 88.679688 442.199219 C 94 434.914062 99.5 427.753906 105.09375 420.675781 C 122.015625 399.253906 138.953125 377.832031 157.269531 357.574219 C 166.332031 347.554688 175.667969 337.785156 185 328.015625 C 188.242188 324.613281 191.832031 321.542969 195.324219 318.394531 C 195.664062 318.089844 196.449219 318.285156 197.023438 318.238281 C 197.175781 317.894531 197.34375 317.570312 197.507812 317.238281 C 197.613281 317.53125 197.714844 317.820312 197.824219 318.109375 C 197.519531 318.097656 197.21875 318.078125 196.90625 318.054688 Z M 196.90625 318.054688 " fill-opacity="1" fill-rule="nonzero"/></g><path fill="#000000" d="M 392.714844 460.519531 C 392.917969 456.039062 395.199219 452.632812 397.421875 449.230469 C 406.488281 435.34375 416.082031 421.855469 426.703125 409.097656 C 433.980469 400.351562 441.054688 391.433594 448.164062 382.539062 C 455.8125 372.964844 463.277344 363.238281 471.039062 353.757812 C 476.894531 346.605469 483.074219 339.714844 489.140625 332.730469 C 490.835938 330.78125 492.605469 328.898438 494.371094 327.011719 C 496.882812 324.316406 499.660156 322.078125 503.707031 321.496094 C 505.140625 323.898438 505.351562 326.066406 503.847656 328.246094 C 501.527344 331.605469 499.347656 335.09375 496.742188 338.230469 C 490.554688 345.679688 484.820312 353.464844 478.90625 361.125 C 469.058594 373.890625 459.191406 386.65625 448.871094 399.042969 C 443.121094 405.945312 437.804688 413.1875 431.847656 419.925781 C 425.863281 426.695312 420.523438 434.027344 414.820312 441.054688 C 411.019531 445.734375 407.140625 450.355469 403.15625 454.878906 C 401.460938 456.800781 399.460938 458.488281 397.472656 460.128906 C 396.300781 461.085938 394.875 461.671875 392.714844 460.519531 Z M 392.714844 460.519531 " fill-opacity="1" fill-rule="nonzero"/><path fill="#000000" d="M 174.429688 459.117188 C 175.101562 455.054688 176.820312 451.816406 178.878906 448.8125 C 185.085938 439.796875 192.128906 431.425781 198.949219 422.875 C 211.441406 407.222656 224.691406 392.230469 237.816406 377.121094 C 248.6875 364.621094 259.796875 352.324219 270.910156 340.03125 C 273.785156 336.855469 277.089844 334.074219 280.132812 331.046875 C 281.019531 330.160156 281.714844 329.074219 282.460938 328.054688 C 284.332031 325.5 287.066406 324.265625 289.921875 323.292969 C 290.351562 323.144531 291.1875 323.625 291.554688 324.054688 C 291.914062 324.464844 292.140625 325.261719 291.992188 325.761719 C 291.765625 326.550781 291.261719 327.300781 290.742188 327.96875 C 283.613281 337.136719 276.539062 346.347656 269.292969 355.421875 C 264.75 361.117188 259.910156 366.5625 255.273438 372.183594 C 248.992188 379.792969 242.8125 387.484375 236.53125 395.097656 C 231.738281 400.898438 226.878906 406.65625 222.011719 412.398438 C 212.695312 423.386719 203.324219 434.324219 194.039062 445.34375 C 191.683594 448.136719 189.652344 451.195312 187.339844 454.027344 C 184.882812 457.039062 182.164062 459.816406 178.570312 461.457031 C 177.714844 461.847656 176.34375 461.976562 175.636719 461.539062 C 174.929688 461.097656 174.738281 459.796875 174.429688 459.117188 Z M 174.429688 459.117188 " fill-opacity="1" fill-rule="nonzero"/><path fill="#000000" d="M 396.792969 318.15625 C 398.363281 320.769531 397.445312 323.136719 396 325.378906 C 393.449219 329.332031 390.828125 333.238281 388.222656 337.152344 C 379.386719 350.417969 368.9375 362.453125 359.25 375.070312 C 351.019531 385.800781 342.683594 396.460938 334.269531 407.046875 C 328.128906 414.773438 321.742188 422.308594 315.542969 429.988281 C 309.617188 437.328125 303.835938 444.777344 297.898438 452.113281 C 296.027344 454.425781 293.960938 456.59375 291.839844 458.683594 C 290.214844 460.28125 288.285156 461.160156 285.699219 459.390625 C 285.847656 458.589844 285.746094 457.429688 286.246094 456.660156 C 290.007812 450.902344 293.550781 444.945312 297.835938 439.601562 C 302.125 434.265625 306.003906 428.652344 310.214844 423.273438 C 315.648438 416.34375 320.832031 409.21875 326.082031 402.148438 C 332.847656 393.03125 339.546875 383.871094 346.332031 374.773438 C 349.804688 370.117188 353.3125 365.488281 356.976562 360.984375 C 364.433594 351.800781 372.035156 342.730469 379.519531 333.5625 C 381.800781 330.761719 384.285156 328.128906 385.335938 324.425781 C 386.226562 321.269531 389.726562 320.503906 391.945312 318.550781 C 393.265625 317.394531 395.070312 317.21875 396.792969 318.15625 Z M 396.792969 318.15625 " fill-opacity="1" fill-rule="nonzero"/><path fill="#000000" d="M 506.304688 459.609375 C 505.53125 455.269531 507.308594 452.066406 509.34375 449.0625 C 515.851562 439.445312 522.292969 429.769531 529.113281 420.371094 C 537.691406 408.550781 546.507812 396.90625 555.40625 385.328125 C 562.996094 375.460938 570.796875 365.765625 578.59375 356.0625 C 582.878906 350.726562 587.074219 345.269531 591.804688 340.335938 C 595.8125 336.167969 599.574219 331.8125 603.460938 327.550781 C 605.148438 325.695312 607.519531 324.464844 609.613281 322.929688 C 611.074219 327.421875 611.207031 327.515625 609.15625 330.34375 C 605.121094 335.910156 600.980469 341.394531 596.789062 346.839844 C 588.152344 358.035156 579.445312 369.179688 570.769531 380.347656 C 566.039062 386.441406 561.210938 392.457031 556.59375 398.640625 C 551.199219 405.851562 546.058594 413.261719 540.671875 420.480469 C 535.785156 427.03125 530.675781 433.421875 525.726562 439.941406 C 523.53125 442.828125 521.511719 445.851562 519.398438 448.804688 C 517.769531 451.078125 516.214844 453.421875 514.453125 455.585938 C 512.519531 457.949219 510.34375 460.066406 506.304688 459.609375 Z M 506.304688 459.609375 " fill-opacity="1" fill-rule="nonzero"/><path fill="#000000" d="M 710.992188 317.609375 C 712.425781 318.441406 713.34375 318.96875 714.285156 319.515625 C 714.164062 320.332031 714.265625 321.074219 713.953125 321.53125 C 708.015625 330.457031 703.898438 340.449219 697.523438 349.140625 C 694.640625 353.074219 692.871094 357.804688 690.273438 361.960938 C 687.101562 367.042969 683.519531 371.859375 680.261719 376.886719 C 679.347656 378.296875 677.03125 378.179688 677.039062 380.828125 C 677.042969 382.417969 675.070312 384.023438 673.96875 385.617188 C 672.992188 387.027344 672.003906 388.429688 671.003906 389.828125 C 669.882812 391.40625 668.738281 392.972656 667.613281 394.542969 C 666.488281 396.117188 665.335938 397.675781 664.246094 399.273438 C 656.371094 410.792969 648.46875 422.289062 640.664062 433.851562 C 637.542969 438.480469 634.78125 443.367188 631.597656 447.957031 C 629.902344 450.398438 627.746094 452.550781 625.628906 454.65625 C 624.207031 456.066406 622.375 456.746094 619.980469 455.816406 C 619.0625 453.128906 619.785156 450.574219 621.296875 448.128906 C 624.699219 442.652344 628.15625 437.214844 631.515625 431.714844 C 640.585938 416.84375 651.328125 403.140625 661.277344 388.890625 C 667.546875 379.914062 674.363281 371.332031 680.714844 362.414062 C 683.5625 358.40625 685.808594 353.980469 688.425781 349.800781 C 693.105469 342.351562 697.824219 334.929688 702.589844 327.535156 C 704.207031 325.035156 705.929688 322.597656 707.761719 320.257812 C 708.507812 319.277344 709.699219 318.636719 710.992188 317.609375 Z M 710.992188 317.609375 " fill-opacity="1" fill-rule="nonzero"/><path fill="#000000" d="M 624.746094 377.757812 C 625.054688 381.304688 624.832031 384.335938 622.363281 386.886719 C 617.257812 392.167969 613.457031 398.417969 609.253906 404.386719 C 603.574219 412.464844 597.859375 420.519531 591.902344 428.386719 C 586.070312 436.085938 580.019531 443.625 573.820312 451.023438 C 571.933594 453.273438 569.296875 454.910156 566.878906 456.660156 C 566.332031 457.058594 564.953125 457.078125 564.523438 456.667969 C 563.847656 456.03125 563.117188 454.714844 563.34375 453.988281 C 564.246094 451.140625 565.1875 448.210938 566.722656 445.679688 C 569.726562 440.75 572.582031 435.722656 576.472656 431.324219 C 579.714844 427.652344 582.242188 423.339844 585.066406 419.304688 C 592.238281 409.070312 600.558594 399.765625 608.65625 390.285156 C 611.441406 387.019531 614.242188 383.761719 617.144531 380.605469 C 618.941406 378.667969 621.101562 377.296875 624.746094 377.757812 Z M 624.746094 377.757812 " fill-opacity="1" fill-rule="nonzero"/><path fill="#000000" d="M 299.445312 382.34375 C 300.125 385.839844 299.042969 388.523438 297.035156 390.949219 C 296.347656 391.777344 295.757812 392.679688 295.0625 393.496094 C 282.953125 407.726562 270.929688 422.046875 258.664062 436.140625 C 253.597656 441.964844 248.089844 447.421875 242.570312 452.832031 C 240.785156 454.582031 238.375 455.726562 236.132812 456.9375 C 235.527344 457.265625 234.363281 457.078125 233.71875 456.6875 C 232.71875 456.085938 232.625 454.984375 232.988281 453.839844 C 233.839844 451.160156 234.929688 448.644531 236.839844 446.496094 C 240.554688 442.335938 244.257812 438.144531 247.820312 433.847656 C 253.433594 427.066406 259.023438 420.257812 264.441406 413.320312 C 272.015625 403.632812 281.042969 395.351562 289.753906 386.769531 C 291.125 385.421875 292.699219 384.261719 294.269531 383.132812 C 295.675781 382.136719 297.21875 381.367188 299.445312 382.34375 Z M 299.445312 382.34375 " fill-opacity="1" fill-rule="nonzero"/><path fill="#000000" d="M 402.039062 383.140625 C 401.015625 385.710938 400.4375 388.53125 398.90625 390.691406 C 396.066406 394.71875 392.726562 398.402344 389.496094 402.148438 C 383.59375 408.976562 377.925781 415.992188 371.46875 422.363281 C 366.75 427.019531 362.878906 432.539062 358.523438 437.578125 C 353.460938 443.441406 348.351562 449.265625 343.113281 454.980469 C 341.695312 456.53125 339.816406 457.699219 338.046875 458.878906 C 336.882812 459.660156 335.570312 459.488281 334.449219 458.582031 C 333.199219 457.570312 333.367188 456.273438 334.074219 455.109375 C 336.195312 451.625 338.121094 447.96875 340.628906 444.789062 C 348.898438 434.351562 357.152344 423.886719 365.863281 413.820312 C 373.179688 405.375 381.082031 397.433594 388.816406 389.363281 C 390.890625 387.195312 393.199219 385.199219 395.644531 383.464844 C 396.949219 382.539062 398.757812 382.257812 400.390625 381.894531 C 400.773438 381.804688 401.324219 382.574219 402.039062 383.140625 Z M 402.039062 383.140625 " fill-opacity="1" fill-rule="nonzero"/><path fill="#000000" d="M 197.855469 379.96875 C 199.761719 381.054688 200.085938 382.636719 199.484375 384.449219 C 198.65625 386.941406 197.378906 389.117188 195.230469 390.765625 C 191.460938 393.652344 188.535156 397.382812 185.347656 400.871094 C 174.054688 413.253906 162.730469 425.613281 151.160156 437.734375 C 147.347656 441.726562 143.671875 445.835938 139.863281 449.816406 C 137.800781 451.96875 135.460938 453.859375 133.109375 455.703125 C 132.277344 456.355469 130.929688 456.382812 130.210938 455.382812 C 129.792969 454.804688 129.671875 453.765625 129.859375 453.050781 C 130.183594 451.820312 130.746094 450.621094 131.386719 449.515625 C 136.785156 440.121094 143.941406 432.121094 151.386719 424.351562 C 151.960938 423.753906 152.9375 423.488281 153.398438 422.835938 C 161.160156 411.917969 170.820312 402.75 180.3125 393.429688 C 183.53125 390.265625 186.824219 387.175781 190.101562 384.070312 C 192.308594 381.96875 194.828125 380.410156 197.855469 379.96875 Z M 197.855469 379.96875 " fill-opacity="1" fill-rule="nonzero"/><path fill="#000000" d="M 454.667969 459.386719 C 454.09375 458.542969 453.246094 457.875 453.273438 457.246094 C 453.429688 454.21875 454.074219 451.328125 455.9375 448.773438 C 459.863281 443.394531 463.558594 437.855469 467.566406 432.539062 C 473.226562 425.015625 478.886719 417.472656 484.898438 410.230469 C 491.074219 402.800781 497.621094 395.683594 504.113281 388.523438 C 505.378906 387.128906 507.046875 386.007812 508.703125 385.070312 C 509.773438 384.46875 511.375 384.140625 512.203125 385.441406 C 512.679688 386.199219 512.679688 387.519531 512.390625 388.429688 C 512.015625 389.617188 511.246094 390.738281 510.472656 391.742188 C 503.652344 400.574219 496.734375 409.328125 489.980469 418.207031 C 486.488281 422.792969 483.386719 427.671875 479.910156 432.273438 C 474.855469 438.96875 469.6875 445.574219 464.441406 452.117188 C 462.839844 454.117188 460.960938 455.945312 458.980469 457.558594 C 457.890625 458.433594 456.308594 458.71875 454.667969 459.386719 Z M 454.667969 459.386719 " fill-opacity="1" fill-rule="nonzero"/><path fill="#000000" d="M 674.882812 454.390625 C 674.21875 453.414062 673.125 452.535156 673.207031 451.789062 C 673.410156 449.90625 673.820312 447.90625 674.722656 446.273438 C 676.910156 442.339844 679.320312 438.53125 681.832031 434.792969 C 686.597656 427.679688 691.390625 420.582031 696.363281 413.625 C 702.855469 404.558594 709.445312 395.542969 717.164062 387.480469 C 719.804688 384.71875 723.074219 382.5625 726.132812 380.226562 C 726.488281 379.957031 727.511719 380.105469 727.875 380.441406 C 728.144531 380.691406 728.078125 381.859375 727.769531 382.101562 C 726.214844 383.304688 729.027344 384.613281 727.539062 385.832031 C 726.570312 386.628906 725.816406 387.703125 725.042969 388.707031 C 724.132812 389.882812 723.3125 391.117188 722.449219 392.324219 C 720.207031 395.453125 717.664062 398.417969 715.785156 401.75 C 709.132812 413.542969 701.226562 424.480469 693.320312 435.433594 C 690.695312 439.070312 688.375 442.933594 685.613281 446.464844 C 683.78125 448.796875 681.546875 450.871094 679.253906 452.757812 C 678.175781 453.628906 676.527344 453.804688 674.882812 454.390625 Z M 674.882812 454.390625 " fill-opacity="1" fill-rule="nonzero"/></svg>