<svg width="16" height="16" viewBox="0 0 16 16" fill="none" xmlns="http://www.w3.org/2000/svg" role="img" aria-label="sparkle Icon" aria-hidden="true" class="inline-block shrink-0 text-current size-16"><g clip-path="url(#«Rp68lol5»-clip0_11034_69070)"><path d="M5.2669 10.7332L1.82377 9.46446C1.72884 9.42942 1.64692 9.36612 1.58906 9.28309C1.5312 9.20006 1.50018 9.10129 1.50018 9.00009C1.50018 8.89889 1.5312 8.80012 1.58906 8.71709C1.64692 8.63406 1.72884 8.57076 1.82377 8.53571L5.2669 7.26696L6.53565 3.82384C6.57069 3.7289 6.63399 3.64698 6.71702 3.58912C6.80006 3.53126 6.89882 3.50024 7.00002 3.50024C7.10123 3.50024 7.19999 3.53126 7.28302 3.58912C7.36606 3.64698 7.42936 3.7289 7.4644 3.82384L8.73315 7.26696L12.1763 8.53571C12.2712 8.57076 12.3531 8.63406 12.411 8.71709C12.4688 8.80012 12.4999 8.89889 12.4999 9.00009C12.4999 9.10129 12.4688 9.20006 12.411 9.28309C12.3531 9.36612 12.2712 9.42942 12.1763 9.46446L8.73315 10.7332L7.4644 14.1763C7.42936 14.2713 7.36606 14.3532 7.28302 14.4111C7.19999 14.4689 7.10123 14.4999 7.00002 14.4999C6.89882 14.4999 6.80006 14.4689 6.71702 14.4111C6.63399 14.3532 6.57069 14.2713 6.53565 14.1763L5.2669 10.7332Z" fill="#FEF95D"/><path d="M5.2669 10.7332L1.82377 9.46446C1.72884 9.42942 1.64692 9.36612 1.58906 9.28309C1.5312 9.20006 1.50018 9.10129 1.50018 9.00009C1.50018 8.89889 1.5312 8.80012 1.58906 8.71709C1.64692 8.63406 1.72884 8.57076 1.82377 8.53571L5.2669 7.26696L6.53565 3.82384C6.57069 3.7289 6.63399 3.64698 6.71702 3.58912C6.80005 3.53126 6.89882 3.50024 7.00002 3.50024C7.10123 3.50024 7.19999 3.53126 7.28302 3.58912C7.36605 3.64698 7.42936 3.7289 7.4644 3.82384L8.73315 7.26696L12.1763 8.53571C12.2712 8.57076 12.3531 8.63406 12.411 8.71709C12.4688 8.80012 12.4999 8.89889 12.4999 9.00009C12.4999 9.10129 12.4688 9.20006 12.411 9.28309C12.3531 9.36612 12.2712 9.42942 12.1763 9.46446L8.73315 10.7332L7.4644 14.1763C7.42936 14.2713 7.36605 14.3532 7.28302 14.4111C7.19999 14.4689 7.10123 14.4999 7.00002 14.4999C6.89882 14.4999 6.80005 14.4689 6.71702 14.4111C6.63399 14.3532 6.57069 14.2713 6.53565 14.1763L5.2669 10.7332Z" stroke="black" stroke-width="1.5" vector-effect="non-scaling-stroke" stroke-linecap="round" stroke-linejoin="round"/><path d="M11 1V4" stroke="black" stroke-width="1.5" vector-effect="non-scaling-stroke" stroke-linecap="round" stroke-linejoin="round"/><path d="M14 4.5V6.5" stroke="black" stroke-width="1.5" vector-effect="non-scaling-stroke" stroke-linecap="round" stroke-linejoin="round"/><path d="M9.5 2.5H12.5" stroke="black" stroke-width="1.5" vector-effect="non-scaling-stroke" stroke-linecap="round" stroke-linejoin="round"/><path d="M13 5.5H15" stroke="black" stroke-width="1.5" vector-effect="non-scaling-stroke" stroke-linecap="round" stroke-linejoin="round"/></g><defs><clipPath id="«Rp68lol5»-clip0_11034_69070"><rect width="16" height="16" fill="white"/></clipPath></defs></svg>