<?xml version="1.0" standalone="no"?>
<!DOCTYPE svg PUBLIC "-//W3C//DTD SVG 20010904//EN"
 "http://www.w3.org/TR/2001/REC-SVG-20010904/DTD/svg10.dtd">
<svg version="1.0" xmlns="http://www.w3.org/2000/svg"
 width="450.000000pt" height="450.000000pt" viewBox="0 0 450.000000 450.000000"
 preserveAspectRatio="xMidYMid meet">
<metadata>
Created by potrace 1.10, written by Peter Selinger 2001-2011
</metadata>
<g transform="translate(0.000000,450.000000) scale(0.050000,-0.050000)"
fill="#000000" stroke="none">
<path d="M4000 8773 c0 -113 -76 -157 -333 -192 -340 -47 -567 -174 -567 -319
0 -35 -19 -90 -43 -122 -81 -110 1 -355 192 -572 72 -82 83 -105 68 -145 -30
-81 19 -152 113 -160 102 -9 266 -195 231 -261 -19 -36 -25 -36 -151 10 -394
143 -810 -38 -810 -352 l0 -105 104 10 c90 9 111 20 162 83 113 141 289 176
477 95 119 -51 119 -52 86 -194 -52 -221 -19 -453 101 -706 39 -82 102 -260
141 -397 38 -136 86 -285 107 -332 21 -46 62 -163 91 -259 29 -97 57 -187 63
-202 6 -16 -35 -54 -108 -99 -448 -276 -748 -755 -778 -1239 -11 -187 -14
-195 -58 -195 -45 0 -45 1 -13 57 63 111 -58 263 -211 263 -183 0 -288 -165
-207 -325 l38 -74 -67 -22 c-83 -27 -96 -46 -68 -99 27 -51 86 -50 200 2 146
66 400 70 400 7 0 -27 27 -132 60 -234 160 -499 484 -853 973 -1066 86 -37
163 -84 171 -103 8 -20 51 -132 96 -249 86 -225 194 -377 270 -382 82 -4 453
150 475 198 11 25 46 51 78 58 131 29 160 133 100 363 l-37 142 184 44 c101
24 273 78 382 120 169 65 201 71 218 46 104 -153 204 -271 259 -305 l66 -41
215 100 c478 223 513 283 368 634 -24 59 -22 69 16 110 56 62 127 208 206 426
113 312 184 416 381 561 207 152 206 630 -2 818 -91 82 -87 81 -199 41 -234
-83 -356 -26 -575 269 -174 233 -263 302 -495 381 l-100 34 -11 153 c-13 187
-33 213 -128 167 -42 -19 -74 -25 -81 -13 -47 75 -365 -34 -442 -151 -65 -100
-339 -48 -390 74 -13 32 -47 91 -77 132 -33 46 -66 135 -87 236 -64 300 -175
656 -285 913 -122 285 -119 275 -83 275 284 0 1254 827 1254 1070 0 27 26 55
74 80 179 97 209 200 93 325 -60 65 -59 74 13 125 60 42 79 106 39 130 -37 23
-188 -67 -264 -158 -53 -64 -85 -86 -113 -78 -64 16 -129 -65 -116 -146 7 -38
5 -68 -2 -68 -8 0 -62 -72 -121 -161 -173 -262 -491 -502 -895 -678 l-178 -78
-45 44 -45 44 44 120 c96 260 54 622 -99 860 l-77 118 77 110 c81 116 74 142
-27 100 -80 -33 -84 -24 -38 97 78 205 31 394 -49 199 l-35 -85 -23 53 c-60
137 -153 179 -153 70z m2140 -407 c0 -8 -40 -52 -90 -97 -86 -79 -113 -129
-70 -129 11 0 20 9 20 20 0 33 55 23 68 -13 14 -35 -36 -127 -69 -127 -11 0
-15 24 -8 55 11 53 10 53 -20 16 -38 -48 -38 -53 -1 -124 73 -140 -23 -188
-157 -79 -151 125 -154 282 -3 244 59 -15 67 -52 11 -52 -49 0 -73 -36 -43
-66 16 -16 22 -16 22 2 0 13 18 24 41 24 49 0 72 50 40 88 -18 23 -9 44 43
104 87 98 216 179 216 134z m-1814 -323 c245 -450 59 -1125 -310 -1123 -139 1
-350 152 -450 322 -30 50 -47 58 -120 58 -76 0 -87 6 -99 53 -15 64 31 108 99
93 40 -8 41 -7 10 19 -29 24 -30 33 -7 57 57 60 52 109 -29 275 -44 91 -80
170 -80 174 0 5 43 9 96 9 275 0 559 68 704 168 83 57 104 46 186 -105z m1800
1 c-19 -52 -48 -84 -78 -84 -18 0 -13 20 18 68 45 68 82 79 60 16z m-323 -190
c115 -87 116 -112 14 -270 -229 -351 -922 -869 -1165 -869 -64 0 -66 17 20
-169 140 -301 322 -867 359 -1113 l13 -86 -122 -45 -122 -44 -115 82 c-215
153 -508 423 -632 581 -67 86 -126 148 -130 137 -37 -105 814 -860 1063 -943
54 -18 -99 -256 -163 -254 -136 2 -521 239 -760 469 -413 394 -586 813 -501
1209 26 122 16 122 221 11 317 -170 577 -93 577 171 0 86 12 97 50 46 42 -58
70 -10 70 121 l0 126 178 74 c380 158 757 445 925 704 95 148 105 150 220 62z
m-1452 -866 c-7 -27 -26 -48 -46 -48 -19 0 -64 -18 -100 -40 -38 -23 -98 -39
-140 -38 -74 2 -74 2 -15 17 95 23 180 74 242 146 60 70 83 56 59 -37z m102
-54 c7 -40 6 -88 -2 -108 -25 -63 -77 64 -61 149 15 84 46 65 63 -41z m-423
-105 l92 -14 -6 -82 c-8 -111 -42 -103 -234 51 -82 66 -161 125 -176 130 -14
6 -26 22 -26 37 0 17 43 4 129 -41 71 -37 170 -73 221 -81z m181 -147 c-27
-44 -66 -23 -56 30 9 45 14 48 40 22 16 -17 24 -40 16 -52z m-243 -1317 c54
-58 142 -139 195 -179 112 -86 113 -82 -25 -105 -212 -34 -240 2 -356 449
l-21 80 54 -70 c30 -38 98 -117 153 -175z m2057 -200 c39 -43 70 -232 81 -488
l8 -194 -172 -31 c-330 -61 -604 -17 -572 93 35 117 175 375 251 461 140 159
335 236 404 159z m189 -20 c7 -30 14 -106 15 -168 l1 -112 134 -43 c203 -66
307 -147 472 -367 191 -256 264 -305 455 -304 l143 1 -17 -71 c-44 -191 9
-461 122 -616 l59 -82 -97 -33 c-237 -78 -580 -70 -775 19 -115 53 -163 53
-95 1 153 -117 637 -150 874 -59 17 7 -5 -27 -49 -75 -94 -102 -147 -202 -236
-446 -122 -340 -260 -530 -382 -530 -51 0 -65 -34 -19 -46 46 -11 98 -171 106
-323 l5 -100 -239 -116 -239 -117 -51 37 c-56 42 -241 276 -241 306 0 10 43
40 95 67 108 54 207 130 171 131 -13 1 -76 -31 -140 -69 -251 -152 -789 -324
-1165 -372 -100 -13 -181 -32 -181 -43 0 -19 109 -13 301 18 l72 11 33 -140
c52 -212 46 -256 -40 -301 -59 -31 -62 -30 -51 27 11 55 -28 287 -55 331 -36
57 -40 1 -9 -131 62 -268 26 -330 -249 -431 l-204 -75 -60 51 c-77 64 -316
565 -270 565 4 0 46 -14 93 -30 52 -19 94 -23 104 -13 11 11 -48 41 -148 73
-1441 473 -1748 2107 -551 2925 163 112 139 136 276 -275 172 -515 169 -533
-138 -1023 -99 -158 -203 -334 -232 -392 -29 -58 -60 -105 -69 -105 -9 0 -34
-37 -54 -82 l-37 -82 49 -38 c92 -73 449 -239 562 -262 326 -67 286 265 -46
387 -79 29 -112 50 -100 65 319 417 502 703 565 884 46 130 43 172 -55 648
-109 536 -95 612 107 607 108 -2 109 -3 285 -175 143 -139 187 -172 236 -172
34 0 109 -22 168 -50 155 -72 711 -43 719 37 9 79 -8 444 -24 552 -18 115 -16
133 15 155 51 38 65 32 81 -29z m-969 -126 c96 -27 100 -65 5 -48 -46 9 -70 6
-70 -9 0 -31 116 -99 195 -114 36 -7 65 -21 65 -32 0 -12 -28 -15 -70 -7 -83
15 -95 -18 -20 -53 106 -48 39 -69 -78 -24 -55 21 -35 -27 33 -80 76 -60 34
-73 -67 -21 -95 49 -116 23 -38 -48 38 -34 61 -63 51 -63 -34 0 -140 87 -248
203 l-108 115 63 95 c34 51 62 102 62 113 0 20 100 9 225 -27z m274 -74 c-2
-58 -54 -83 -130 -62 -73 20 -75 23 -39 49 39 29 170 39 169 13z m2061 -765
c45 -24 109 -112 130 -180 14 -43 12 -46 -14 -25 -49 41 -84 -15 -53 -83 31
-68 72 -67 81 3 5 35 13 11 23 -67 19 -140 -11 -341 -58 -387 -137 -137 -326
518 -204 705 40 61 43 62 95 34z m-4578 -838 c67 -68 73 -119 21 -183 -47 -59
-97 -36 -54 25 54 78 -27 154 -119 112 -153 -69 -18 -216 199 -216 123 0 127
-52 6 -70 -162 -24 -338 44 -377 145 -72 189 177 333 324 187z m-65 -89 c29
-34 -41 -104 -86 -86 -42 16 -39 66 4 91 46 27 56 27 82 -5z m-159 -252 c32
-20 -103 -87 -153 -77 -47 10 -27 45 40 69 82 30 79 30 113 8z m4262 -867 c48
-136 50 -191 9 -250 -48 -68 -60 -55 -87 89 -13 74 -36 163 -51 198 -25 60
-24 66 16 85 55 25 65 15 113 -122z"/>
<path d="M4148 7952 c-15 -39 26 -112 63 -112 35 0 39 82 5 116 -32 32 -55 30
-68 -4z"/>
<path d="M3661 7901 c-42 -77 -9 -85 45 -10 30 41 31 49 6 49 -17 0 -40 -17
-51 -39z"/>
<path d="M3707 7795 c7 -25 13 -51 13 -58 0 -26 67 -38 82 -15 22 37 -24 118
-68 118 -30 0 -36 -10 -27 -45z"/>
<path d="M4020 7722 c0 -10 50 -46 110 -80 127 -72 133 -89 48 -133 -77 -40
-61 -63 20 -30 117 49 93 118 -74 211 -100 56 -104 57 -104 32z"/>
<path d="M3371 7402 c-14 -22 7 -82 29 -82 8 0 20 23 25 50 9 49 -29 72 -54
32z"/>
<path d="M3766 7335 c-43 -55 -50 -78 -23 -72 15 3 79 -15 143 -39 120 -46
301 -58 354 -24 21 14 -12 20 -110 21 -145 1 -320 52 -320 93 0 37 -23 49 -44
21z"/>
<path d="M6613 4347 c-23 -24 -14 -101 16 -126 47 -39 102 -17 96 38 -9 79
-71 128 -112 88z"/>
<path d="M7525 3946 c-53 -19 -21 -146 37 -146 29 0 38 14 38 58 0 61 -35 102
-75 88z"/>
<path d="M1634 6040 c-101 -80 -203 -407 -139 -447 12 -7 24 40 30 117 42 523
457 408 726 -201 l47 -107 64 32 c175 87 385 41 525 -115 101 -112 128 -125
84 -41 -101 195 -357 275 -621 193 -34 -11 -50 8 -105 123 -187 390 -444 578
-611 446z"/>
<path d="M1106 5581 c-64 -39 -126 -132 -126 -190 0 -43 -29 -39 -126 18 -187
109 -391 105 -510 -11 -63 -62 -92 -131 -62 -149 10 -6 18 4 18 22 0 18 30 63
66 99 121 121 292 115 519 -20 l115 -68 0 51 c0 236 280 333 435 150 32 -37
45 -44 45 -21 0 120 -245 198 -374 119z"/>
<path d="M7828 5532 c-117 -52 -224 -332 -126 -332 13 0 16 22 8 58 -17 81 34
193 107 231 173 89 338 -31 404 -294 l24 -95 76 79 c151 155 459 89 459 -99 0
-21 10 -44 23 -52 50 -31 -5 123 -68 187 -115 119 -281 125 -412 14 l-60 -50
-33 101 c-73 220 -237 323 -402 252z"/>
<path d="M7360 5327 c-16 -7 -49 -30 -73 -51 -43 -39 -44 -39 -85 2 -85 85
-283 20 -281 -92 0 -37 59 18 59 55 0 75 171 58 227 -22 28 -40 29 -40 89 20
70 71 202 84 280 30 25 -18 56 -28 69 -24 14 5 1 24 -31 44 -57 37 -202 59
-254 38z"/>
<path d="M1978 5138 c-802 -15 -1071 -37 -1231 -100 -92 -37 -19 -43 97 -9
140 42 505 70 928 71 549 0 1247 25 1236 43 -6 9 -57 16 -114 14 -57 -2 -470
-10 -916 -19z"/>
<path d="M8087 4903 c-299 -29 -551 -60 -559 -68 -21 -22 -17 -21 647 39 333
30 605 62 605 70 0 23 -81 18 -693 -41z"/>
<path d="M1893 1769 c-561 -88 -1536 -503 -1663 -709 -23 -37 7 -21 208 110
490 321 1080 531 1660 589 115 12 213 26 219 31 19 19 -250 6 -424 -21z"/>
<path d="M2110 1384 c-417 -174 -850 -432 -1200 -715 -202 -163 -538 -488
-522 -504 6 -6 104 78 217 187 456 439 1055 828 1590 1030 69 26 125 55 125
63 0 24 -19 18 -210 -61z"/>
</g>
</svg>
